<svg xmlns="http://www.w3.org/2000/svg" data-name="Layer 1" viewBox="0 0 100 125" x="0px" y="0px"><title>Noun_Project_100Icon_10px_grid</title><g data-name="Drum machine 1"><circle cx="28" cy="65.8" r="0.4"/><circle cx="79" cy="65.8" r="0.4"/><circle cx="58.6" cy="65.8" r="0.4"/><circle cx="31.4" cy="65.8" r="0.4"/><circle cx="55.2" cy="65.8" r="0.4"/><circle cx="34.8" cy="65.8" r="0.4"/><circle cx="38.2" cy="65.8" r="0.4"/><path d="M86,65.8H82.8v2.6H86Zm-.6,2h-2V66.4h2Z"/><circle cx="65.4" cy="65.8" r="0.4"/><circle cx="41.6" cy="65.8" r="0.4"/><circle cx="68.8" cy="65.8" r="0.4"/><circle cx="62" cy="65.8" r="0.4"/><circle cx="72.2" cy="65.8" r="0.4"/><circle cx="75.6" cy="65.8" r="0.4"/><path d="M86.4,53.5a1.3,1.3,0,0,0-1-1.26V53.4h-.6V52.24a1.3,1.3,0,1,0,1.6,1.26Z"/><circle cx="45" cy="65.8" r="0.4"/><path d="M17.5,54.4A4.5,4.5,0,1,0,13,49.9,4.51,4.51,0,0,0,17.5,54.4Zm0-7.4a2.9,2.9,0,1,1-2.9,2.9A2.9,2.9,0,0,1,17.5,47Z"/><circle cx="48.4" cy="65.8" r="0.4"/><path d="M23.7,43.4a1.3,1.3,0,0,0,.3-2.56V42h-.6V40.84a1.3,1.3,0,0,0,.3,2.56Z"/><path d="M17.4,36.1a1.3,1.3,0,0,0-1-1.26V36h-.6V34.84a1.3,1.3,0,1,0,1.6,1.26Z"/><circle cx="51.8" cy="65.8" r="0.4"/><path d="M23.7,37.4a1.3,1.3,0,0,0,.3-2.56V36h-.6V34.84a1.3,1.3,0,0,0,.3,2.56Z"/><path d="M14.2,68.4h6.6V65.8H14.2Zm.6-2h5.4v1.4H14.8Z"/><path d="M89,23v1H11V23H5V77h6V76H89v1h6V23ZM17.5,44.8a5.1,5.1,0,1,1-5.1,5.1A5.1,5.1,0,0,1,17.5,44.8Zm-3.3-8.7A1.9,1.9,0,1,1,16.1,38,1.9,1.9,0,0,1,14.2,36.1Zm9.5,4.1a1.9,1.9,0,1,1-1.9,1.9A1.9,1.9,0,0,1,23.7,40.2Zm-1.9-4.1A1.9,1.9,0,1,1,23.7,38,1.9,1.9,0,0,1,21.8,36.1ZM66.6,71.8H12.4v-14H22.6V70h44ZM46.2,59.4v1H26.8v-1Zm-19.4-.6v-1H36v1Zm39.8.6v1H47.2v-1Zm-19.4-.6v-1h9.2v1Zm33,.6v1H67.6v-1Zm-12.6-.6v-1h9.2v1Zm10.2,0v-1h2.4v1ZM80.2,61v1H67.6V61Zm0,1.6v1H54v-1Zm0,2.2V69H77.8V64.8Zm-3.4,0V69H74.4V64.8Zm-3.4,0V69H71V64.8Zm-3.4,0V69H67.6V64.8Zm-6.8,0V69H60.8V64.8Zm-3.4,0V69H57.4V64.8Zm-3.4,0V69H54V64.8ZM54,62V61H66.6v1Zm12.6-3.2H57.4v-1h9.2ZM53,61v1H40.4V61ZM46.2,58.8H37v-1h9.2ZM39.4,61v1H26.8V61ZM53,62.6v1H26.8v-1Zm0,2.2V69H50.6V64.8Zm-3.4,0V69H47.2V64.8Zm-3.4,0V69H43.8V64.8Zm-3.4,0V69H40.4V64.8Zm-3.4,0V69H37V64.8Zm-3.4,0V69H33.6V64.8Zm-3.4,0V69H30.2V64.8Zm-3.4,0V69H26.8V64.8ZM66.6,69H64.2V64.8h2.4Zm21,2.8h-20V70H81.2V57.8h6.4Zm0-14.6H12.4v-.6H87.6Zm-4.4-3.7a1.9,1.9,0,1,1,1.9,1.9A1.9,1.9,0,0,1,83.2,53.5ZM87.6,50H26.8V49H87.6ZM29,34.3a1.3,1.3,0,1,1,1.3,1.3A1.3,1.3,0,0,1,29,34.3Zm6,4.14v1.17h.6V38.44a1.3,1.3,0,1,1-.6,0ZM34,34.3a1.3,1.3,0,1,1,1.3,1.3A1.3,1.3,0,0,1,34,34.3Zm1,9.54V45h.6V43.84a1.3,1.3,0,1,1-.6,0Zm5-5.42V39.6h.6V38.42a1.3,1.3,0,1,1-.6,0ZM39,34.3a1.3,1.3,0,1,1,1.3,1.3A1.3,1.3,0,0,1,39,34.3Zm1,9.52V45h.6V43.82a1.3,1.3,0,1,1-.6,0Zm5-5.4V39.6h.6V38.42a1.3,1.3,0,1,1-.6,0ZM44,34.3a1.3,1.3,0,1,1,1.3,1.3A1.3,1.3,0,0,1,44,34.3ZM67.4,44.8v1H43.6v-1ZM50,38.42V39.6h.6V38.42a1.3,1.3,0,1,1-.6,0ZM49,34.3a1.3,1.3,0,1,1,1.3,1.3A1.3,1.3,0,0,1,49,34.3Zm6,4.12V39.6h.6V38.42a1.3,1.3,0,1,1-.6,0ZM54,34.3a1.3,1.3,0,1,1,1.3,1.3A1.3,1.3,0,0,1,54,34.3Zm5,0a1.3,1.3,0,1,1,1.3,1.3A1.3,1.3,0,0,1,59,34.3Zm5,0a1.3,1.3,0,1,1,1.3,1.3A1.3,1.3,0,0,1,64,34.3Zm5,0a1.3,1.3,0,1,1,1.3,1.3A1.3,1.3,0,0,1,69,34.3Zm6,4.12V39.6h.6V38.42a1.3,1.3,0,1,1-.6,0ZM74,34.3a1.3,1.3,0,1,1,1.3,1.3A1.3,1.3,0,0,1,74,34.3Zm1,9.52V45h.6V43.82a1.3,1.3,0,1,1-.6,0Zm5,0V45h.6V43.82a1.3,1.3,0,1,1-.6,0ZM79,34.3a1.3,1.3,0,1,1,1.3,1.3A1.3,1.3,0,0,1,79,34.3Zm5,0a1.3,1.3,0,1,1,1.3,1.3A1.3,1.3,0,0,1,84,34.3Zm3.6-2.5H12.4v-.6H87.6Z"/><path d="M17.5,52.2a2.3,2.3,0,0,0,.3-4.58V49.2h-.6V47.62a2.3,2.3,0,0,0,.3,4.58Z"/></g><text x="0" y="115" fill="#000000" font-size="5px" font-weight="bold" font-family="'Helvetica Neue', Helvetica, Arial-Unicode, Arial, Sans-serif">Created by Kentaro Terajima</text><text x="0" y="120" fill="#000000" font-size="5px" font-weight="bold" font-family="'Helvetica Neue', Helvetica, Arial-Unicode, Arial, Sans-serif">from the Noun Project</text></svg>