<svg xmlns="http://www.w3.org/2000/svg" xmlns:xlink="http://www.w3.org/1999/xlink" version="1.1" x="0px" y="0px" viewBox="0 0 100 125" style="enable-background:new 0 0 100 100;" xml:space="preserve"><g><path d="M98.4,12.7H1.6c-0.3,0-0.5,0.2-0.5,0.5v73.6c0,0.3,0.2,0.5,0.5,0.5h96.8c0.3,0,0.5-0.2,0.5-0.5V13.2   C98.9,12.9,98.7,12.7,98.4,12.7z M97.9,86.3H2.1V13.7h95.8V86.3z"/><path d="M6.2,82.7h87.6c0.3,0,0.5-0.2,0.5-0.5V55.5c0-0.3-0.2-0.5-0.5-0.5H6.2c-0.3,0-0.5,0.2-0.5,0.5v26.7   C5.7,82.5,5.9,82.7,6.2,82.7z M19.3,73.8c0.3,0,0.5-0.2,0.5-0.5V56H25v17.3c0,0.3,0.2,0.5,0.5,0.5h2.1v7.9h-10v-7.9H19.3z    M74.1,73.8c0.3,0,0.5-0.2,0.5-0.5V56h7.8v25.7h-10v-7.9H74.1z M69.7,73.8h1.7v7.9h-10v-7.9h1.4c0.3,0,0.5-0.2,0.5-0.5V56h5.8v17.3   C69.2,73.6,69.5,73.8,69.7,73.8z M58.6,73.8h1.9v7.9h-10v-7.9h1.9c0.3,0,0.5-0.2,0.5-0.5V56h5.2v17.3   C58.1,73.6,58.3,73.8,58.6,73.8z M48.1,73.8h1.4v7.9h-10V56h8v17.3C47.6,73.6,47.8,73.8,48.1,73.8z M38.5,81.7h-10v-7.9h1.2   c0.3,0,0.5-0.2,0.5-0.5V56h8.2V81.7z M93.3,81.7h-10V56h10V81.7z M6.7,56h7.8v17.3c0,0.3,0.2,0.5,0.5,0.5h1.7v7.9h-10V56z"/><path d="M20.5,30h2.7c0.3,0,0.5-0.2,0.5-0.5S23.4,29,23.1,29h-2.7c-0.3,0-0.5,0.2-0.5,0.5S20.2,30,20.5,30z"/><path d="M23.1,31.9h-2.7c-0.3,0-0.5,0.2-0.5,0.5s0.2,0.5,0.5,0.5h2.7c0.3,0,0.5-0.2,0.5-0.5S23.4,31.9,23.1,31.9z"/><path d="M23.1,34.8h-2.7c-0.3,0-0.5,0.2-0.5,0.5s0.2,0.5,0.5,0.5h2.7c0.3,0,0.5-0.2,0.5-0.5S23.4,34.8,23.1,34.8z"/><path d="M23.1,37.7h-2.7c-0.3,0-0.5,0.2-0.5,0.5s0.2,0.5,0.5,0.5h2.7c0.3,0,0.5-0.2,0.5-0.5S23.4,37.7,23.1,37.7z"/><path d="M23.1,40.6h-2.7c-0.3,0-0.5,0.2-0.5,0.5s0.2,0.5,0.5,0.5h2.7c0.3,0,0.5-0.2,0.5-0.5S23.4,40.6,23.1,40.6z"/><path d="M17.6,23.3h-2.7c-0.3,0-0.5,0.2-0.5,0.5s0.2,0.5,0.5,0.5h2.7c0.3,0,0.5-0.2,0.5-0.5S17.8,23.3,17.6,23.3z"/><path d="M17.6,26.2h-2.7c-0.3,0-0.5,0.2-0.5,0.5s0.2,0.5,0.5,0.5h2.7c0.3,0,0.5-0.2,0.5-0.5S17.8,26.2,17.6,26.2z"/><path d="M17.6,29.1h-2.7c-0.3,0-0.5,0.2-0.5,0.5s0.2,0.5,0.5,0.5h2.7c0.3,0,0.5-0.2,0.5-0.5S17.8,29.1,17.6,29.1z"/><path d="M17.6,32h-2.7c-0.3,0-0.5,0.2-0.5,0.5s0.2,0.5,0.5,0.5h2.7c0.3,0,0.5-0.2,0.5-0.5S17.8,32,17.6,32z"/><path d="M17.6,34.9h-2.7c-0.3,0-0.5,0.2-0.5,0.5s0.2,0.5,0.5,0.5h2.7c0.3,0,0.5-0.2,0.5-0.5S17.8,34.9,17.6,34.9z"/><path d="M12,31.9H9.4c-0.3,0-0.5,0.2-0.5,0.5s0.2,0.5,0.5,0.5H12c0.3,0,0.5-0.2,0.5-0.5S12.3,31.9,12,31.9z"/><path d="M12,34.8H9.4c-0.3,0-0.5,0.2-0.5,0.5s0.2,0.5,0.5,0.5H12c0.3,0,0.5-0.2,0.5-0.5S12.3,34.8,12,34.8z"/><path d="M12,37.7H9.4c-0.3,0-0.5,0.2-0.5,0.5s0.2,0.5,0.5,0.5H12c0.3,0,0.5-0.2,0.5-0.5S12.3,37.7,12,37.7z"/><path d="M12,40.6H9.4c-0.3,0-0.5,0.2-0.5,0.5s0.2,0.5,0.5,0.5H12c0.3,0,0.5-0.2,0.5-0.5S12.3,40.6,12,40.6z"/><path d="M12,43.5H9.4c-0.3,0-0.5,0.2-0.5,0.5s0.2,0.5,0.5,0.5H12c0.3,0,0.5-0.2,0.5-0.5S12.3,43.5,12,43.5z"/><path d="M84.1,41.2c-0.9,0-1.6,0.7-1.6,1.6c0,0.9,0.7,1.6,1.6,1.6s1.6-0.7,1.6-1.6C85.7,41.9,85,41.2,84.1,41.2z"/><path d="M6.2,50.5h68.2h19.4h0c0.3,0,0.5-0.2,0.5-0.5V17.8c0-0.3-0.2-0.5-0.5-0.5h0H74.4H6.2c-0.3,0-0.5,0.2-0.5,0.5V50   C5.7,50.3,5.9,50.5,6.2,50.5z M26.8,49.5V18.3h47.1v31.2H26.8z M93.3,18.3v31.2H74.9V18.3H93.3z M6.7,18.3h19.1v31.2H6.7V18.3z"/><path d="M3.8,85.3c0.4,0,0.7-0.3,0.7-0.7c0-0.4-0.3-0.7-0.7-0.7c-0.4,0-0.7,0.3-0.7,0.7C3.1,85,3.4,85.3,3.8,85.3z"/><path d="M3.8,16c0.4,0,0.7-0.3,0.7-0.7c0-0.4-0.3-0.7-0.7-0.7c-0.4,0-0.7,0.3-0.7,0.7C3.1,15.7,3.4,16,3.8,16z"/><path d="M96.2,85.3c0.4,0,0.7-0.3,0.7-0.7c0-0.4-0.3-0.7-0.7-0.7s-0.7,0.3-0.7,0.7C95.6,85,95.9,85.3,96.2,85.3z"/><path d="M96.2,16c0.4,0,0.7-0.3,0.7-0.7c0-0.4-0.3-0.7-0.7-0.7s-0.7,0.3-0.7,0.7C95.6,15.7,95.9,16,96.2,16z"/><path d="M60.4,41.2c-0.9,0-1.6,0.7-1.6,1.6c0,0.9,0.7,1.6,1.6,1.6c0.9,0,1.6-0.7,1.6-1.6C62.1,41.9,61.3,41.2,60.4,41.2z"/><path d="M39.9,41.2c-0.9,0-1.6,0.7-1.6,1.6c0,0.9,0.7,1.6,1.6,1.6c0.9,0,1.6-0.7,1.6-1.6C41.5,41.9,40.8,41.2,39.9,41.2z"/><path d="M39.9,25.7c-2.4,0-4.4,2-4.4,4.5c0,2.5,2,4.5,4.4,4.5s4.4-2,4.4-4.5C44.3,27.7,42.3,25.7,39.9,25.7z M39.9,33.6   c-1.9,0-3.4-1.6-3.4-3.5c0-1.9,1.5-3.5,3.4-3.5s3.4,1.6,3.4,3.5C43.3,32.1,41.8,33.6,39.9,33.6z"/><path d="M39.9,24.5c0.3,0,0.6-0.3,0.6-0.6c0-0.3-0.3-0.6-0.6-0.6s-0.6,0.3-0.6,0.6S39.6,24.5,39.9,24.5z"/><path d="M45.6,32.7c-0.3-0.2-0.6-0.1-0.8,0.2c-0.2,0.3-0.1,0.6,0.2,0.8c0.3,0.2,0.6,0.1,0.8-0.2C45.9,33.3,45.9,32.9,45.6,32.7z"/><path d="M42.7,25.3c0.3,0.2,0.6,0.1,0.8-0.2c0.2-0.3,0.1-0.6-0.2-0.8c-0.3-0.2-0.6-0.1-0.8,0.2S42.4,25.1,42.7,25.3z"/><path d="M45.6,27.6c0.3-0.2,0.4-0.5,0.2-0.8c-0.2-0.3-0.5-0.4-0.8-0.2s-0.4,0.5-0.2,0.8C44.9,27.6,45.3,27.7,45.6,27.6z"/><path d="M37.1,25.3c0.3-0.2,0.4-0.5,0.2-0.8c-0.2-0.3-0.5-0.4-0.8-0.2c-0.3,0.2-0.4,0.5-0.2,0.8C36.5,25.4,36.8,25.5,37.1,25.3z"/><path d="M40.5,36.3c0-0.3-0.3-0.6-0.6-0.6s-0.6,0.3-0.6,0.6c0,0.3,0.3,0.6,0.6,0.6S40.5,36.7,40.5,36.3z"/><path d="M34.8,26.5c-0.3-0.2-0.6-0.1-0.8,0.2c-0.2,0.3-0.1,0.6,0.2,0.8c0.3,0.2,0.6,0.1,0.8-0.2C35.2,27.1,35.1,26.7,34.8,26.5z"/><path d="M37.1,35c-0.3-0.2-0.6-0.1-0.8,0.2c-0.2,0.3-0.1,0.6,0.2,0.8s0.6,0.1,0.8-0.2C37.5,35.5,37.4,35.2,37.1,35z"/><path d="M34.3,30.1c0-0.3-0.3-0.6-0.6-0.6c-0.3,0-0.6,0.3-0.6,0.6c0,0.3,0.3,0.6,0.6,0.6C34,30.7,34.3,30.5,34.3,30.1z"/><path d="M34.2,32.7c-0.3,0.2-0.4,0.5-0.2,0.8s0.5,0.4,0.8,0.2c0.3-0.2,0.4-0.5,0.2-0.8C34.9,32.7,34.5,32.6,34.2,32.7z"/><path d="M42.7,35c-0.3,0.2-0.4,0.5-0.2,0.8c0.2,0.3,0.5,0.4,0.8,0.2s0.4-0.5,0.2-0.8S43,34.8,42.7,35z"/><path d="M46.1,29.5c-0.3,0-0.6,0.3-0.6,0.6c0,0.3,0.3,0.6,0.6,0.6s0.6-0.3,0.6-0.6C46.7,29.8,46.4,29.5,46.1,29.5z"/><path d="M60.4,25.7c-2.4,0-4.4,2-4.4,4.5c0,2.5,2,4.5,4.4,4.5s4.4-2,4.4-4.5C64.8,27.7,62.9,25.7,60.4,25.7z M60.4,33.6   c-1.9,0-3.4-1.6-3.4-3.5c0-1.9,1.5-3.5,3.4-3.5c1.9,0,3.4,1.6,3.4,3.5C63.8,32.1,62.3,33.6,60.4,33.6z"/><path d="M54.8,27.6c0.3,0.2,0.6,0.1,0.8-0.2c0.2-0.3,0.1-0.6-0.2-0.8c-0.3-0.2-0.6-0.1-0.8,0.2C54.4,27,54.5,27.4,54.8,27.6z"/><path d="M66.6,29.5c-0.3,0-0.6,0.3-0.6,0.6c0,0.3,0.3,0.6,0.6,0.6s0.6-0.3,0.6-0.6C67.2,29.8,67,29.5,66.6,29.5z"/><path d="M57.6,25.3c0.3-0.2,0.4-0.5,0.2-0.8s-0.5-0.4-0.8-0.2c-0.3,0.2-0.4,0.5-0.2,0.8C57,25.4,57.3,25.5,57.6,25.3z"/><path d="M63.2,25.3c0.3,0.2,0.6,0.1,0.8-0.2c0.2-0.3,0.1-0.6-0.2-0.8c-0.3-0.2-0.6-0.1-0.8,0.2S62.9,25.1,63.2,25.3z"/><path d="M66.1,32.7c-0.3-0.2-0.6-0.1-0.8,0.2c-0.2,0.3-0.1,0.6,0.2,0.8c0.3,0.2,0.6,0.1,0.8-0.2C66.5,33.3,66.4,32.9,66.1,32.7z"/><path d="M60.4,24.5c0.3,0,0.6-0.3,0.6-0.6c0-0.3-0.3-0.6-0.6-0.6s-0.6,0.3-0.6,0.6S60.1,24.5,60.4,24.5z"/><path d="M54.8,32.7c-0.3,0.2-0.4,0.5-0.2,0.8s0.5,0.4,0.8,0.2c0.3-0.2,0.4-0.5,0.2-0.8C55.4,32.7,55,32.6,54.8,32.7z"/><path d="M66.1,27.6c0.3-0.2,0.4-0.5,0.2-0.8c-0.2-0.3-0.5-0.4-0.8-0.2s-0.4,0.5-0.2,0.8C65.4,27.6,65.8,27.7,66.1,27.6z"/><path d="M63.2,35c-0.3,0.2-0.4,0.5-0.2,0.8c0.2,0.3,0.5,0.4,0.8,0.2c0.3-0.2,0.4-0.5,0.2-0.8S63.5,34.8,63.2,35z"/><path d="M57.6,35c-0.3-0.2-0.6-0.1-0.8,0.2c-0.2,0.3-0.1,0.6,0.2,0.8s0.6,0.1,0.8-0.2C58,35.5,57.9,35.2,57.6,35z"/><path d="M61,36.3c0-0.3-0.3-0.6-0.6-0.6s-0.6,0.3-0.6,0.6c0,0.3,0.3,0.6,0.6,0.6S61,36.7,61,36.3z"/><path d="M54.8,30.1c0-0.3-0.3-0.6-0.6-0.6c-0.3,0-0.6,0.3-0.6,0.6c0,0.3,0.3,0.6,0.6,0.6C54.6,30.7,54.8,30.5,54.8,30.1z"/><path d="M84.1,34.6c2.4,0,4.4-2,4.4-4.5c0-2.5-2-4.5-4.4-4.5s-4.4,2-4.4,4.5C79.7,32.6,81.7,34.6,84.1,34.6z M84.1,26.7   c1.9,0,3.4,1.6,3.4,3.5c0,1.9-1.5,3.5-3.4,3.5s-3.4-1.6-3.4-3.5C80.7,28.2,82.2,26.7,84.1,26.7z"/><path d="M77.9,30.7c0.3,0,0.6-0.3,0.6-0.6c0-0.3-0.3-0.6-0.6-0.6c-0.3,0-0.6,0.3-0.6,0.6C77.3,30.5,77.6,30.7,77.9,30.7z"/><path d="M81.3,25.3c0.3-0.2,0.4-0.5,0.2-0.8s-0.5-0.4-0.8-0.2c-0.3,0.2-0.4,0.5-0.2,0.8C80.7,25.4,81,25.5,81.3,25.3z"/><path d="M78.4,27.6c0.3,0.2,0.6,0.1,0.8-0.2c0.2-0.3,0.1-0.6-0.2-0.8s-0.6-0.1-0.8,0.2C78.1,27,78.2,27.4,78.4,27.6z"/><path d="M84.7,36.3c0-0.3-0.3-0.6-0.6-0.6s-0.6,0.3-0.6,0.6c0,0.3,0.3,0.6,0.6,0.6S84.7,36.7,84.7,36.3z"/><path d="M81.3,35c-0.3-0.2-0.6-0.1-0.8,0.2c-0.2,0.3-0.1,0.6,0.2,0.8s0.6,0.1,0.8-0.2C81.7,35.5,81.6,35.2,81.3,35z"/><path d="M84.1,24.5c0.3,0,0.6-0.3,0.6-0.6s-0.3-0.6-0.6-0.6s-0.6,0.3-0.6,0.6S83.8,24.5,84.1,24.5z"/><path d="M89.8,32.7c-0.3-0.2-0.6-0.1-0.8,0.2c-0.2,0.3-0.1,0.6,0.2,0.8c0.3,0.2,0.6,0.1,0.8-0.2C90.1,33.3,90.1,32.9,89.8,32.7z"/><path d="M78.4,32.7c-0.3,0.2-0.4,0.5-0.2,0.8s0.5,0.4,0.8,0.2c0.3-0.2,0.4-0.5,0.2-0.8C79.1,32.7,78.7,32.6,78.4,32.7z"/><path d="M86.9,35c-0.3,0.2-0.4,0.5-0.2,0.8c0.2,0.3,0.5,0.4,0.8,0.2c0.3-0.2,0.4-0.5,0.2-0.8S87.2,34.8,86.9,35z"/><path d="M86.9,25.3c0.3,0.2,0.6,0.1,0.8-0.2c0.2-0.3,0.1-0.6-0.2-0.8c-0.3-0.2-0.6-0.1-0.8,0.2S86.6,25.1,86.9,25.3z"/><path d="M89.7,30.1c0,0.3,0.3,0.6,0.6,0.6c0.3,0,0.6-0.3,0.6-0.6c0-0.3-0.3-0.6-0.6-0.6C90,29.5,89.7,29.8,89.7,30.1z"/><path d="M89.8,27.6c0.3-0.2,0.4-0.5,0.2-0.8c-0.2-0.3-0.5-0.4-0.8-0.2s-0.4,0.5-0.2,0.8C89.1,27.6,89.5,27.7,89.8,27.6z"/></g></svg>
