<svg xmlns="http://www.w3.org/2000/svg" version="1.1" viewBox="-5.0 -10.0 110.0 135.0">
 <g>
  <path d="m50 68.75c-1.7188 0-3.125-1.4062-3.125-3.125v-40.625c0-1.7188 1.4062-3.125 3.125-3.125s3.125 1.4062 3.125 3.125v40.625c0 1.7188-1.4062 3.125-3.125 3.125z"/>
  <path d="m87.5 100h-75c-1.7188 0-3.125-1.4062-3.125-3.125 0-20.531-0.0625-19 0.125-19.625l20.562-70.5c1.1562-3.9688 4.875-6.75 9-6.75h21.875c4.125 0 7.8438 2.7812 9 6.75l7.2812 25c0.46875 1.6562-0.46875 3.375-2.125 3.875s-3.4062-0.46875-3.875-2.125l-7.2812-25c-0.375-1.3125-1.625-2.25-3-2.25h-21.875c-1.375 0-2.625 0.9375-3 2.25l-20.438 70.062v15.188h68.75v-15.188l-6.125-21c-0.46875-1.6562 0.46875-3.4062 2.125-3.875s3.4062 0.46875 3.875 2.125c6.6562 22.812 6.375 21.656 6.375 22.312v18.75c0 1.7188-1.4062 3.125-3.125 3.125z"/>
  <path d="m82.531 36.219c-2.75 0-4.1875-3.3438-2.2188-5.3438l8.0938-8.0938c1.2188-1.2188 3.1875-1.2188 4.4062 0s1.2188 3.1875 0 4.4062c-8.7812 8.7812-8.5938 9-10.312 9z"/>
  <path d="m50 68.75c-2.75 0-4.1875-3.3438-2.2188-5.3438l23.719-23.719c1.2188-1.2188 3.1875-1.2188 4.4062 0s1.2188 3.1875 0 4.4062l-23.719 23.719c-0.625 0.625-1.4062 0.90625-2.2188 0.90625z"/>
  <path d="m87.5 81.25c-0.53125 0-1.0625-0.125-1.5625-0.4375-22.156-12.938-49.688-12.938-71.844 0-1.5 0.875-3.4062 0.375-4.2812-1.125s-0.375-3.4062 1.125-4.2812c24.094-14.062 54.031-14.062 78.156 0 2.75 1.5938 1.625 5.8125-1.5625 5.8125z"/>
  <path d="m59.375 87.5h-18.75c-1.7188 0-3.125-1.4062-3.125-3.125s1.4062-3.125 3.125-3.125h18.75c1.7188 0 3.125 1.4062 3.125 3.125s-1.4062 3.125-3.125 3.125z"/>
  <path d="m78.125 46.875c-5.1562 0-9.375-4.2188-9.375-9.375s4.2188-9.375 9.375-9.375 9.375 4.2188 9.375 9.375-4.2188 9.375-9.375 9.375zm0-12.5c-1.7188 0-3.125 1.4062-3.125 3.125s1.4062 3.125 3.125 3.125 3.125-1.4062 3.125-3.125-1.4062-3.125-3.125-3.125z"/>
 </g>
</svg>
