<svg xmlns="http://www.w3.org/2000/svg" xmlns:xlink="http://www.w3.org/1999/xlink" xmlns:serif="http://www.serif.com/" viewBox="0 0 417 521.25" version="1.1" xml:space="preserve" style="" x="0px" y="0px" fill-rule="evenodd" clip-rule="evenodd" stroke-linejoin="round" stroke-miterlimit="2"><path d="M395.833,55.421c0,-9.115 -7.181,-16.384 -15.858,-16.384c0,0 -343.284,0 -343.284,0c-8.676,0 -15.858,7.269 -15.858,16.384l0,305.825c0,9.115 7.182,16.383 15.858,16.383l343.284,0c8.677,0 15.858,-7.268 15.858,-16.383l0,-305.825Zm-10.922,-0l0,305.825c0,2.943 -2.135,5.461 -4.936,5.461c0,0 -343.284,0 -343.284,0c-2.801,0 -4.935,-2.518 -4.935,-5.461l-0,-305.825c-0,-2.943 2.134,-5.461 4.935,-5.461l343.284,-0c2.801,-0 4.936,2.518 4.936,5.461Zm-10.922,294.903l-0,-211.165c-0,-3.017 -2.445,-5.462 -5.461,-5.462l-211.166,0c-3.016,0 -5.461,2.445 -5.461,5.462l0,211.165c0,3.016 2.445,5.461 5.461,5.461l211.166,-0c3.016,-0 5.461,-2.445 5.461,-5.461Zm-282.161,-23.665c-8.037,-0 -14.563,6.525 -14.563,14.563c0,8.037 6.526,14.563 14.563,14.563c8.038,-0 14.564,-6.526 14.564,-14.563c-0,-8.038 -6.526,-14.563 -14.564,-14.563Zm34.588,-0c-8.038,-0 -14.563,6.525 -14.563,14.563c-0,8.037 6.525,14.563 14.563,14.563c8.037,-0 14.563,-6.526 14.563,-14.563c-0,-8.038 -6.526,-14.563 -14.563,-14.563Zm-69.175,-0c-8.037,-0 -14.563,6.525 -14.563,14.563c-0,8.037 6.526,14.563 14.563,14.563c8.038,-0 14.563,-6.526 14.563,-14.563c0,-8.038 -6.525,-14.563 -14.563,-14.563Zm147.452,18.203l-0,-41.868l-41.869,-0l-0,41.868l41.869,0Zm-112.865,-7.281c2.01,-0 3.641,1.631 3.641,3.641c0,2.009 -1.631,3.64 -3.641,3.64c-2.009,0 -3.64,-1.631 -3.64,-3.64c-0,-2.01 1.631,-3.641 3.64,-3.641Zm34.588,-0c2.009,-0 3.641,1.631 3.641,3.641c-0,2.009 -1.632,3.64 -3.641,3.64c-2.01,0 -3.641,-1.631 -3.641,-3.64c0,-2.01 1.631,-3.641 3.641,-3.641Zm-69.175,-0c2.009,-0 3.641,1.631 3.641,3.641c-0,2.009 -1.632,3.64 -3.641,3.64c-2.009,0 -3.641,-1.631 -3.641,-3.64c0,-2.01 1.632,-3.641 3.641,-3.641Zm158.374,-34.587l-0,41.868l41.869,0l-0,-41.868l-41.869,-0Zm52.791,-0l0,41.868l41.869,0l0,-41.868l-41.869,-0Zm94.66,-0l-41.869,-0l0,41.868l41.869,0l0,-41.868Zm-271.238,-16.384c-8.037,0 -14.563,6.526 -14.563,14.563c0,8.038 6.526,14.563 14.563,14.563c8.038,0 14.564,-6.525 14.564,-14.563c-0,-8.037 -6.526,-14.563 -14.564,-14.563Zm34.588,0c-8.038,0 -14.563,6.526 -14.563,14.563c-0,8.038 6.525,14.563 14.563,14.563c8.037,0 14.563,-6.525 14.563,-14.563c-0,-8.037 -6.526,-14.563 -14.563,-14.563Zm-69.175,0c-8.037,0 -14.563,6.526 -14.563,14.563c-0,8.038 6.526,14.563 14.563,14.563c8.038,0 14.563,-6.525 14.563,-14.563c0,-8.037 -6.525,-14.563 -14.563,-14.563Zm0,10.922c2.009,0 3.641,1.632 3.641,3.641c-0,2.01 -1.632,3.641 -3.641,3.641c-2.009,-0 -3.641,-1.631 -3.641,-3.641c0,-2.009 1.632,-3.641 3.641,-3.641Zm69.175,0c2.009,0 3.641,1.632 3.641,3.641c-0,2.01 -1.632,3.641 -3.641,3.641c-2.01,-0 -3.641,-1.631 -3.641,-3.641c0,-2.009 1.631,-3.641 3.641,-3.641Zm-34.588,0c2.01,0 3.641,1.632 3.641,3.641c0,2.01 -1.631,3.641 -3.641,3.641c-2.009,-0 -3.64,-1.631 -3.64,-3.641c-0,-2.009 1.631,-3.641 3.64,-3.641Zm70.996,-47.33l-0,41.869l41.869,0l-0,-41.869l-41.869,0Zm52.791,0l-0,41.869l41.869,0l-0,-41.869l-41.869,0Zm52.791,0l0,41.869l41.869,0l0,-41.869l-41.869,0Zm52.791,0l0,41.869l41.869,0l0,-41.869l-41.869,0Zm-194.781,-3.641c-8.038,0 -14.563,6.526 -14.563,14.564c-0,8.037 6.525,14.563 14.563,14.563c8.037,-0 14.563,-6.526 14.563,-14.563c-0,-8.038 -6.526,-14.564 -14.563,-14.564Zm-34.588,0c-8.037,0 -14.563,6.526 -14.563,14.564c0,8.037 6.526,14.563 14.563,14.563c8.038,-0 14.564,-6.526 14.564,-14.563c-0,-8.038 -6.526,-14.564 -14.564,-14.564Zm-34.587,0c-8.037,0 -14.563,6.526 -14.563,14.564c-0,8.037 6.526,14.563 14.563,14.563c8.038,-0 14.563,-6.526 14.563,-14.563c0,-8.038 -6.525,-14.564 -14.563,-14.564Zm34.587,10.923c2.01,-0 3.641,1.631 3.641,3.641c0,2.009 -1.631,3.64 -3.641,3.64c-2.009,0 -3.64,-1.631 -3.64,-3.64c-0,-2.01 1.631,-3.641 3.64,-3.641Zm34.588,-0c2.009,-0 3.641,1.631 3.641,3.641c-0,2.009 -1.632,3.64 -3.641,3.64c-2.01,0 -3.641,-1.631 -3.641,-3.64c0,-2.01 1.631,-3.641 3.641,-3.641Zm-69.175,-0c2.009,-0 3.641,1.631 3.641,3.641c-0,2.009 -1.632,3.64 -3.641,3.64c-2.009,0 -3.641,-1.631 -3.641,-3.64c0,-2.01 1.632,-3.641 3.641,-3.641Zm105.583,-60.073l-0,41.869l41.869,-0l-0,-41.869l-41.869,0Zm52.791,0l-0,41.869l41.869,-0l-0,-41.869l-41.869,0Zm52.791,0l0,41.869l41.869,-0l0,-41.869l-41.869,0Zm52.791,0l0,41.869l41.869,-0l0,-41.869l-41.869,0Zm-180.218,0c-0,-3.016 -2.445,-5.461 -5.461,-5.461l-87.379,-0c-3.016,-0 -5.461,2.445 -5.461,5.461l-0,32.767c-0,3.016 2.445,5.461 5.461,5.461l87.379,0c3.016,0 5.461,-2.445 5.461,-5.461l-0,-32.767Zm-10.922,5.461l-0,21.845c-0,-0 -76.457,-0 -76.457,-0c0,-0 0,-21.845 0,-21.845l76.457,0Zm32.767,-58.252l-0,41.869l41.869,-0l-0,-41.869l-41.869,-0Zm52.791,-0l-0,41.869l41.869,-0l-0,-41.869l-41.869,-0Zm52.791,-0l0,41.869l41.869,-0l0,-41.869l-41.869,-0Zm52.791,-0l0,41.869l41.869,-0l0,-41.869l-41.869,-0Zm-203.883,-10.923c-13.061,0 -23.665,10.604 -23.665,23.665c-0,13.062 10.604,23.666 23.665,23.666c13.061,-0 23.665,-10.604 23.665,-23.666c-0,-13.061 -10.604,-23.665 -23.665,-23.665Zm-50.971,0c-13.061,0 -23.665,10.604 -23.665,23.665c-0,13.062 10.604,23.666 23.665,23.666c13.061,-0 23.665,-10.604 23.665,-23.666c0,-13.061 -10.604,-23.665 -23.665,-23.665Zm50.971,10.923c7.033,-0 12.743,5.71 12.743,12.742c-0,7.033 -5.71,12.743 -12.743,12.743c-7.033,0 -12.743,-5.71 -12.743,-12.743c0,-7.032 5.71,-12.742 12.743,-12.742Zm-50.971,-0c7.033,-0 12.743,5.71 12.743,12.742c-0,7.033 -5.71,12.743 -12.743,12.743c-7.033,0 -12.743,-5.71 -12.743,-12.743c0,-7.032 5.71,-12.742 12.743,-12.742Zm-23.665,-78.277l-0,50.971c-0,3.016 2.445,5.461 5.461,5.461l87.379,0c3.016,0 5.461,-2.445 5.461,-5.461l-0,-50.971c-0,-3.016 -2.445,-5.461 -5.461,-5.461l-87.379,-0c-3.016,-0 -5.461,2.445 -5.461,5.461Zm331.311,0c-0,-3.016 -2.445,-5.461 -5.461,-5.461l-211.166,-0c-3.016,-0 -5.461,2.445 -5.461,5.461l0,50.971c0,3.016 2.445,5.461 5.461,5.461l211.166,0c3.016,0 5.461,-2.445 5.461,-5.461l-0,-50.971Zm-10.923,5.461l0,40.049c0,-0 -200.242,-0 -200.242,-0c-0,-0 -0,-40.049 -0,-40.049l200.242,0Zm-233.009,25.486l-32.767,-0l-0,14.563l32.767,-0l-0,-14.563Zm-43.69,14.563l0,-14.563l-32.767,-0l0,14.563l32.767,-0Zm-32.767,-40.049l0,14.563l32.767,0l0,-14.563l-32.767,0Zm43.69,0l-0,14.563l32.767,0l-0,-14.563l-32.767,0Z"/></svg>
