<svg xmlns="http://www.w3.org/2000/svg" xmlns:xlink="http://www.w3.org/1999/xlink" version="1.1" x="0px" y="0px" viewBox="0 0 300 375" style="enable-background:new 0 0 300 300;" xml:space="preserve"><path d="M189.7,19h-8h-62.4h-8H40.8v63.5v8v9.2c-8.6,1.8-15,9.4-15,18.5s6.4,16.7,15,18.5v9.2v8v55.5v8V281h70.4h8h62.4h8h70.4  v-63.5v-8V154v-8V90.5v-8V19H189.7z M119.3,27h62.4v9.2c-8.6,1.8-15,9.4-15,18.5s6.4,16.7,15,18.5v9.2h-62.4V27z M181.7,146h-62.4  V90.5h62.4V146z M181.7,209.5h-62.4v-9.2c8.6-1.8,15-9.4,15-18.5s-6.4-16.7-15-18.5V154h62.4V209.5z M48.8,27h62.4v55.5H48.8V27z   M48.8,136.8c8.6-1.8,15-9.4,15-18.5s-6.4-16.7-15-18.5v-9.2h62.4V146H48.8V136.8z M48.8,154h62.4v9.2c-8.6,1.8-15,9.4-15,18.5  s6.4,16.7,15,18.5v9.2H48.8V154z M111.3,273H48.8v-55.5h62.4V273z M181.7,273h-62.4v-55.5h62.4V273z M252.1,273h-62.4v-55.5h62.4  V273z M252.1,209.5h-62.4V154h62.4V209.5z M252.1,146h-62.4V90.5h62.4V146z M189.7,82.5v-9.2c8.6-1.8,15-9.4,15-18.5  s-6.4-16.7-15-18.5V27h62.4v55.5H189.7z"/></svg>
