<svg xmlns="http://www.w3.org/2000/svg" xmlns:xlink="http://www.w3.org/1999/xlink" version="1.1" x="0px" y="0px" viewBox="0 0 100 125" style="enable-background:new 0 0 100 100;" xml:space="preserve"><g><path d="M75.4,76.5l-1.9-1.9c-0.2-0.2-0.2-0.5,0-0.7s0.5-0.2,0.7,0l1.9,1.9c0.4-0.5,0.5-1.1,0.5-1.7c0-0.8-0.3-1.5-0.9-2.1   c-1.1-1.1-3.1-1.1-4.2,0c-1.2,1.2-1.2,3,0,4.2C72.6,77.2,74.2,77.3,75.4,76.5z"/><path d="M58.1,73.6h2.7c-0.2-1.4-1.4-2.5-2.9-2.5c-1.6,0-3,1.3-3,3c0,1.6,1.3,3,3,3c1.5,0,2.7-1.1,2.9-2.5h-2.7   c-0.3,0-0.5-0.2-0.5-0.5S57.8,73.6,58.1,73.6z"/><path d="M18.4,81.6h31.1V66.6H18.4V81.6z M46.4,77.7l0.2,0.2c0.2,0.2,0.2,0.5,0,0.7c-0.1,0.1-0.2,0.1-0.4,0.1s-0.3,0-0.4-0.1   l-0.2-0.2c-0.2-0.2-0.2-0.5,0-0.7S46.2,77.5,46.4,77.7z M42.1,70.2C42.1,70.2,42.1,70.2,42.1,70.2C42.1,70.2,42.1,70.2,42.1,70.2   c2.2,0,4,1.8,4,4c0,2.2-1.8,4-4,4s-4-1.8-4-4C38.2,71.9,39.9,70.2,42.1,70.2z M37.6,77.9l0.2-0.2c0.2-0.2,0.5-0.2,0.7,0   c0.2,0.2,0.2,0.5,0,0.7l-0.2,0.2c-0.1,0.1-0.2,0.1-0.4,0.1s-0.3,0-0.4-0.1C37.4,78.4,37.4,78.1,37.6,77.9z M30.6,77.7l0.2,0.2   c0.2,0.2,0.2,0.5,0,0.7c-0.1,0.1-0.2,0.1-0.4,0.1s-0.3,0-0.4-0.1l-0.2-0.2c-0.2-0.2-0.2-0.5,0-0.7S30.4,77.5,30.6,77.7z M23.5,71.3   c1.5-1.5,4.1-1.5,5.6,0c0.7,0.7,1.2,1.7,1.2,2.8c0,1.1-0.4,2-1.2,2.8s-1.7,1.2-2.8,1.2c-1.1,0-2-0.4-2.8-1.2   c-0.7-0.7-1.2-1.7-1.2-2.8C22.4,73,22.8,72.1,23.5,71.3z M21.8,77.9l0.2-0.2c0.2-0.2,0.5-0.2,0.7,0s0.2,0.5,0,0.7l-0.2,0.2   c-0.1,0.1-0.2,0.1-0.4,0.1s-0.3,0-0.4-0.1C21.6,78.4,21.6,78.1,21.8,77.9z"/><path d="M42.1,77.1c1.6,0,3-1.3,3-3c0-1.5-1.1-2.7-2.5-2.9v2.7c0,0.3-0.2,0.5-0.5,0.5s-0.5-0.2-0.5-0.5v-2.7   c-1.4,0.2-2.5,1.4-2.5,2.9C39.2,75.7,40.5,77.1,42.1,77.1z"/><path d="M28.4,76.2c0.6-0.6,0.9-1.3,0.9-2.1c0-0.6-0.2-1.2-0.5-1.7l-1.9,1.9c-0.1,0.1-0.2,0.1-0.4,0.1s-0.3,0-0.4-0.1   c-0.2-0.2-0.2-0.5,0-0.7l1.9-1.9c-0.5-0.4-1.1-0.5-1.7-0.5c-0.8,0-1.5,0.3-2.1,0.9s-0.9,1.3-0.9,2.1c0,0.8,0.3,1.5,0.9,2.1   C25.3,77.3,27.3,77.3,28.4,76.2z"/><path d="M42.1,46.9c1.4,0,2.6-1.2,2.6-2.6s-1.2-2.6-2.6-2.6c-1.4,0-2.6,1.2-2.6,2.6S40.7,46.9,42.1,46.9z"/><circle cx="73.7" cy="58.7" r="1"/><circle cx="26.3" cy="58.7" r="1"/><ellipse cx="26.3" cy="44.3" rx="2.6" ry="2.6"/><path d="M65.8,66.6C65.8,66.6,65.8,66.6,65.8,66.6l-15.3,0v15.1h31.1V66.6L65.8,66.6C65.8,66.6,65.8,66.6,65.8,66.6z M54.3,78.4   l-0.2,0.2c-0.1,0.1-0.2,0.1-0.4,0.1s-0.3,0-0.4-0.1c-0.2-0.2-0.2-0.5,0-0.7l0.2-0.2c0.2-0.2,0.5-0.2,0.7,0   C54.5,77.9,54.5,78.2,54.3,78.4z M57.9,78.1c-2.2,0-4-1.8-4-4s1.8-4,4-4s4,1.8,4,4c0,0,0,0,0,0c0,0,0,0,0,0c0,0,0,0,0,0   C61.8,76.3,60.1,78.1,57.9,78.1z M62.4,78.6c-0.1,0.1-0.2,0.1-0.4,0.1s-0.3,0-0.4-0.1l-0.2-0.2c-0.2-0.2-0.2-0.5,0-0.7   c0.2-0.2,0.5-0.2,0.7,0l0.2,0.2C62.6,78.1,62.6,78.4,62.4,78.6z M78,77.7l0.2,0.2c0.2,0.2,0.2,0.5,0,0.7c-0.1,0.1-0.2,0.1-0.4,0.1   s-0.3,0-0.4-0.1l-0.2-0.2c-0.2-0.2-0.2-0.5,0-0.7S77.8,77.5,78,77.7z M70.9,71.3c1.5-1.5,4.1-1.5,5.6,0c0.7,0.7,1.2,1.7,1.2,2.8   c0,1.1-0.4,2-1.2,2.8c-0.7,0.7-1.7,1.2-2.8,1.2c-1.1,0-2-0.4-2.8-1.2C69.3,75.4,69.3,72.9,70.9,71.3z M69.2,77.9l0.2-0.2   c0.2-0.2,0.5-0.2,0.7,0s0.2,0.5,0,0.7l-0.2,0.2c-0.1,0.1-0.2,0.1-0.4,0.1s-0.3,0-0.4-0.1C69,78.4,69,78.1,69.2,77.9z"/><ellipse cx="73.7" cy="25.9" rx="2.6" ry="2.6"/><ellipse cx="57.9" cy="25.9" rx="2.6" ry="2.6"/><path d="M66.3,65.6h15.4V18.4H66.3V65.6z M69.6,47.2c-0.2,0.1-0.5,0.1-0.7-0.2c-0.1-0.2-0.1-0.5,0.2-0.7c0.2-0.1,0.5-0.1,0.7,0.2   C69.9,46.8,69.8,47.1,69.6,47.2z M68.9,41.5c0.1-0.2,0.4-0.3,0.7-0.2c0.2,0.1,0.3,0.4,0.2,0.7c-0.1,0.2-0.4,0.3-0.7,0.2   C68.9,42,68.8,41.7,68.9,41.5z M69.1,28c0.2-0.1,0.5-0.1,0.7,0.2c0.1,0.2,0.1,0.5-0.2,0.7c-0.2,0.1-0.5,0.1-0.7-0.2   C68.8,28.4,68.9,28.1,69.1,28z M73.7,60.7c-1.1,0-2-0.9-2-2s0.9-2,2-2s2,0.9,2,2S74.8,60.7,73.7,60.7z M75.8,48.9   c-0.1-0.2-0.1-0.5,0.2-0.7s0.5-0.1,0.7,0.2c0.1,0.2,0.1,0.5-0.2,0.7C76.2,49.2,75.9,49.1,75.8,48.9z M78.4,47   c-0.1,0.2-0.4,0.3-0.7,0.2c-0.2-0.1-0.3-0.4-0.2-0.7c0.1-0.2,0.4-0.3,0.7-0.2C78.5,46.5,78.6,46.8,78.4,47z M78.7,44.7   c-0.3,0-0.5-0.2-0.5-0.5s0.2-0.5,0.5-0.5s0.5,0.2,0.5,0.5S79,44.7,78.7,44.7z M79.2,25.9c0,0.3-0.2,0.5-0.5,0.5s-0.5-0.2-0.5-0.5   s0.2-0.5,0.5-0.5S79.2,25.6,79.2,25.9z M78.4,28.6c-0.1,0.2-0.4,0.3-0.7,0.2c-0.2-0.1-0.3-0.4-0.2-0.7c0.1-0.2,0.4-0.3,0.7-0.2   C78.5,28.1,78.6,28.4,78.4,28.6z M77.8,23c0.2-0.1,0.5-0.1,0.7,0.2c0.1,0.2,0.1,0.5-0.2,0.7c-0.2,0.1-0.5,0.1-0.7-0.2   C77.5,23.4,77.6,23.1,77.8,23z M77.8,41.3c0.2-0.1,0.5-0.1,0.7,0.2c0.1,0.2,0.1,0.5-0.2,0.7c-0.2,0.1-0.5,0.1-0.7-0.2   C77.5,41.8,77.6,41.5,77.8,41.3z M77.6,52.3c0,0.3-0.2,0.5-0.5,0.5h-0.4c-0.3,0-0.5-0.2-0.5-0.5s0.2-0.5,0.5-0.5h0.4   C77.4,51.8,77.6,52,77.6,52.3z M75.8,21.3c0.1-0.2,0.4-0.3,0.7-0.2c0.2,0.1,0.3,0.4,0.2,0.7C76.5,22,76.2,22.1,76,22   S75.6,21.5,75.8,21.3z M73.7,20.4c0.3,0,0.5,0.2,0.5,0.5s-0.2,0.5-0.5,0.5s-0.5-0.2-0.5-0.5S73.4,20.4,73.7,20.4z M70.9,21.1   c0.2-0.1,0.5-0.1,0.7,0.2c0.1,0.2,0.1,0.5-0.2,0.7c-0.2,0.1-0.5,0.1-0.7-0.2C70.6,21.6,70.7,21.3,70.9,21.1z M73.7,22.3   c2,0,3.6,1.6,3.6,3.6s-1.6,3.6-3.6,3.6s-3.6-1.6-3.6-3.6S71.7,22.3,73.7,22.3z M71.3,34.4c-0.3,0-0.5-0.2-0.5-0.5s0.2-0.5,0.5-0.5   h1.6c0.3,0,0.5,0.2,0.5,0.5s-0.2,0.5-0.5,0.5H71.3z M71.4,40.3c-0.2,0.1-0.5,0.1-0.7-0.2c-0.1-0.2-0.1-0.5,0.2-0.7   c0.2-0.1,0.5-0.1,0.7,0.2C71.7,39.9,71.6,40.2,71.4,40.3z M70.8,30c0.1-0.2,0.4-0.3,0.7-0.2c0.2,0.1,0.3,0.4,0.2,0.7   c-0.1,0.2-0.4,0.3-0.7,0.2C70.7,30.5,70.6,30.2,70.8,30z M73.2,30.9c0-0.3,0.2-0.5,0.5-0.5s0.5,0.2,0.5,0.5s-0.2,0.5-0.5,0.5   S73.2,31.2,73.2,30.9z M73.7,38.8c0.3,0,0.5,0.2,0.5,0.5s-0.2,0.5-0.5,0.5s-0.5-0.2-0.5-0.5S73.4,38.8,73.7,38.8z M74,33.9   c0-0.3,0.2-0.5,0.5-0.5h1.6c0.3,0,0.5,0.2,0.5,0.5s-0.2,0.5-0.5,0.5h-1.6C74.2,34.4,74,34.2,74,33.9z M75.8,39.7   c0.1-0.2,0.4-0.3,0.7-0.2c0.2,0.1,0.3,0.4,0.2,0.7c-0.1,0.2-0.4,0.3-0.7,0.2S75.6,39.9,75.8,39.7z M76.4,30.7   c-0.2,0.1-0.5,0.1-0.7-0.2c-0.1-0.2-0.1-0.5,0.2-0.7s0.5-0.1,0.7,0.2C76.7,30.2,76.7,30.5,76.4,30.7z M73.7,40.6   c2,0,3.6,1.6,3.6,3.6s-1.6,3.6-3.6,3.6s-3.6-1.6-3.6-3.6S71.7,40.6,73.7,40.6z M74.2,49.3c0,0.3-0.2,0.5-0.5,0.5s-0.5-0.2-0.5-0.5   s0.2-0.5,0.5-0.5S74.2,49,74.2,49.3z M71.6,48.9c-0.1,0.2-0.4,0.3-0.7,0.2c-0.2-0.1-0.3-0.4-0.2-0.7c0.1-0.2,0.4-0.3,0.7-0.2   C71.6,48.3,71.7,48.6,71.6,48.9z M70.2,51.8h4.8c0.3,0,0.5,0.2,0.5,0.5s-0.2,0.5-0.5,0.5h-4.8c-0.3,0-0.5-0.2-0.5-0.5   S70,51.8,70.2,51.8z M68.9,23.1c0.1-0.2,0.4-0.3,0.7-0.2c0.2,0.1,0.3,0.4,0.2,0.7c-0.1,0.2-0.4,0.3-0.7,0.2   C68.9,23.7,68.8,23.4,68.9,23.1z M68.7,25.4c0.3,0,0.5,0.2,0.5,0.5s-0.2,0.5-0.5,0.5c-0.3,0-0.5-0.2-0.5-0.5S68.4,25.4,68.7,25.4z    M68.7,43.8c0.3,0,0.5,0.2,0.5,0.5s-0.2,0.5-0.5,0.5c-0.3,0-0.5-0.2-0.5-0.5S68.4,43.8,68.7,43.8z"/><path d="M88.4,11.1H11.6c-0.3,0-0.5,0.2-0.5,0.5v76.8c0,0.3,0.2,0.5,0.5,0.5h76.8c0.3,0,0.5-0.2,0.5-0.5V11.6   C88.9,11.3,88.7,11.1,88.4,11.1z M12.9,87.7c-0.4,0-0.7-0.3-0.7-0.7c0-0.4,0.3-0.7,0.7-0.7c0.4,0,0.7,0.3,0.7,0.7   C13.6,87.4,13.3,87.7,12.9,87.7z M12.9,13.6c-0.4,0-0.7-0.3-0.7-0.7c0-0.4,0.3-0.7,0.7-0.7c0.4,0,0.7,0.3,0.7,0.7   C13.6,13.3,13.3,13.6,12.9,13.6z M82.6,66.1L82.6,66.1v16.1c0,0.3-0.2,0.5-0.5,0.5H17.9c-0.3,0-0.5-0.2-0.5-0.5V66.1v0V17.9   c0-0.3,0.2-0.5,0.5-0.5h64.3c0.3,0,0.5,0.2,0.5,0.5V66.1z M87.1,87.7c-0.4,0-0.7-0.3-0.7-0.7c0-0.4,0.3-0.7,0.7-0.7   c0.4,0,0.7,0.3,0.7,0.7C87.8,87.4,87.5,87.7,87.1,87.7z M87.1,13.6c-0.4,0-0.7-0.3-0.7-0.7c0-0.4,0.3-0.7,0.7-0.7   c0.4,0,0.7,0.3,0.7,0.7C87.8,13.3,87.5,13.6,87.1,13.6z"/><circle cx="42.1" cy="58.7" r="1"/><circle cx="57.9" cy="58.7" r="1"/><path d="M65.3,18.4H18.4v47.2h46.9V18.4z M62,23c0.2-0.1,0.5-0.1,0.7,0.2c0.1,0.2,0.1,0.5-0.2,0.7c-0.2,0.1-0.5,0.1-0.7-0.2   C61.7,23.4,61.8,23.1,62,23z M62.5,28c0.2,0.1,0.3,0.4,0.2,0.7c-0.1,0.2-0.4,0.3-0.7,0.2c-0.2-0.1-0.3-0.4-0.2-0.7   C62,27.9,62.3,27.9,62.5,28z M60,21.3c0.1-0.2,0.4-0.3,0.7-0.2c0.2,0.1,0.3,0.4,0.2,0.7c-0.1,0.2-0.4,0.3-0.7,0.2   S59.9,21.5,60,21.3z M57.9,20.4c0.3,0,0.5,0.2,0.5,0.5s-0.2,0.5-0.5,0.5s-0.5-0.2-0.5-0.5S57.6,20.4,57.9,20.4z M55.1,21.1   c0.2-0.1,0.5-0.1,0.7,0.2c0.1,0.2,0.1,0.5-0.2,0.7c-0.2,0.1-0.5,0.1-0.7-0.2C54.8,21.6,54.9,21.3,55.1,21.1z M57.9,22.3   c2,0,3.6,1.6,3.6,3.6s-1.6,3.6-3.6,3.6s-3.6-1.6-3.6-3.6S55.9,22.3,57.9,22.3z M60.6,30.7c-0.2,0.1-0.5,0.1-0.7-0.2   c-0.1-0.2-0.1-0.5,0.2-0.7s0.5-0.1,0.7,0.2C61,30.2,60.9,30.5,60.6,30.7z M58.4,30.9c0,0.3-0.2,0.5-0.5,0.5s-0.5-0.2-0.5-0.5   s0.2-0.5,0.5-0.5S58.4,30.7,58.4,30.9z M55.8,30.5c-0.1,0.2-0.4,0.3-0.7,0.2c-0.2-0.1-0.3-0.4-0.2-0.7c0.1-0.2,0.4-0.3,0.7-0.2   C55.9,30,55.9,30.3,55.8,30.5z M53.1,23.1c0.1-0.2,0.4-0.3,0.7-0.2c0.2,0.1,0.3,0.4,0.2,0.7c-0.1,0.2-0.4,0.3-0.7,0.2   C53.1,23.7,53,23.4,53.1,23.1z M53.8,28.8c-0.2,0.1-0.5,0.1-0.7-0.2c-0.1-0.2-0.1-0.5,0.2-0.7c0.2-0.1,0.5-0.1,0.7,0.2   C54.1,28.4,54,28.7,53.8,28.8z M52.9,25.4c0.3,0,0.5,0.2,0.5,0.5s-0.2,0.5-0.5,0.5s-0.5-0.2-0.5-0.5S52.6,25.4,52.9,25.4z    M52.9,33.4h10c0.3,0,0.5,0.2,0.5,0.5s-0.2,0.5-0.5,0.5h-10c-0.3,0-0.5-0.2-0.5-0.5S52.6,33.4,52.9,33.4z M60.8,40.2   c-0.1,0.2-0.4,0.3-0.7,0.2s-0.3-0.4-0.2-0.7c0.1-0.2,0.4-0.3,0.7-0.2C60.9,39.6,61,39.9,60.8,40.2z M58.4,39.2   c0,0.3-0.2,0.5-0.5,0.5s-0.5-0.2-0.5-0.5s0.2-0.5,0.5-0.5S58.4,39,58.4,39.2z M55.6,40.3c-0.2,0.1-0.5,0.1-0.7-0.2   c-0.1-0.2-0.1-0.5,0.2-0.7c0.2-0.1,0.5-0.1,0.7,0.2C55.9,39.9,55.9,40.2,55.6,40.3z M46.2,23c0.2-0.1,0.5-0.1,0.7,0.2   c0.1,0.2,0.1,0.5-0.2,0.7c-0.2,0.1-0.5,0.1-0.7-0.2C45.9,23.4,46,23.1,46.2,23z M46.7,28c0.2,0.1,0.3,0.4,0.2,0.7   c-0.1,0.2-0.4,0.3-0.7,0.2c-0.2-0.1-0.3-0.4-0.2-0.7C46.2,27.9,46.5,27.9,46.7,28z M44.2,21.3c0.1-0.2,0.4-0.3,0.7-0.2   c0.2,0.1,0.3,0.4,0.2,0.7c-0.1,0.2-0.4,0.3-0.7,0.2S44.1,21.5,44.2,21.3z M42.1,20.4c0.3,0,0.5,0.2,0.5,0.5s-0.2,0.5-0.5,0.5   s-0.5-0.2-0.5-0.5S41.8,20.4,42.1,20.4z M39.4,21.1c0.2-0.1,0.5-0.1,0.7,0.2c0.1,0.2,0.1,0.5-0.2,0.7c-0.2,0.1-0.5,0.1-0.7-0.2   C39,21.6,39.1,21.3,39.4,21.1z M42.1,22.3c2,0,3.6,1.6,3.6,3.6s-1.6,3.6-3.6,3.6c-2,0-3.6-1.6-3.6-3.6S40.1,22.3,42.1,22.3z    M45,34.4h-5.9c-0.3,0-0.5-0.2-0.5-0.5s0.2-0.5,0.5-0.5H45c0.3,0,0.5,0.2,0.5,0.5S45.3,34.4,45,34.4z M45,40.2   c-0.1,0.2-0.4,0.3-0.7,0.2s-0.3-0.4-0.2-0.7c0.1-0.2,0.4-0.3,0.7-0.2C45.1,39.6,45.2,39.9,45,40.2z M42.6,39.2   c0,0.3-0.2,0.5-0.5,0.5s-0.5-0.2-0.5-0.5s0.2-0.5,0.5-0.5S42.6,39,42.6,39.2z M39.8,40.3c-0.2,0.1-0.5,0.1-0.7-0.2   c-0.1-0.2-0.1-0.5,0.2-0.7c0.2-0.1,0.5-0.1,0.7,0.2C40.1,39.9,40.1,40.2,39.8,40.3z M39.2,30c0.1-0.2,0.4-0.3,0.7-0.2   c0.2,0.1,0.3,0.4,0.2,0.7c-0.1,0.2-0.4,0.3-0.7,0.2C39.1,30.5,39,30.2,39.2,30z M41.6,30.9c0-0.3,0.2-0.5,0.5-0.5s0.5,0.2,0.5,0.5   s-0.2,0.5-0.5,0.5S41.6,31.2,41.6,30.9z M44.4,29.8c0.2-0.1,0.5-0.1,0.7,0.2c0.1,0.2,0.1,0.5-0.2,0.7c-0.2,0.1-0.5,0.1-0.7-0.2   C44.1,30.3,44.1,30,44.4,29.8z M42.1,40.6c2,0,3.6,1.6,3.6,3.6s-1.6,3.6-3.6,3.6c-2,0-3.6-1.6-3.6-3.6S40.1,40.6,42.1,40.6z    M44.9,49c-0.2,0.1-0.5,0.1-0.7-0.2c-0.1-0.2-0.1-0.5,0.2-0.7s0.5-0.1,0.7,0.2C45.2,48.6,45.1,48.9,44.9,49z M42.6,49.3   c0,0.3-0.2,0.5-0.5,0.5s-0.5-0.2-0.5-0.5s0.2-0.5,0.5-0.5S42.6,49,42.6,49.3z M40,48.9c-0.1,0.2-0.4,0.3-0.7,0.2   c-0.2-0.1-0.3-0.4-0.2-0.7c0.1-0.2,0.4-0.3,0.7-0.2C40.1,48.3,40.1,48.6,40,48.9z M37.1,25.4c0.3,0,0.5,0.2,0.5,0.5   s-0.2,0.5-0.5,0.5s-0.5-0.2-0.5-0.5S36.8,25.4,37.1,25.4z M30.4,23c0.2-0.1,0.5-0.1,0.7,0.2c0.1,0.2,0.1,0.5-0.2,0.7   c-0.2,0.1-0.5,0.1-0.7-0.2C30.1,23.4,30.2,23.1,30.4,23z M30.9,28c0.2,0.1,0.3,0.4,0.2,0.7c-0.1,0.2-0.4,0.3-0.7,0.2   c-0.2-0.1-0.3-0.4-0.2-0.7C30.4,27.9,30.7,27.9,30.9,28z M28.4,21.3c0.1-0.2,0.4-0.3,0.7-0.2c0.2,0.1,0.3,0.4,0.2,0.7   c-0.1,0.2-0.4,0.3-0.7,0.2C28.4,21.8,28.3,21.5,28.4,21.3z M26.3,20.4c0.3,0,0.5,0.2,0.5,0.5s-0.2,0.5-0.5,0.5s-0.5-0.2-0.5-0.5   S26.1,20.4,26.3,20.4z M23.6,21.1c0.2-0.1,0.5-0.1,0.7,0.2c0.1,0.2,0.1,0.5-0.2,0.7c-0.2,0.1-0.5,0.1-0.7-0.2   C23.3,21.6,23.3,21.3,23.6,21.1z M21.3,25.4c0.3,0,0.5,0.2,0.5,0.5s-0.2,0.5-0.5,0.5c-0.3,0-0.5-0.2-0.5-0.5S21,25.4,21.3,25.4z    M20.8,44.3c0-0.3,0.2-0.5,0.5-0.5c0.3,0,0.5,0.2,0.5,0.5s-0.2,0.5-0.5,0.5C21,44.7,20.8,44.5,20.8,44.3z M22.2,47.2   c-0.2,0.1-0.5,0.1-0.7-0.2c-0.1-0.2-0.1-0.5,0.2-0.7c0.2-0.1,0.5-0.1,0.7,0.2C22.5,46.8,22.4,47.1,22.2,47.2z M22.4,42   c-0.1,0.2-0.4,0.3-0.7,0.2c-0.2-0.1-0.3-0.4-0.2-0.7c0.1-0.2,0.4-0.3,0.7-0.2C22.4,41.5,22.5,41.8,22.4,42z M22.2,28.8   c-0.2,0.1-0.5,0.1-0.7-0.2c-0.1-0.2-0.1-0.5,0.2-0.7c0.2-0.1,0.5-0.1,0.7,0.2C22.5,28.4,22.4,28.7,22.2,28.8z M22.4,23.6   c-0.1,0.2-0.4,0.3-0.7,0.2c-0.2-0.1-0.3-0.4-0.2-0.7c0.1-0.2,0.4-0.3,0.7-0.2C22.4,23.1,22.5,23.4,22.4,23.6z M24.2,48.9   c-0.1,0.2-0.4,0.3-0.7,0.2c-0.2-0.1-0.3-0.4-0.2-0.7c0.1-0.2,0.4-0.3,0.7-0.2C24.3,48.3,24.4,48.6,24.2,48.9z M26.3,60.7   c-1.1,0-2-0.9-2-2s0.9-2,2-2s2,0.9,2,2S27.4,60.7,26.3,60.7z M27.8,52.8h-3c-0.3,0-0.5-0.2-0.5-0.5s0.2-0.5,0.5-0.5h3   c0.3,0,0.5,0.2,0.5,0.5S28.1,52.8,27.8,52.8z M25.8,49.3c0-0.3,0.2-0.5,0.5-0.5s0.5,0.2,0.5,0.5s-0.2,0.5-0.5,0.5   S25.8,49.6,25.8,49.3z M29.1,49c-0.2,0.1-0.5,0.1-0.7-0.2c-0.1-0.2-0.1-0.5,0.2-0.7c0.2-0.1,0.5-0.1,0.7,0.2   C29.4,48.6,29.3,48.9,29.1,49z M26.3,47.9c-2,0-3.6-1.6-3.6-3.6s1.6-3.6,3.6-3.6s3.6,1.6,3.6,3.6S28.3,47.9,26.3,47.9z M23.5,33.4   h5.6c0.3,0,0.5,0.2,0.5,0.5s-0.2,0.5-0.5,0.5h-5.6c-0.3,0-0.5-0.2-0.5-0.5S23.2,33.4,23.5,33.4z M23.4,30c0.1-0.2,0.4-0.3,0.7-0.2   c0.2,0.1,0.3,0.4,0.2,0.7c-0.1,0.2-0.4,0.3-0.7,0.2C23.3,30.5,23.3,30.2,23.4,30z M25.8,30.9c0-0.3,0.2-0.5,0.5-0.5   s0.5,0.2,0.5,0.5s-0.2,0.5-0.5,0.5S25.8,31.2,25.8,30.9z M28.6,29.8c0.2-0.1,0.5-0.1,0.7,0.2c0.1,0.2,0.1,0.5-0.2,0.7   c-0.2,0.1-0.5,0.1-0.7-0.2C28.3,30.3,28.4,30,28.6,29.8z M29.2,40.2c-0.1,0.2-0.4,0.3-0.7,0.2c-0.2-0.1-0.3-0.4-0.2-0.7   c0.1-0.2,0.4-0.3,0.7-0.2C29.3,39.6,29.4,39.9,29.2,40.2z M26.8,39.2c0,0.3-0.2,0.5-0.5,0.5s-0.5-0.2-0.5-0.5s0.2-0.5,0.5-0.5   S26.8,39,26.8,39.2z M24,40.3c-0.2,0.1-0.5,0.1-0.7-0.2c-0.1-0.2-0.1-0.5,0.2-0.7c0.2-0.1,0.5-0.1,0.7,0.2   C24.4,39.9,24.3,40.2,24,40.3z M26.3,29.5c-2,0-3.6-1.6-3.6-3.6s1.6-3.6,3.6-3.6s3.6,1.6,3.6,3.6S28.3,29.5,26.3,29.5z M30.4,41.3   c0.2-0.1,0.5-0.1,0.7,0.2c0.1,0.2,0.1,0.5-0.2,0.7c-0.2,0.1-0.5,0.1-0.7-0.2C30.1,41.8,30.2,41.5,30.4,41.3z M31.1,47   c-0.1,0.2-0.4,0.3-0.7,0.2c-0.2-0.1-0.3-0.4-0.2-0.7c0.1-0.2,0.4-0.3,0.7-0.2C31.1,46.5,31.2,46.8,31.1,47z M31.3,44.7   c-0.3,0-0.5-0.2-0.5-0.5s0.2-0.5,0.5-0.5s0.5,0.2,0.5,0.5S31.6,44.7,31.3,44.7z M31.3,26.4c-0.3,0-0.5-0.2-0.5-0.5s0.2-0.5,0.5-0.5   s0.5,0.2,0.5,0.5S31.6,26.4,31.3,26.4z M36.6,44.3c0-0.3,0.2-0.5,0.5-0.5s0.5,0.2,0.5,0.5s-0.2,0.5-0.5,0.5S36.6,44.5,36.6,44.3z    M38,47.2c-0.2,0.1-0.5,0.1-0.7-0.2c-0.1-0.2-0.1-0.5,0.2-0.7c0.2-0.1,0.5-0.1,0.7,0.2C38.3,46.8,38.2,47.1,38,47.2z M38.2,42   c-0.1,0.2-0.4,0.3-0.7,0.2c-0.2-0.1-0.3-0.4-0.2-0.7c0.1-0.2,0.4-0.3,0.7-0.2C38.2,41.5,38.3,41.8,38.2,42z M38,28.8   c-0.2,0.1-0.5,0.1-0.7-0.2c-0.1-0.2-0.1-0.5,0.2-0.7c0.2-0.1,0.5-0.1,0.7,0.2C38.3,28.4,38.2,28.7,38,28.8z M38.2,23.6   c-0.1,0.2-0.4,0.3-0.7,0.2c-0.2-0.1-0.3-0.4-0.2-0.7c0.1-0.2,0.4-0.3,0.7-0.2C38.2,23.1,38.3,23.4,38.2,23.6z M38.5,52.3   c0-0.3,0.2-0.5,0.5-0.5h1.6c0.3,0,0.5,0.2,0.5,0.5s-0.2,0.5-0.5,0.5H39C38.7,52.8,38.5,52.5,38.5,52.3z M42.1,60.7   c-1.1,0-2-0.9-2-2s0.9-2,2-2s2,0.9,2,2S43.2,60.7,42.1,60.7z M45.2,52.8h-3c-0.3,0-0.5-0.2-0.5-0.5s0.2-0.5,0.5-0.5h3   c0.3,0,0.5,0.2,0.5,0.5S45.5,52.8,45.2,52.8z M46.2,41.3c0.2-0.1,0.5-0.1,0.7,0.2c0.1,0.2,0.1,0.5-0.2,0.7   c-0.2,0.1-0.5,0.1-0.7-0.2C45.9,41.8,46,41.5,46.2,41.3z M46.9,47c-0.1,0.2-0.4,0.3-0.7,0.2c-0.2-0.1-0.3-0.4-0.2-0.7   c0.1-0.2,0.4-0.3,0.7-0.2C46.9,46.5,47,46.8,46.9,47z M47.1,44.7c-0.3,0-0.5-0.2-0.5-0.5s0.2-0.5,0.5-0.5s0.5,0.2,0.5,0.5   S47.4,44.7,47.1,44.7z M47.1,26.4c-0.3,0-0.5-0.2-0.5-0.5s0.2-0.5,0.5-0.5s0.5,0.2,0.5,0.5S47.4,26.4,47.1,26.4z M52.4,44.3   c0-0.3,0.2-0.5,0.5-0.5s0.5,0.2,0.5,0.5s-0.2,0.5-0.5,0.5S52.4,44.5,52.4,44.3z M53.8,47.2c-0.2,0.1-0.5,0.1-0.7-0.2   c-0.1-0.2-0.1-0.5,0.2-0.7c0.2-0.1,0.5-0.1,0.7,0.2C54.1,46.8,54,47.1,53.8,47.2z M54,42c-0.1,0.2-0.4,0.3-0.7,0.2   c-0.2-0.1-0.3-0.4-0.2-0.7c0.1-0.2,0.4-0.3,0.7-0.2C54,41.5,54.1,41.8,54,42z M55.1,49c-0.2-0.1-0.3-0.4-0.2-0.7   c0.1-0.2,0.4-0.3,0.7-0.2c0.2,0.1,0.3,0.4,0.2,0.7C55.7,49.1,55.4,49.2,55.1,49z M57.9,60.7c-1.1,0-2-0.9-2-2s0.9-2,2-2s2,0.9,2,2   S59,60.7,57.9,60.7z M59.9,52.8h-4c-0.3,0-0.5-0.2-0.5-0.5s0.2-0.5,0.5-0.5h4c0.3,0,0.5,0.2,0.5,0.5S60.2,52.8,59.9,52.8z    M57.4,49.3c0-0.3,0.2-0.5,0.5-0.5s0.5,0.2,0.5,0.5s-0.2,0.5-0.5,0.5S57.4,49.6,57.4,49.3z M60.6,49c-0.2,0.1-0.5,0.1-0.7-0.2   c-0.1-0.2-0.1-0.5,0.2-0.7s0.5-0.1,0.7,0.2C61,48.6,60.9,48.9,60.6,49z M57.9,47.9c-2,0-3.6-1.6-3.6-3.6s1.6-3.6,3.6-3.6   s3.6,1.6,3.6,3.6S59.9,47.9,57.9,47.9z M62,41.3c0.2-0.1,0.5-0.1,0.7,0.2c0.1,0.2,0.1,0.5-0.2,0.7c-0.2,0.1-0.5,0.1-0.7-0.2   C61.7,41.8,61.8,41.5,62,41.3z M62.7,47c-0.1,0.2-0.4,0.3-0.7,0.2c-0.2-0.1-0.3-0.4-0.2-0.7c0.1-0.2,0.4-0.3,0.7-0.2   C62.7,46.5,62.8,46.8,62.7,47z M62.9,44.7c-0.3,0-0.5-0.2-0.5-0.5s0.2-0.5,0.5-0.5s0.5,0.2,0.5,0.5S63.2,44.7,62.9,44.7z    M62.9,26.4c-0.3,0-0.5-0.2-0.5-0.5s0.2-0.5,0.5-0.5s0.5,0.2,0.5,0.5S63.2,26.4,62.9,26.4z"/><ellipse cx="57.9" cy="44.3" rx="2.6" ry="2.6"/><ellipse cx="73.7" cy="44.3" rx="2.6" ry="2.6"/><path d="M42.1,28.5c1.4,0,2.6-1.2,2.6-2.6s-1.2-2.6-2.6-2.6c-1.4,0-2.6,1.2-2.6,2.6S40.7,28.5,42.1,28.5z"/><ellipse cx="26.3" cy="25.9" rx="2.6" ry="2.6"/></g><text x="0" y="115" fill="#000000" font-size="5px" font-weight="bold" font-family="'Helvetica Neue', Helvetica, Arial-Unicode, Arial, Sans-serif">Created by Gianluca Manzana</text><text x="0" y="120" fill="#000000" font-size="5px" font-weight="bold" font-family="'Helvetica Neue', Helvetica, Arial-Unicode, Arial, Sans-serif">from the Noun Project</text></svg>