<svg xmlns="http://www.w3.org/2000/svg" data-name="Layer 1" viewBox="0 0 100 125" x="0px" y="0px"><rect x="5.12" y="16.47" width="19.79" height="9.21"/><path d="M14,75.81a1,1,0,1,0-1-1A1,1,0,0,0,14,75.81Z"/><path d="M94.86,25.68v1H5.12V65.53H95V16.47H25.72v9.21ZM90.55,42.52l0-.17.53.11,0,.17ZM91,43.83l-.1.14-.77-.54.1-.14Zm-.26-2.43v-.17h.91v.17Zm.37-1.17-.53.11,0-.17.53-.11Zm-.21-1.45.09.15-.76.43-.09-.15Zm-1.05-.84.11.13-.41.35-.11-.13Zm-.76-.9-.41.71-.15-.09.41-.71Zm-4.65-2.48h4.32v.77H84.44Zm3.37,2.28-.09.53-.17,0,.09-.53Zm-1.22-.57v.91h-.18v-.91Zm-1,1.06-.17,0-.13-.52.17,0ZM84.1,37l.43.71-.15.09L84,37Zm2.5.42a3.95,3.95,0,1,1-3.94,3.94A3.95,3.95,0,0,1,86.6,37.37Zm-3.71,5.92.1.14-.64.47-.1-.14Zm-.78-.67L82,42.46l.46-.2.07.16Zm.69,10.69h7.29v1H82.8Zm.4-8.75.39-.37.12.13-.39.37ZM84,45.67l.43-.8.15.08-.43.8ZM88.53,45l.15-.09.48.8-.15.09Zm.91-.63.11-.13.41.37-.11.13Zm-6.12-6.38.39.35-.12.13-.39-.35Zm-1.11.84.72.43-.09.15-.72-.43Zm-.13,1.28.46,0,0,.17-.45-.05Zm-.53,1.17h.87v.17h-.87Zm-1.64-1-.53.11,0-.17.53-.11Zm-.21-1.45.09.15-.76.43-.09-.15Zm-1-.84.11.13-.41.35-.11-.13Zm-.76-.9-.41.71-.15-.09.41-.71Zm-4.65-2.8h4.32V35H73.24Zm3.37,2.6-.09.53-.17,0,.09-.53Zm-1.22-.57v.91h-.18v-.91Zm-1,1.06-.17,0-.13-.52.17,0ZM72.9,37l.43.71-.15.09L72.75,37Zm2.5.42a3.95,3.95,0,1,1-3.94,3.94A3.95,3.95,0,0,1,75.4,37.37Zm3.36,7.19-.11.13-.41-.37.11-.13ZM70.9,42.62l-.07-.16.46-.2.07.16Zm.79.67.11.14-.65.47-.1-.14Zm6.15,10v1H70.55v-1ZM72,44.56l.39-.37.12.13-.39.37Zm.75,1.11.42-.8.16.08-.43.8Zm5.06.08-.48-.8.15-.09.48.8Zm-5.69-7.81.39.35-.12.13L72,38.07ZM71,38.78l.72.43-.09.15-.72-.43Zm-.13,1.28.46,0,0,.17-.45-.05Zm-.53,1.17h.87v.17h-.87Zm-1.9-1-.53.11,0-.17.53-.11Zm.54,1v.17h-.91v-.17Zm-.75-2.45.08.15-.76.43-.08-.15Zm-1.06-.84.12.13-.41.35-.12-.13Zm-.76-.9-.41.71-.15-.09.41-.71Zm-4.64-2.8h4.31V35H61.78Zm3.37,2.6-.1.53-.17,0,.1-.53Zm-1.23-.57v.91h-.17v-.91Zm-1,1.06-.16,0-.13-.52.16,0ZM61.43,37l.43.71-.15.09L61.28,37Zm2.51.42A3.95,3.95,0,1,1,60,41.31,3.95,3.95,0,0,1,63.94,37.37Zm3.36,7.19-.12.13-.41-.37.12-.13Zm-.81,1.1-.14.09-.49-.8.15-.09ZM61.86,45l-.42.8-.16-.08.43-.8Zm-.81-.63-.39.37-.12-.13.39-.37Zm-.82-1,.1.14-.65.47-.1-.14Zm-.79-.67-.07-.16.45-.2.08.16Zm1.21-4.68.39.35-.11.13-.39-.35Zm-1.11.84.73.43-.09.15-.73-.43Zm-.12,1.28.45,0,0,.17-.46-.05Zm-.54,1.17h.88v.17h-.88ZM58.3,53.31h7.29v1H58.3ZM56.77,41.4v-.17h.91v.17Zm.37,1.06,0,.17-.53-.11,0-.17Zm0-2.23-.53.11,0-.17.53-.11Zm-.21-1.45.09.15-.76.43-.09-.15Zm-1-.84.11.13-.41.35-.11-.13Zm-.76-.9-.41.71-.15-.09L55,37Zm-4.65-2.8h4.32V35H50.47Zm3.37,2.6-.09.53-.17,0,.09-.53Zm-1.22-.57v.91h-.18v-.91Zm-1,1.06-.17,0-.13-.52.17,0ZM50.13,37l.43.71-.15.09L50,37Zm-.78,1,.39.35-.12.13-.39-.35Zm-1.11.84.72.43-.09.15-.72-.43Zm-.11,3.84-.07-.16.46-.2.07.16Zm.79.67.1.14-.64.47-.1-.14Zm-.81-3.23.46,0,0,.17-.45-.05Zm-.53,1.17h.87v.17h-.87Zm-1.9,12.08H53v1H45.68Zm3.55-8.75.39-.37.12.13-.39.37ZM50,45.67l.42-.8.16.08-.43.8ZM43.44,41.5v-.34H45.2v.34Zm.72,2-.07.33-1-.22.07-.33Zm0-4.31-1,.22-.07-.33,1-.22Zm-.41-2.79.17.3-1.48.82-.16-.29Zm-2-1.63.22.25-.79.69-.22-.26ZM40,32.91l.29.17-.8,1.37-.29-.17Zm-8.15-4.52h7.28v1H31.81Zm6,4.31-.18,1-.33-.06.18-1Zm-2.37-1.1v1.76h-.34V31.6Zm-2,2-.33.08-.25-1,.33-.09Zm-2.82-.73.82,1.37-.28.17-.83-1.36Zm-1.51,1.9.76.69-.23.24-.75-.68ZM27,36.45l1.4.82-.17.29-1.4-.83Zm-.25,2.45.88.11,0,.33-.88-.11Zm.93,4.56-.88.39-.13-.3.88-.4Zm-1.95-2.3h1.69v.34H25.7ZM19.56,44a2.8,2.8,0,1,1,2.8-2.8A2.8,2.8,0,0,1,19.56,44ZM22,43.47l-.09.09-.29-.27.09-.09Zm-.57.77-.11.07-.34-.57.1-.06Zm-3.28-.5-.31.56-.11,0,.31-.57Zm-.58-.45-.28.26-.09-.08.28-.27Zm-.58-.73.07.1-.46.33-.07-.1Zm-.56-.47L16.33,42l.32-.15.05.11Zm1.3-4,.11-.07.3.5-.1.07Zm.93-.14.12,0,.1.37-.12,0Zm.82.24v-.65h.12v.65Zm.81.1L20.3,38l.12,0-.06.37Zm.69.24.29-.51.1.07-.29.5Zm1.21,4,.54.39-.07.1-.54-.39Zm.22-.55,0-.12.38.08,0,.12Zm.14-.78V41.1h.64v.13Zm.26-.84-.38.08,0-.12.38-.08Zm-.15-1,.06.11-.54.3-.06-.11Zm-.67-.51-.29.25L21.57,39l.29-.25Zm-4.43-3.41h4.32v.77H17.51Zm-.27,3.32.27.25-.08.09-.27-.25Zm-.79.6.51.3-.06.11-.51-.3Zm-.09.9.32,0v.12l-.32,0ZM16,41.1h.62v.13H16ZM10.7,43.78A2.8,2.8,0,1,1,13.5,41,2.79,2.79,0,0,1,10.7,43.78Zm2.38-.49-.08.09-.29-.26.08-.09Zm-.56.78-.11.06-.34-.56.1-.07Zm-3.29-.51-.3.57-.11-.06.31-.56Zm-.57-.44-.28.26-.09-.09L8.57,43Zm-.58-.73.07.1-.46.33-.07-.1Zm-.56-.47,0-.12.32-.14,0,.11Zm1.3-4,.11-.06.3.5-.1.06Zm.93-.13.12,0,.09.37-.11,0Zm.82.23v-.64h.12v.64Zm.8.11.07-.37.12,0-.06.37Zm.7.23.29-.5.1.06-.29.5Zm1.21,4,.54.38-.07.1-.54-.38Zm.22-.55,0-.12.38.08,0,.12Zm.14-.79v-.12h.64v.12Zm.26-.83-.38.08,0-.12.37-.08Zm-.15-1,.06.11-.54.31-.06-.11Zm-.67-.5-.29.25-.08-.09L13,38.6ZM8.55,35.45h4.31v.77H8.55ZM8.38,38.6l.27.25-.08.09-.27-.25Zm-.79.6.51.3L8,39.6l-.51-.3Zm-.09.9.32,0v.12l-.32,0Zm-.38.83h.62v.12H7.12ZM27.2,62H7.25V49.37h20Zm0-15.67L27.05,46l1.24-.89.2.27Zm1.88,1.52-.23-.24.75-.72.23.25Zm-1.29-6.51a7.62,7.62,0,1,1,7.62,7.61A7.62,7.62,0,0,1,27.83,41.33ZM41.94,47.6l-.23.25-.79-.72.23-.25Zm-1.19,5.71v1H33.46v-1Zm-1.58-5,.28-.17.94,1.54-.29.17Zm-8.55,1.54-.29-.16.82-1.55.3.16ZM42.51,61.65H31.71V56.29h10.8Zm-.24-16.23.19-.28,1.47,1-.19.27ZM54.72,61.65H43.92V56.29h10.8ZM55,45.75l-.48-.8.15-.09.48.8Zm-2.41-.49a3.95,3.95,0,1,1,3.95-3.95A4,4,0,0,1,52.63,45.26Zm3.25-.57-.41-.37.11-.13.41.37Zm.38-1.4.77.54-.1.14-.77-.54ZM67.34,61.65H56.54V56.29h10.8ZM68.23,44l-.76-.54.1-.14.76.54Zm.18-1.34-.53-.11,0-.17.53.11Zm11.18,19H68.79V56.29h10.8ZM79.7,44l-.77-.54.1-.14.77.54Zm.18-1.34-.53-.11,0-.17.53.11Zm.57-1.23h-.91v-.17h.91ZM91.84,61.65H81V56.29h10.8Zm-2-41.78A2.14,2.14,0,1,1,87.67,22,2.14,2.14,0,0,1,89.8,19.87Zm-9.07,0A2.14,2.14,0,1,1,78.59,22,2.14,2.14,0,0,1,80.73,19.87Zm-9.58,0A2.14,2.14,0,1,1,69,22,2.14,2.14,0,0,1,71.15,19.87Zm-10.77-.49a2.23,2.23,0,1,1-2.23,2.23A2.22,2.22,0,0,1,60.38,19.38Zm-9.89,0a2.23,2.23,0,1,1-2.23,2.23A2.23,2.23,0,0,1,50.49,19.38Zm-9.7,0a2.23,2.23,0,1,1-2.22,2.23A2.23,2.23,0,0,1,40.79,19.38Zm-9.68,0a2.23,2.23,0,1,1-2.23,2.23A2.22,2.22,0,0,1,31.11,19.38Z"/><path d="M71.15,23a1,1,0,1,0-1-1A1,1,0,0,0,71.15,23Z"/><path d="M71.15,23.53A1.52,1.52,0,1,0,69.63,22,1.52,1.52,0,0,0,71.15,23.53Zm0-2.79A1.27,1.27,0,1,1,69.88,22,1.27,1.27,0,0,1,71.15,20.74Z"/><path d="M80.73,23.53A1.52,1.52,0,1,0,79.2,22,1.52,1.52,0,0,0,80.73,23.53Zm0-2.79A1.27,1.27,0,1,1,79.45,22,1.27,1.27,0,0,1,80.73,20.74Z"/><path d="M80.73,23a1,1,0,1,0-1-1A1,1,0,0,0,80.73,23Z"/><path d="M34.67,75.81a1,1,0,1,0-1-1A1,1,0,0,0,34.67,75.81Z"/><path d="M50.15,75.81a1,1,0,1,0-1-1A1,1,0,0,0,50.15,75.81Z"/><circle cx="44.99" cy="74.81" r="1"/><path d="M60.32,75.81a1,1,0,1,0-1-1A1,1,0,0,0,60.32,75.81Z"/><path d="M39.8,75.81a1,1,0,1,0-1-1A1,1,0,0,0,39.8,75.81Z"/><path d="M89.8,23.53A1.52,1.52,0,1,0,88.28,22,1.53,1.53,0,0,0,89.8,23.53Zm0-2.79A1.27,1.27,0,1,1,88.53,22,1.27,1.27,0,0,1,89.8,20.74Z"/><circle cx="29.49" cy="74.77" r="1"/><circle cx="55.2" cy="74.81" r="1"/><path d="M63.94,44.54a3.23,3.23,0,1,0-3.23-3.23A3.23,3.23,0,0,0,63.94,44.54Zm0-5.75a2.53,2.53,0,1,1-2.53,2.52A2.52,2.52,0,0,1,63.94,38.79Z"/><path d="M75.4,44.91a3.6,3.6,0,1,0-3.6-3.6A3.6,3.6,0,0,0,75.4,44.91Zm0-7A3.4,3.4,0,1,1,72,41.31,3.4,3.4,0,0,1,75.4,37.92Z"/><path d="M63.94,44.91a3.6,3.6,0,1,0-3.6-3.6A3.6,3.6,0,0,0,63.94,44.91Zm0-7a3.4,3.4,0,1,1-3.4,3.39A3.4,3.4,0,0,1,63.94,37.92Z"/><path d="M86.6,44.54a3.23,3.23,0,1,0-3.22-3.23A3.23,3.23,0,0,0,86.6,44.54Zm0-5.75a2.53,2.53,0,1,1-2.53,2.52A2.52,2.52,0,0,1,86.6,38.79Z"/><path d="M75.4,44.54a3.23,3.23,0,1,0-3.22-3.23A3.23,3.23,0,0,0,75.4,44.54Zm0-5.75a2.53,2.53,0,1,1-2.53,2.52A2.52,2.52,0,0,1,75.4,38.79Z"/><path d="M19.56,38.88a2.29,2.29,0,1,0,2.29,2.28A2.28,2.28,0,0,0,19.56,38.88Zm0,4.07a1.79,1.79,0,1,1,1.79-1.79A1.79,1.79,0,0,1,19.56,43Z"/><path d="M86.6,44.91a3.6,3.6,0,1,0-3.6-3.6A3.6,3.6,0,0,0,86.6,44.91Zm0-7a3.4,3.4,0,1,1-3.4,3.39A3.4,3.4,0,0,1,86.6,37.92Z"/><path d="M42.39,41.33a6.95,6.95,0,1,0-6.94,6.94A6.94,6.94,0,0,0,42.39,41.33Zm-13.5,0a6.56,6.56,0,1,1,6.56,6.56A6.56,6.56,0,0,1,28.89,41.33Z"/><path d="M52.63,38.09a3.23,3.23,0,1,0,3.23,3.22A3.23,3.23,0,0,0,52.63,38.09Zm0,5.75a2.53,2.53,0,1,1,2.53-2.53A2.53,2.53,0,0,1,52.63,43.84Z"/><path d="M52.63,37.72a3.6,3.6,0,1,0,3.6,3.59A3.6,3.6,0,0,0,52.63,37.72Zm0,7a3.4,3.4,0,1,1,3.4-3.4A3.4,3.4,0,0,1,52.63,44.71Z"/><path d="M89.8,23a1,1,0,1,0-1-1A1,1,0,0,0,89.8,23Z"/><path d="M19.56,38.61a2.55,2.55,0,1,0,2.55,2.55A2.56,2.56,0,0,0,19.56,38.61Zm0,5A2.41,2.41,0,1,1,22,41.16,2.41,2.41,0,0,1,19.56,43.57Z"/><path d="M10.7,38.7A2.29,2.29,0,1,0,13,41,2.29,2.29,0,0,0,10.7,38.7Zm0,4.08A1.79,1.79,0,1,1,12.49,41,1.79,1.79,0,0,1,10.7,42.78Z"/><path d="M41.67,41.33a6.23,6.23,0,1,0-6.22,6.23A6.23,6.23,0,0,0,41.67,41.33Zm-11.1,0a4.88,4.88,0,1,1,4.88,4.88A4.89,4.89,0,0,1,30.57,41.33Z"/><path d="M10.7,38.44A2.55,2.55,0,1,0,13.25,41,2.55,2.55,0,0,0,10.7,38.44Zm0,5A2.41,2.41,0,1,1,13.11,41,2.42,2.42,0,0,1,10.7,43.4Z"/><circle cx="24.31" cy="74.81" r="1"/><path d="M39.57,70.26A.47.47,0,0,0,40,69.8a.46.46,0,0,0-.46-.46.45.45,0,0,0-.46.46A.46.46,0,0,0,39.57,70.26Z"/><circle cx="81.02" cy="74.81" r="1"/><circle cx="86.2" cy="74.81" r="1"/><path d="M34.4,70.26a.46.46,0,0,0,.46-.46.45.45,0,0,0-.46-.46.46.46,0,0,0-.46.46A.47.47,0,0,0,34.4,70.26Z"/><circle cx="75.95" cy="74.81" r="1"/><path d="M24.31,70.26a.46.46,0,0,0,.46-.46.45.45,0,0,0-.46-.46.46.46,0,0,0-.46.46A.47.47,0,0,0,24.31,70.26Z"/><path d="M19.2,70.26a.47.47,0,0,0,.46-.46.46.46,0,0,0-.46-.46.45.45,0,0,0-.46.46A.46.46,0,0,0,19.2,70.26Z"/><path d="M29.49,70.26A.46.46,0,0,0,30,69.8a.45.45,0,0,0-.46-.46.46.46,0,0,0-.46.46A.47.47,0,0,0,29.49,70.26Z"/><path d="M44.69,70.26a.47.47,0,0,0,.46-.46.46.46,0,0,0-.46-.46.45.45,0,0,0-.46.46A.46.46,0,0,0,44.69,70.26Z"/><path d="M60.22,70.26a.46.46,0,0,0,.46-.46.45.45,0,0,0-.46-.46.46.46,0,0,0-.46.46A.47.47,0,0,0,60.22,70.26Z"/><path d="M55.06,70.26a.47.47,0,0,0,.46-.46.46.46,0,0,0-.46-.46.45.45,0,0,0-.46.46A.46.46,0,0,0,55.06,70.26Z"/><path d="M70.52,70.26A.47.47,0,0,0,71,69.8a.46.46,0,0,0-.46-.46.45.45,0,0,0-.46.46A.46.46,0,0,0,70.52,70.26Z"/><path d="M65.34,70.26a.47.47,0,0,0,.46-.46.46.46,0,0,0-.92,0A.47.47,0,0,0,65.34,70.26Z"/><path d="M81,70.26a.47.47,0,0,0,.46-.46.46.46,0,0,0-.46-.46.45.45,0,0,0-.46.46A.46.46,0,0,0,81,70.26Z"/><path d="M86.19,70.26a.46.46,0,0,0,.46-.46.45.45,0,0,0-.46-.46.46.46,0,0,0-.46.46A.47.47,0,0,0,86.19,70.26Z"/><path d="M75.9,70.26a.47.47,0,0,0,.46-.46.46.46,0,0,0-.46-.46.45.45,0,0,0-.46.46A.46.46,0,0,0,75.9,70.26Z"/><path d="M5.12,66.53v21H95v-21ZM14,84.21a1,1,0,1,1,1-1A1,1,0,0,1,14,84.21Zm2.26-3.36H11.77v-8.1h4.52Zm2.91,3.36a1,1,0,1,1,1-1A1,1,0,0,1,19.2,84.21Zm2.26-3.36H16.93v-8.1h4.53Zm2.85,3.36a1,1,0,1,1,1-1A1,1,0,0,1,24.31,84.21Zm2.27-3.36H22.05v-8.1h4.53Zm2.91,3.32a1,1,0,1,1,1-1A1,1,0,0,1,29.49,84.17Zm2.27-3.36H27.23v-8.1h4.53Zm2.91,3.4a1,1,0,1,1,1-1A1,1,0,0,1,34.67,84.21Zm2.26-3.36H32.41v-8.1h4.52Zm2.87,3.36a1,1,0,1,1,1-1A1,1,0,0,1,39.8,84.21Zm2.26-3.36H37.53v-8.1h4.53ZM45,84.21a1,1,0,1,1,1-1A1,1,0,0,1,45,84.21Zm2.26-3.36H42.73v-8.1h4.52Zm2.9,3.36a1,1,0,1,1,1-1A1,1,0,0,1,50.15,84.21Zm2.26-3.36H47.89v-8.1h4.52Zm2.79,3.36a1,1,0,1,1,1-1A1,1,0,0,1,55.2,84.21Zm2.27-3.36H52.94v-8.1h4.53Zm2.85,3.36a1,1,0,1,1,1-1A1,1,0,0,1,60.32,84.21Zm2.26-3.36H58.05v-8.1h4.53Zm3,3.36a1,1,0,1,1,1-1A1,1,0,0,1,65.56,84.21Zm2.26-3.36H63.3v-8.1h4.52Zm2.88,3.36a1,1,0,1,1,1-1A1,1,0,0,1,70.7,84.21ZM73,80.85H68.43v-8.1H73Zm3,3.36a1,1,0,1,1,1-1A1,1,0,0,1,76,84.21Zm2.26-3.36H73.69v-8.1h4.52ZM81,84.21a1,1,0,1,1,1-1A1,1,0,0,1,81,84.21Zm2.26-3.36H78.75v-8.1h4.53Zm2.92,3.36a1,1,0,1,1,1-1A1,1,0,0,1,86.2,84.21Zm2.26-3.36H83.94v-8.1h4.52Zm1.72-10.29H10V69H90.18Z"/><circle cx="70.7" cy="74.81" r="1"/><circle cx="65.56" cy="74.81" r="1"/><path d="M49.86,70.26a.46.46,0,0,0,.46-.46.45.45,0,0,0-.46-.46.46.46,0,0,0-.46.46A.47.47,0,0,0,49.86,70.26Z"/><path d="M14,70.26a.47.47,0,0,0,.46-.46.46.46,0,0,0-.92,0A.47.47,0,0,0,14,70.26Z"/><text x="0" y="115" fill="#000000" font-size="5px" font-weight="bold" font-family="'Helvetica Neue', Helvetica, Arial-Unicode, Arial, Sans-serif">Created by Jekaterine Marin</text><text x="0" y="120" fill="#000000" font-size="5px" font-weight="bold" font-family="'Helvetica Neue', Helvetica, Arial-Unicode, Arial, Sans-serif">from the Noun Project</text></svg>