<svg xmlns="http://www.w3.org/2000/svg" version="1.1" viewBox="-5.0 -10.0 110.0 135.0">
 <g>
  <path d="m94.82 71.32-12.531-4.6992s-0.089843-0.019532-0.12891-0.039063v-14.031c0-0.96875-0.78906-1.7617-1.7617-1.7617-0.96875 0-1.7617 0.78906-1.7617 1.7617v6.8516h-28.449v-5.7188h8.0117c3.6602 0 6.6406-3.4219 6.6406-7.6211s-2.9805-7.6211-6.6406-7.6211h-8.0117v-12.602h11.719c1.6211 0 2.9297-1.3086 2.9297-2.9297v-2.9297h1.1719c0.96875 0 1.7617-0.78906 1.7617-1.7617 0-0.96875-0.78906-1.7617-1.7617-1.7617h-1.1719v-2.9297c0-1.6211-1.3086-2.9297-2.9297-2.9297h-26.961c-1.6211 0-2.9297 1.3086-2.9297 2.9297v9.3789c0 1.6211 1.3086 2.9297 2.9297 2.9297h11.719v12.602h-8.0117c-3.6602 0-6.6406 3.4219-6.6406 7.6211 0 4.1992 2.9805 7.6211 6.6406 7.6211h8.0117v5.7188h-26.422c-0.96875 0-1.7617 0.78906-1.7617 1.7617v5.4219s-0.089844 0.019531-0.12891 0.039063l-12.531 4.6992c-1.2109 0.44922-1.9883 1.5117-1.9883 2.6992 0 1.1914 0.78125 2.25 1.9883 2.6992l12.531 4.6992s0.089844 0.019531 0.12891 0.039062v6.1602c0 0.96875 0.78906 1.7617 1.7617 1.7617h1.5391c0.96875 0 1.7617-0.78906 1.7617-1.7617 0-0.89844-0.67188-1.6289-1.5391-1.7383v-4.4219s0.089844-0.019531 0.12891-0.039062l12.531-4.6992c1.2109-0.44922 1.9883-1.5117 1.9883-2.6992 0-1.1914-0.78125-2.25-1.9883-2.6992l-12.531-4.6992s-0.089843-0.019532-0.12891-0.039063v-3.6719h56.629v3.6719s-0.089843 0.019531-0.12891 0.039063l-12.531 4.6992c-1.2109 0.44922-1.9883 1.5117-1.9883 2.6992 0 1.1914 0.78125 2.25 1.9883 2.6992l12.531 4.6992s0.089844 0.019531 0.12891 0.039062v4.3984h-4.1016c-0.96875 0-1.7617 0.78906-1.7617 1.7617 0 0.96875 0.78906 1.7617 1.7617 1.7617h5.8594c0.96875 0 1.7617-0.78906 1.7617-1.7617v-6.1602s0.089844-0.019531 0.12891-0.039062l12.531-4.6992c1.2109-0.44922 1.9883-1.5117 1.9883-2.6992 0-1.1914-0.78125-2.25-1.9883-2.6992zm-62.941 2.7109-10.961 4.1094c-0.41016 0.14844-0.89844 0.14844-1.3086 0l-10.969-4.1094 10.961-4.1094c0.19922-0.078125 0.42969-0.10938 0.64844-0.10938s0.44922 0.039062 0.64844 0.10938l10.969 4.1094zm3.6602-51.691v-8.1992h25.789v8.1992zm3.1328 27.832c-1.6914 0-3.1289-1.8789-3.1289-4.1016 0-2.2188 1.4297-4.1016 3.1289-4.1016h19.531c1.6914 0 3.1289 1.8789 3.1289 4.1016 0 2.2188-1.4297 4.1016-3.1289 4.1016zm42.387 27.969c-0.41016 0.14844-0.89844 0.14844-1.3086 0l-10.969-4.1094 10.961-4.1094c0.19922-0.078125 0.42969-0.10938 0.64844-0.10938s0.44922 0.039062 0.64844 0.10938l10.969 4.1094-10.961 4.1094z"/>
  <path d="m69.828 19.988h3.8203c0.96875 0 1.7617-0.78906 1.7617-1.7617 0-0.96875-0.78906-1.7617-1.7617-1.7617h-3.8203c-0.96875 0-1.7617 0.78906-1.7617 1.7617 0 0.96875 0.78906 1.7617 1.7617 1.7617z"/>
  <path d="m77.469 19.988h1.1719v1.1719c0 0.96875 0.78906 1.7617 1.7617 1.7617 0.96875 0 1.7617-0.78906 1.7617-1.7617v-2.9297c0-0.96875-0.78906-1.7617-1.7617-1.7617h-2.9297c-0.96875 0-1.7617 0.78906-1.7617 1.7617 0 0.96875 0.78906 1.7617 1.7617 1.7617z"/>
  <path d="m80.398 38.238c-0.96875 0-1.7617 0.78906-1.7617 1.7617v6.2812c0 0.96875 0.78906 1.7617 1.7617 1.7617 0.96875 0 1.7617-0.78906 1.7617-1.7617v-6.2812c0-0.96875-0.78906-1.7617-1.7617-1.7617z"/>
  <path d="m82.16 27.449c0-0.96875-0.78906-1.7617-1.7617-1.7617-0.96875 0-1.7617 0.78906-1.7617 1.7617v6.2812c0 0.96875 0.78906 1.7617 1.7617 1.7617 0.96875 0 1.7617-0.78906 1.7617-1.7617z"/>
  <path d="m56.961 85.871h-5.8594c-0.96875 0-1.7617 0.78906-1.7617 1.7617 0 0.96875 0.78906 1.7617 1.7617 1.7617h5.8594c0.96875 0 1.7617-0.78906 1.7617-1.7617 0-0.96875-0.78906-1.7617-1.7617-1.7617z"/>
  <path d="m45.238 85.871h-5.8594c-0.96875 0-1.7617 0.78906-1.7617 1.7617 0 0.96875 0.78906 1.7617 1.7617 1.7617h5.8594c0.96875 0 1.7617-0.78906 1.7617-1.7617 0-0.96875-0.78906-1.7617-1.7617-1.7617z"/>
  <path d="m33.52 85.871h-5.8594c-0.96875 0-1.7617 0.78906-1.7617 1.7617 0 0.96875 0.78906 1.7617 1.7617 1.7617h5.8594c0.96875 0 1.7617-0.78906 1.7617-1.7617 0-0.96875-0.78906-1.7617-1.7617-1.7617z"/>
  <path d="m68.68 85.871h-5.8594c-0.96875 0-1.7617 0.78906-1.7617 1.7617 0 0.96875 0.78906 1.7617 1.7617 1.7617h5.8594c0.96875 0 1.7617-0.78906 1.7617-1.7617 0-0.96875-0.78906-1.7617-1.7617-1.7617z"/>
 </g>
<text x="0.0" y="117.5" font-size="5.0" font-weight="bold" font-family="Arbeit Regular, Helvetica, Arial-Unicode, Arial, Sans-serif" fill="#000000">Created by noodle research</text><text x="0.0" y="122.5" font-size="5.0" font-weight="bold" font-family="Arbeit Regular, Helvetica, Arial-Unicode, Arial, Sans-serif" fill="#000000">from Noun Project</text></svg>