<svg xmlns="http://www.w3.org/2000/svg" xmlns:xlink="http://www.w3.org/1999/xlink" version="1.1" x="0px" y="0px" viewBox="0 0 100 125" style="enable-background:new 0 0 100 100;" xml:space="preserve"><g><ellipse cx="53.8" cy="25.8" rx="2.6" ry="2.6"/><ellipse cx="69.6" cy="25.8" rx="2.6" ry="2.6"/><ellipse cx="53.8" cy="44.2" rx="2.6" ry="2.6"/><path d="M85.4,57.7c-0.5,0-1,0.4-1,1c0,0.5,0.4,1,1,1s1-0.4,1-1C86.4,58.1,85.9,57.7,85.4,57.7z"/><ellipse cx="85.4" cy="44.2" rx="2.6" ry="2.6"/><path d="M85.4,28.5c1.4,0,2.6-1.2,2.6-2.6s-1.2-2.6-2.6-2.6c-1.4,0-2.6,1.2-2.6,2.6S84,28.5,85.4,28.5z"/><circle cx="38" cy="58.7" r="1"/><path d="M69.6,57.7c-0.5,0-1,0.4-1,1c0,0.5,0.4,1,1,1s1-0.4,1-1C70.6,58.1,70.2,57.7,69.6,57.7z"/><ellipse cx="69.6" cy="44.2" rx="2.6" ry="2.6"/><path d="M31.2,65.5H77V18.3H31.2V65.5z M33.9,47.1c-0.2,0.1-0.5,0.1-0.7-0.2c-0.1-0.2-0.1-0.5,0.2-0.7c0.2-0.1,0.5-0.1,0.7,0.2   C34.2,46.7,34.2,47,33.9,47.1z M34.1,41.9c-0.1,0.2-0.4,0.3-0.7,0.2s-0.3-0.4-0.2-0.7c0.1-0.2,0.4-0.3,0.7-0.2   C34.2,41.4,34.2,41.7,34.1,41.9z M33.9,28.8c-0.2,0.1-0.5,0.1-0.7-0.2c-0.1-0.2-0.1-0.5,0.2-0.7c0.2-0.1,0.5-0.1,0.7,0.2   C34.2,28.3,34.2,28.6,33.9,28.8z M35.9,48.8c-0.1,0.2-0.4,0.3-0.7,0.2c-0.2-0.1-0.3-0.4-0.2-0.7c0.1-0.2,0.4-0.3,0.7-0.2   C36,48.3,36.1,48.6,35.9,48.8z M38,60.7c-1.1,0-2-0.9-2-2s0.9-2,2-2s2,0.9,2,2S39.1,60.7,38,60.7z M39.5,52.7h-3   c-0.3,0-0.5-0.2-0.5-0.5s0.2-0.5,0.5-0.5h3c0.3,0,0.5,0.2,0.5,0.5S39.8,52.7,39.5,52.7z M37.6,49.2c0-0.3,0.2-0.5,0.5-0.5   s0.5,0.2,0.5,0.5s-0.2,0.5-0.5,0.5S37.6,49.5,37.6,49.2z M40.8,49c-0.2,0.1-0.5,0.1-0.7-0.2c-0.1-0.2-0.1-0.5,0.2-0.7   c0.2-0.1,0.5-0.1,0.7,0.2C41.1,48.6,41,48.9,40.8,49z M42.8,47c-0.1,0.2-0.4,0.3-0.7,0.2c-0.2-0.1-0.3-0.4-0.2-0.7   c0.1-0.2,0.4-0.3,0.7-0.2C42.9,46.4,42.9,46.7,42.8,47z M43.1,44.7c-0.3,0-0.5-0.2-0.5-0.5s0.2-0.5,0.5-0.5c0.3,0,0.5,0.2,0.5,0.5   S43.3,44.7,43.1,44.7z M49.7,47.1c-0.2,0.1-0.5,0.1-0.7-0.2c-0.1-0.2-0.1-0.5,0.2-0.7c0.2-0.1,0.5-0.1,0.7,0.2   C50,46.7,49.9,47,49.7,47.1z M49.9,41.9c-0.1,0.2-0.4,0.3-0.7,0.2c-0.2-0.1-0.3-0.4-0.2-0.7c0.1-0.2,0.4-0.3,0.7-0.2   C49.9,41.4,50,41.7,49.9,41.9z M49.7,28.8c-0.2,0.1-0.5,0.1-0.7-0.2c-0.1-0.2-0.1-0.5,0.2-0.7c0.2-0.1,0.5-0.1,0.7,0.2   C50,28.3,49.9,28.6,49.7,28.8z M53.8,60.7c-1.1,0-2-0.9-2-2s0.9-2,2-2s2,0.9,2,2S54.9,60.7,53.8,60.7z M58.6,47   c-0.1,0.2-0.4,0.3-0.7,0.2c-0.2-0.1-0.3-0.4-0.2-0.7c0.1-0.2,0.4-0.3,0.7-0.2C58.6,46.4,58.7,46.7,58.6,47z M58.8,44.7   c-0.3,0-0.5-0.2-0.5-0.5s0.2-0.5,0.5-0.5s0.5,0.2,0.5,0.5S59.1,44.7,58.8,44.7z M64.1,44.2c0-0.3,0.2-0.5,0.5-0.5   c0.3,0,0.5,0.2,0.5,0.5s-0.2,0.5-0.5,0.5C64.3,44.7,64.1,44.5,64.1,44.2z M65.5,47.1c-0.2,0.1-0.5,0.1-0.7-0.2   c-0.1-0.2-0.1-0.5,0.2-0.7c0.2-0.1,0.5-0.1,0.7,0.2C65.8,46.7,65.7,47,65.5,47.1z M65.7,41.9c-0.1,0.2-0.4,0.3-0.7,0.2   c-0.2-0.1-0.3-0.4-0.2-0.7c0.1-0.2,0.4-0.3,0.7-0.2C65.7,41.4,65.8,41.7,65.7,41.9z M66.9,49c-0.2-0.1-0.3-0.4-0.2-0.7   c0.1-0.2,0.4-0.3,0.7-0.2c0.2,0.1,0.3,0.4,0.2,0.7C67.4,49,67.1,49.1,66.9,49z M69.6,60.7c-1.1,0-2-0.9-2-2s0.9-2,2-2s2,0.9,2,2   S70.7,60.7,69.6,60.7z M71.6,52.7h-4c-0.3,0-0.5-0.2-0.5-0.5s0.2-0.5,0.5-0.5h4c0.3,0,0.5,0.2,0.5,0.5S71.9,52.7,71.6,52.7z    M69.1,49.2c0-0.3,0.2-0.5,0.5-0.5c0.3,0,0.5,0.2,0.5,0.5s-0.2,0.5-0.5,0.5C69.3,49.7,69.1,49.5,69.1,49.2z M72.4,49   c-0.2,0.1-0.5,0.1-0.7-0.2c-0.1-0.2-0.1-0.5,0.2-0.7c0.2-0.1,0.5-0.1,0.7,0.2C72.7,48.6,72.6,48.9,72.4,49z M69.6,47.8   c-2,0-3.6-1.6-3.6-3.6s1.6-3.6,3.6-3.6s3.6,1.6,3.6,3.6S71.6,47.8,69.6,47.8z M66.9,39.4c0.2-0.1,0.5-0.1,0.7,0.2   c0.1,0.2,0.1,0.5-0.2,0.7c-0.2,0.1-0.5,0.1-0.7-0.2C66.5,39.9,66.6,39.6,66.9,39.4z M69.1,39.2c0-0.3,0.2-0.5,0.5-0.5   c0.3,0,0.5,0.2,0.5,0.5c0,0.3-0.2,0.5-0.5,0.5C69.3,39.7,69.1,39.5,69.1,39.2z M71.7,39.6c0.1-0.2,0.4-0.3,0.7-0.2   c0.2,0.1,0.3,0.4,0.2,0.7c-0.1,0.2-0.4,0.3-0.7,0.2C71.6,40.1,71.6,39.9,71.7,39.6z M74.4,47c-0.1,0.2-0.4,0.3-0.7,0.2   c-0.2-0.1-0.3-0.4-0.2-0.7c0.1-0.2,0.4-0.3,0.7-0.2C74.4,46.4,74.5,46.7,74.4,47z M73.7,41.3c0.2-0.1,0.5-0.1,0.7,0.2   c0.1,0.2,0.1,0.5-0.2,0.7c-0.2,0.1-0.5,0.1-0.7-0.2C73.4,41.7,73.5,41.4,73.7,41.3z M74.6,44.7c-0.3,0-0.5-0.2-0.5-0.5   s0.2-0.5,0.5-0.5s0.5,0.2,0.5,0.5S74.9,44.7,74.6,44.7z M75.1,25.8c0,0.3-0.2,0.5-0.5,0.5s-0.5-0.2-0.5-0.5s0.2-0.5,0.5-0.5   S75.1,25.6,75.1,25.8z M74.4,28.6c-0.1,0.2-0.4,0.3-0.7,0.2c-0.2-0.1-0.3-0.4-0.2-0.7c0.1-0.2,0.4-0.3,0.7-0.2   C74.4,28.1,74.5,28.4,74.4,28.6z M73.7,22.9c0.2-0.1,0.5-0.1,0.7,0.2c0.1,0.2,0.1,0.5-0.2,0.7c-0.2,0.1-0.5,0.1-0.7-0.2   C73.4,23.3,73.5,23.1,73.7,22.9z M71.7,21.3c0.1-0.2,0.4-0.3,0.7-0.2c0.2,0.1,0.3,0.4,0.2,0.7c-0.1,0.2-0.4,0.3-0.7,0.2   C71.6,21.8,71.6,21.5,71.7,21.3z M69.6,20.3c0.3,0,0.5,0.2,0.5,0.5c0,0.3-0.2,0.5-0.5,0.5c-0.3,0-0.5-0.2-0.5-0.5   C69.1,20.6,69.3,20.3,69.6,20.3z M66.9,21.1c0.2-0.1,0.5-0.1,0.7,0.2c0.1,0.2,0.1,0.5-0.2,0.7c-0.2,0.1-0.5,0.1-0.7-0.2   C66.5,21.5,66.6,21.2,66.9,21.1z M69.6,22.2c2,0,3.6,1.6,3.6,3.6s-1.6,3.6-3.6,3.6S66,27.8,66,25.8S67.6,22.2,69.6,22.2z    M72.4,30.6c-0.2,0.1-0.5,0.1-0.7-0.2c-0.1-0.2-0.1-0.5,0.2-0.7c0.2-0.1,0.5-0.1,0.7,0.2C72.7,30.2,72.6,30.5,72.4,30.6z    M70.1,30.9c0,0.3-0.2,0.5-0.5,0.5c-0.3,0-0.5-0.2-0.5-0.5s0.2-0.5,0.5-0.5C69.9,30.4,70.1,30.6,70.1,30.9z M67.5,30.4   c-0.1,0.2-0.4,0.3-0.7,0.2c-0.2-0.1-0.3-0.4-0.2-0.7c0.1-0.2,0.4-0.3,0.7-0.2C67.6,29.9,67.6,30.2,67.5,30.4z M64.8,23.1   c0.1-0.2,0.4-0.3,0.7-0.2c0.2,0.1,0.3,0.4,0.2,0.7c-0.1,0.2-0.4,0.3-0.7,0.2C64.8,23.6,64.7,23.3,64.8,23.1z M65.5,28.8   c-0.2,0.1-0.5,0.1-0.7-0.2c-0.1-0.2-0.1-0.5,0.2-0.7c0.2-0.1,0.5-0.1,0.7,0.2C65.8,28.3,65.7,28.6,65.5,28.8z M64.6,25.4   c0.3,0,0.5,0.2,0.5,0.5s-0.2,0.5-0.5,0.5c-0.3,0-0.5-0.2-0.5-0.5S64.3,25.4,64.6,25.4z M64.6,33.4h10c0.3,0,0.5,0.2,0.5,0.5   s-0.2,0.5-0.5,0.5h-10c-0.3,0-0.5-0.2-0.5-0.5S64.3,33.4,64.6,33.4z M59.3,25.8c0,0.3-0.2,0.5-0.5,0.5c-0.3,0-0.5-0.2-0.5-0.5   s0.2-0.5,0.5-0.5C59.1,25.4,59.3,25.6,59.3,25.8z M58.6,28.6c-0.1,0.2-0.4,0.3-0.7,0.2c-0.2-0.1-0.3-0.4-0.2-0.7   c0.1-0.2,0.4-0.3,0.7-0.2C58.6,28.1,58.7,28.4,58.6,28.6z M57.9,22.9c0.2-0.1,0.5-0.1,0.7,0.2c0.1,0.2,0.1,0.5-0.2,0.7   c-0.2,0.1-0.5,0.1-0.7-0.2C57.6,23.3,57.7,23.1,57.9,22.9z M57.9,41.3c0.2-0.1,0.5-0.1,0.7,0.2c0.1,0.2,0.1,0.5-0.2,0.7   c-0.2,0.1-0.5,0.1-0.7-0.2C57.6,41.7,57.7,41.4,57.9,41.3z M56.9,52.7h-3c-0.3,0-0.5-0.2-0.5-0.5s0.2-0.5,0.5-0.5h3   c0.3,0,0.5,0.2,0.5,0.5S57.2,52.7,56.9,52.7z M53.3,49.2c0-0.3,0.2-0.5,0.5-0.5c0.3,0,0.5,0.2,0.5,0.5s-0.2,0.5-0.5,0.5   C53.6,49.7,53.3,49.5,53.3,49.2z M56.1,48.1c0.2-0.1,0.5-0.1,0.7,0.2c0.1,0.2,0.1,0.5-0.2,0.7c-0.2,0.1-0.5,0.1-0.7-0.2   C55.8,48.6,55.9,48.3,56.1,48.1z M55.9,21.3c0.1-0.2,0.4-0.3,0.7-0.2c0.2,0.1,0.3,0.4,0.2,0.7c-0.1,0.2-0.4,0.3-0.7,0.2   C55.9,21.8,55.8,21.5,55.9,21.3z M53.8,20.3c0.3,0,0.5,0.2,0.5,0.5c0,0.3-0.2,0.5-0.5,0.5s-0.5-0.2-0.5-0.5   C53.3,20.6,53.6,20.3,53.8,20.3z M51.1,21.1c0.2-0.1,0.5-0.1,0.7,0.2c0.1,0.2,0.1,0.5-0.2,0.7C51.3,22,51,22,50.9,21.7   C50.8,21.5,50.8,21.2,51.1,21.1z M53.8,22.2c2,0,3.6,1.6,3.6,3.6s-1.6,3.6-3.6,3.6s-3.6-1.6-3.6-3.6S51.8,22.2,53.8,22.2z    M56.7,34.4h-5.9c-0.3,0-0.5-0.2-0.5-0.5s0.2-0.5,0.5-0.5h5.9c0.3,0,0.5,0.2,0.5,0.5S57,34.4,56.7,34.4z M56.7,40.1   c-0.1,0.2-0.4,0.3-0.7,0.2c-0.2-0.1-0.3-0.4-0.2-0.7c0.1-0.2,0.4-0.3,0.7-0.2C56.8,39.6,56.9,39.9,56.7,40.1z M54.3,39.2   c0,0.3-0.2,0.5-0.5,0.5c-0.3,0-0.5-0.2-0.5-0.5c0-0.3,0.2-0.5,0.5-0.5C54.1,38.7,54.3,38.9,54.3,39.2z M51.5,40.3   c-0.2,0.1-0.5,0.1-0.7-0.2c-0.1-0.2-0.1-0.5,0.2-0.7c0.2-0.1,0.5-0.1,0.7,0.2C51.9,39.9,51.8,40.1,51.5,40.3z M50.9,30   c0.1-0.2,0.4-0.3,0.7-0.2c0.2,0.1,0.3,0.4,0.2,0.7c-0.1,0.2-0.4,0.3-0.7,0.2C50.8,30.5,50.8,30.2,50.9,30z M53.3,30.9   c0-0.3,0.2-0.5,0.5-0.5s0.5,0.2,0.5,0.5s-0.2,0.5-0.5,0.5S53.3,31.1,53.3,30.9z M56.1,29.8c0.2-0.1,0.5-0.1,0.7,0.2   c0.1,0.2,0.1,0.5-0.2,0.7c-0.2,0.1-0.5,0.1-0.7-0.2C55.8,30.2,55.9,29.9,56.1,29.8z M53.8,40.6c2,0,3.6,1.6,3.6,3.6   s-1.6,3.6-3.6,3.6s-3.6-1.6-3.6-3.6S51.8,40.6,53.8,40.6z M51.7,48.8c-0.1,0.2-0.4,0.3-0.7,0.2c-0.2-0.1-0.3-0.4-0.2-0.7   c0.1-0.2,0.4-0.3,0.7-0.2C51.8,48.3,51.9,48.6,51.7,48.8z M50.7,51.7h1.6c0.3,0,0.5,0.2,0.5,0.5s-0.2,0.5-0.5,0.5h-1.6   c-0.3,0-0.5-0.2-0.5-0.5S50.4,51.7,50.7,51.7z M49.1,23.1c0.1-0.2,0.4-0.3,0.7-0.2c0.2,0.1,0.3,0.4,0.2,0.7   c-0.1,0.2-0.4,0.3-0.7,0.2S48.9,23.3,49.1,23.1z M48.8,25.4c0.3,0,0.5,0.2,0.5,0.5s-0.2,0.5-0.5,0.5s-0.5-0.2-0.5-0.5   S48.5,25.4,48.8,25.4z M48.8,43.7c0.3,0,0.5,0.2,0.5,0.5s-0.2,0.5-0.5,0.5s-0.5-0.2-0.5-0.5S48.5,43.7,48.8,43.7z M43.5,25.8   c0,0.3-0.2,0.5-0.5,0.5c-0.3,0-0.5-0.2-0.5-0.5s0.2-0.5,0.5-0.5C43.3,25.4,43.5,25.6,43.5,25.8z M42.8,28.6   c-0.1,0.2-0.4,0.3-0.7,0.2c-0.2-0.1-0.3-0.4-0.2-0.7c0.1-0.2,0.4-0.3,0.7-0.2C42.9,28.1,42.9,28.4,42.8,28.6z M42.1,22.9   c0.2-0.1,0.5-0.1,0.7,0.2c0.1,0.2,0.1,0.5-0.2,0.7c-0.2,0.1-0.5,0.1-0.7-0.2C41.8,23.3,41.9,23.1,42.1,22.9z M42.1,41.3   c0.2-0.1,0.5-0.1,0.7,0.2c0.1,0.2,0.1,0.5-0.2,0.7c-0.2,0.1-0.5,0.1-0.7-0.2C41.8,41.7,41.9,41.4,42.1,41.3z M40.1,21.3   c0.1-0.2,0.4-0.3,0.7-0.2c0.2,0.1,0.3,0.4,0.2,0.7c-0.1,0.2-0.4,0.3-0.7,0.2C40.1,21.8,40,21.5,40.1,21.3z M38,20.3   c0.3,0,0.5,0.2,0.5,0.5c0,0.3-0.2,0.5-0.5,0.5s-0.5-0.2-0.5-0.5C37.6,20.6,37.8,20.3,38,20.3z M35.3,21.1c0.2-0.1,0.5-0.1,0.7,0.2   c0.1,0.2,0.1,0.5-0.2,0.7c-0.2,0.1-0.5,0.1-0.7-0.2C35,21.5,35.1,21.2,35.3,21.1z M38,22.2c2,0,3.6,1.6,3.6,3.6S40,29.5,38,29.5   c-2,0-3.6-1.6-3.6-3.6S36.1,22.2,38,22.2z M40.8,34.4h-5.6c-0.3,0-0.5-0.2-0.5-0.5s0.2-0.5,0.5-0.5h5.6c0.3,0,0.5,0.2,0.5,0.5   S41.1,34.4,40.8,34.4z M41,40.1c-0.1,0.2-0.4,0.3-0.7,0.2c-0.2-0.1-0.3-0.4-0.2-0.7c0.1-0.2,0.4-0.3,0.7-0.2   C41,39.6,41.1,39.9,41,40.1z M38.5,39.2c0,0.3-0.2,0.5-0.5,0.5s-0.5-0.2-0.5-0.5c0-0.3,0.2-0.5,0.5-0.5S38.5,38.9,38.5,39.2z    M35.8,40.3c-0.2,0.1-0.5,0.1-0.7-0.2c-0.1-0.2-0.1-0.5,0.2-0.7c0.2-0.1,0.5-0.1,0.7,0.2C36.1,39.9,36,40.1,35.8,40.3z M35.1,30   c0.1-0.2,0.4-0.3,0.7-0.2c0.2,0.1,0.3,0.4,0.2,0.7c-0.1,0.2-0.4,0.3-0.7,0.2C35.1,30.5,35,30.2,35.1,30z M37.6,30.9   c0-0.3,0.2-0.5,0.5-0.5s0.5,0.2,0.5,0.5s-0.2,0.5-0.5,0.5S37.6,31.1,37.6,30.9z M40.3,29.8c0.2-0.1,0.5-0.1,0.7,0.2   c0.1,0.2,0.1,0.5-0.2,0.7c-0.2,0.1-0.5,0.1-0.7-0.2C40,30.2,40.1,29.9,40.3,29.8z M38,40.6c2,0,3.6,1.6,3.6,3.6S40,47.8,38,47.8   c-2,0-3.6-1.6-3.6-3.6S36.1,40.6,38,40.6z M33.3,23.1c0.1-0.2,0.4-0.3,0.7-0.2c0.2,0.1,0.3,0.4,0.2,0.7c-0.1,0.2-0.4,0.3-0.7,0.2   S33.1,23.3,33.3,23.1z M33,25.4c0.3,0,0.5,0.2,0.5,0.5s-0.2,0.5-0.5,0.5s-0.5-0.2-0.5-0.5S32.7,25.4,33,25.4z M33,43.7   c0.3,0,0.5,0.2,0.5,0.5s-0.2,0.5-0.5,0.5s-0.5-0.2-0.5-0.5S32.7,43.7,33,43.7z"/><path d="M38,28.5c1.4,0,2.6-1.2,2.6-2.6s-1.2-2.6-2.6-2.6c-1.4,0-2.6,1.2-2.6,2.6S36.6,28.5,38,28.5z"/><circle cx="53.8" cy="58.7" r="1"/><path d="M38,46.8c1.4,0,2.6-1.2,2.6-2.6s-1.2-2.6-2.6-2.6c-1.4,0-2.6,1.2-2.6,2.6S36.6,46.8,38,46.8z"/><path d="M78,65.5h15.3V18.3H78V65.5z M81.3,47.1c-0.2,0.1-0.5,0.1-0.7-0.2c-0.1-0.2-0.1-0.5,0.2-0.7c0.2-0.1,0.5-0.1,0.7,0.2   C81.6,46.7,81.5,47,81.3,47.1z M80.6,41.5c0.1-0.2,0.4-0.3,0.7-0.2c0.2,0.1,0.3,0.4,0.2,0.7c-0.1,0.2-0.4,0.3-0.7,0.2   C80.6,42,80.5,41.7,80.6,41.5z M80.8,27.9c0.2-0.1,0.5-0.1,0.7,0.2c0.1,0.2,0.1,0.5-0.2,0.7c-0.2,0.1-0.5,0.1-0.7-0.2   C80.5,28.4,80.6,28.1,80.8,27.9z M85.4,60.7c-1.1,0-2-0.9-2-2s0.9-2,2-2s2,0.9,2,2S86.5,60.7,85.4,60.7z M87.5,48.8   c-0.1-0.2-0.1-0.5,0.2-0.7s0.5-0.1,0.7,0.2c0.1,0.2,0.1,0.5-0.2,0.7C87.9,49.1,87.6,49,87.5,48.8z M90.2,47   c-0.1,0.2-0.4,0.3-0.7,0.2c-0.2-0.1-0.3-0.4-0.2-0.7c0.1-0.2,0.4-0.3,0.7-0.2C90.2,46.4,90.3,46.7,90.2,47z M90.4,44.7   c-0.3,0-0.5-0.2-0.5-0.5s0.2-0.5,0.5-0.5s0.5,0.2,0.5,0.5S90.7,44.7,90.4,44.7z M90.9,25.8c0,0.3-0.2,0.5-0.5,0.5s-0.5-0.2-0.5-0.5   s0.2-0.5,0.5-0.5S90.9,25.6,90.9,25.8z M90.2,28.6c-0.1,0.2-0.4,0.3-0.7,0.2c-0.2-0.1-0.3-0.4-0.2-0.7c0.1-0.2,0.4-0.3,0.7-0.2   C90.2,28.1,90.3,28.4,90.2,28.6z M89.5,22.9c0.2-0.1,0.5-0.1,0.7,0.2c0.1,0.2,0.1,0.5-0.2,0.7c-0.2,0.1-0.5,0.1-0.7-0.2   C89.2,23.3,89.3,23.1,89.5,22.9z M89.5,41.3c0.2-0.1,0.5-0.1,0.7,0.2c0.1,0.2,0.1,0.5-0.2,0.7c-0.2,0.1-0.5,0.1-0.7-0.2   C89.2,41.7,89.3,41.4,89.5,41.3z M89.3,52.2c0,0.3-0.2,0.5-0.5,0.5h-0.4c-0.3,0-0.5-0.2-0.5-0.5s0.2-0.5,0.5-0.5h0.4   C89.1,51.7,89.3,51.9,89.3,52.2z M87.5,21.3c0.1-0.2,0.4-0.3,0.7-0.2c0.2,0.1,0.3,0.4,0.2,0.7c-0.1,0.2-0.4,0.3-0.7,0.2   C87.4,21.8,87.4,21.5,87.5,21.3z M85.4,20.3c0.3,0,0.5,0.2,0.5,0.5c0,0.3-0.2,0.5-0.5,0.5c-0.3,0-0.5-0.2-0.5-0.5   C84.9,20.6,85.1,20.3,85.4,20.3z M82.6,21.1c0.2-0.1,0.5-0.1,0.7,0.2c0.1,0.2,0.1,0.5-0.2,0.7c-0.2,0.1-0.5,0.1-0.7-0.2   C82.3,21.5,82.4,21.2,82.6,21.1z M85.4,22.2c2,0,3.6,1.6,3.6,3.6s-1.6,3.6-3.6,3.6c-2,0-3.6-1.6-3.6-3.6S83.4,22.2,85.4,22.2z    M83,34.4c-0.3,0-0.5-0.2-0.5-0.5s0.2-0.5,0.5-0.5h1.6c0.3,0,0.5,0.2,0.5,0.5s-0.2,0.5-0.5,0.5H83z M83.1,40.3   c-0.2,0.1-0.5,0.1-0.7-0.2c-0.1-0.2-0.1-0.5,0.2-0.7c0.2-0.1,0.5-0.1,0.7,0.2C83.4,39.9,83.4,40.1,83.1,40.3z M82.5,30   c0.1-0.2,0.4-0.3,0.7-0.2c0.2,0.1,0.3,0.4,0.2,0.7c-0.1,0.2-0.4,0.3-0.7,0.2C82.4,30.5,82.3,30.2,82.5,30z M84.9,30.9   c0-0.3,0.2-0.5,0.5-0.5c0.3,0,0.5,0.2,0.5,0.5s-0.2,0.5-0.5,0.5C85.1,31.4,84.9,31.1,84.9,30.9z M85.4,38.7c0.3,0,0.5,0.2,0.5,0.5   c0,0.3-0.2,0.5-0.5,0.5s-0.5-0.2-0.5-0.5C84.9,38.9,85.1,38.7,85.4,38.7z M85.7,33.9c0-0.3,0.2-0.5,0.5-0.5h1.6   c0.3,0,0.5,0.2,0.5,0.5s-0.2,0.5-0.5,0.5h-1.6C85.9,34.4,85.7,34.2,85.7,33.9z M87.5,39.6c0.1-0.2,0.4-0.3,0.7-0.2   c0.2,0.1,0.3,0.4,0.2,0.7c-0.1,0.2-0.4,0.3-0.7,0.2S87.4,39.9,87.5,39.6z M88.1,30.6c-0.2,0.1-0.5,0.1-0.7-0.2   c-0.1-0.2-0.1-0.5,0.2-0.7c0.2-0.1,0.5-0.1,0.7,0.2C88.5,30.2,88.4,30.5,88.1,30.6z M85.4,40.6c2,0,3.6,1.6,3.6,3.6   s-1.6,3.6-3.6,3.6s-3.6-1.6-3.6-3.6S83.4,40.6,85.4,40.6z M85.9,49.2c0,0.3-0.2,0.5-0.5,0.5s-0.5-0.2-0.5-0.5s0.2-0.5,0.5-0.5   S85.9,49,85.9,49.2z M83.3,48.8c-0.1,0.2-0.4,0.3-0.7,0.2c-0.2-0.1-0.3-0.4-0.2-0.7c0.1-0.2,0.4-0.3,0.7-0.2   C83.4,48.3,83.4,48.6,83.3,48.8z M81.9,51.7h4.8c0.3,0,0.5,0.2,0.5,0.5s-0.2,0.5-0.5,0.5h-4.8c-0.3,0-0.5-0.2-0.5-0.5   S81.7,51.7,81.9,51.7z M80.6,23.1c0.1-0.2,0.4-0.3,0.7-0.2c0.2,0.1,0.3,0.4,0.2,0.7c-0.1,0.2-0.4,0.3-0.7,0.2   C80.6,23.6,80.5,23.3,80.6,23.1z M80.4,25.4c0.3,0,0.5,0.2,0.5,0.5s-0.2,0.5-0.5,0.5s-0.5-0.2-0.5-0.5S80.1,25.4,80.4,25.4z    M80.4,43.7c0.3,0,0.5,0.2,0.5,0.5s-0.2,0.5-0.5,0.5s-0.5-0.2-0.5-0.5S80.1,43.7,80.4,43.7z"/><path d="M10.6,80.5H18v-7.3h-7.4V80.5z M14.2,75.2c1,0,1.7,0.8,1.7,1.7s-0.8,1.7-1.7,1.7s-1.7-0.8-1.7-1.7S13.3,75.2,14.2,75.2z"/><path d="M6.7,65.5h23.5V18.3H6.7V65.5z M22.5,29.2v-6.4c0-0.3,0.2-0.5,0.5-0.5s0.5,0.2,0.5,0.5v6.4c0.7,0.2,1.2,0.8,1.2,1.6   s-0.5,1.4-1.2,1.6v2.4c0,0.3-0.2,0.5-0.5,0.5s-0.5-0.2-0.5-0.5v-2.4c-0.7-0.2-1.2-0.8-1.2-1.6S21.8,29.5,22.5,29.2z M22.5,41.9v-1   c0-0.3,0.2-0.5,0.5-0.5s0.5,0.2,0.5,0.5v1c0.7,0.2,1.2,0.8,1.2,1.6s-0.5,1.4-1.2,1.6v7.8c0,0.3-0.2,0.5-0.5,0.5s-0.5-0.2-0.5-0.5   v-7.8c-0.7-0.2-1.2-0.8-1.2-1.6S21.8,42.1,22.5,41.9z M18.4,22.3c0.9,0,1.7,0.7,1.7,1.7c0,0.7-0.5,1.4-1.2,1.6v9.2   c0,0.3-0.2,0.5-0.5,0.5s-0.5-0.2-0.5-0.5v-9.2c-0.7-0.2-1.2-0.8-1.2-1.6C16.8,23.1,17.5,22.3,18.4,22.3z M17.9,45.3v-4.4   c0-0.3,0.2-0.5,0.5-0.5s0.5,0.2,0.5,0.5v4.4c0.7,0.2,1.2,0.8,1.2,1.6s-0.5,1.4-1.2,1.6v4.4c0,0.3-0.2,0.5-0.5,0.5s-0.5-0.2-0.5-0.5   v-4.4c-0.7-0.2-1.2-0.8-1.2-1.6S17.3,45.5,17.9,45.3z M13.4,25.8v-3c0-0.3,0.2-0.5,0.5-0.5s0.5,0.2,0.5,0.5v3   c0.7,0.2,1.2,0.8,1.2,1.6S15,28.8,14.4,29v5.8c0,0.3-0.2,0.5-0.5,0.5s-0.5-0.2-0.5-0.5V29c-0.7-0.2-1.2-0.8-1.2-1.6   S12.7,26,13.4,25.8z M13.4,41.9v-1c0-0.3,0.2-0.5,0.5-0.5s0.5,0.2,0.5,0.5v1c0.7,0.2,1.2,0.8,1.2,1.6s-0.5,1.4-1.2,1.6v7.8   c0,0.3-0.2,0.5-0.5,0.5s-0.5-0.2-0.5-0.5v-7.8c-0.7-0.2-1.2-0.8-1.2-1.6S12.7,42.1,13.4,41.9z M10.1,59.7h16.7   c0.3,0,0.5,0.2,0.5,0.5s-0.2,0.5-0.5,0.5H10.1c-0.3,0-0.5-0.2-0.5-0.5S9.8,59.7,10.1,59.7z"/><path d="M19,80.5h7.3v-7.3H19V80.5z M21.6,76.1c0-0.2,0.1-0.4,0.3-0.4c0.2-0.1,0.4-0.1,0.5,0l1.1,0.8c0.1,0.1,0.2,0.2,0.2,0.4   s-0.1,0.3-0.2,0.4l-1.1,0.8c-0.1,0.1-0.2,0.1-0.3,0.1c-0.1,0-0.2,0-0.2-0.1c-0.2-0.1-0.3-0.3-0.3-0.4V76.1z"/><path d="M98.4,12.7H1.6c-0.3,0-0.5,0.2-0.5,0.5v73.6c0,0.3,0.2,0.5,0.5,0.5h96.8c0.3,0,0.5-0.2,0.5-0.5V13.2   C98.9,12.9,98.7,12.7,98.4,12.7z M2.9,86.1c-0.4,0-0.7-0.3-0.7-0.7c0-0.4,0.3-0.7,0.7-0.7s0.7,0.3,0.7,0.7   C3.6,85.8,3.3,86.1,2.9,86.1z M2.9,15.1c-0.4,0-0.7-0.3-0.7-0.7c0-0.4,0.3-0.7,0.7-0.7s0.7,0.3,0.7,0.7C3.6,14.8,3.3,15.1,2.9,15.1   z M27.3,81c0,0.3-0.2,0.5-0.5,0.5h0h-8.3h-8.4c-0.3,0-0.5-0.2-0.5-0.5v-8.3c0-0.3,0.2-0.5,0.5-0.5h8.4h8.3h0c0.3,0,0.5,0.2,0.5,0.5   V81z M36.5,78.4c0,0.3-0.2,0.5-0.5,0.5h-3c-0.3,0-0.5-0.2-0.5-0.5v-3c0-0.3,0.2-0.5,0.5-0.5h3c0.3,0,0.5,0.2,0.5,0.5V78.4z    M44.3,78.4c0,0.3-0.2,0.5-0.5,0.5h-3c-0.3,0-0.5-0.2-0.5-0.5v-3c0-0.3,0.2-0.5,0.5-0.5h3c0.3,0,0.5,0.2,0.5,0.5V78.4z M52,78.4   c0,0.3-0.2,0.5-0.5,0.5h-3c-0.3,0-0.5-0.2-0.5-0.5v-3c0-0.3,0.2-0.5,0.5-0.5h3c0.3,0,0.5,0.2,0.5,0.5V78.4z M59.8,78.4   c0,0.3-0.2,0.5-0.5,0.5h-3c-0.3,0-0.5-0.2-0.5-0.5v-3c0-0.3,0.2-0.5,0.5-0.5h3c0.3,0,0.5,0.2,0.5,0.5V78.4z M67.6,78.4   c0,0.3-0.2,0.5-0.5,0.5h-3c-0.3,0-0.5-0.2-0.5-0.5v-3c0-0.3,0.2-0.5,0.5-0.5h3c0.3,0,0.5,0.2,0.5,0.5V78.4z M75.4,78.4   c0,0.3-0.2,0.5-0.5,0.5h-3c-0.3,0-0.5-0.2-0.5-0.5v-3c0-0.3,0.2-0.5,0.5-0.5h3c0.3,0,0.5,0.2,0.5,0.5V78.4z M83.1,78.4   c0,0.3-0.2,0.5-0.5,0.5h-3c-0.3,0-0.5-0.2-0.5-0.5v-3c0-0.3,0.2-0.5,0.5-0.5h3c0.3,0,0.5,0.2,0.5,0.5V78.4z M90.9,78.4   c0,0.3-0.2,0.5-0.5,0.5h-3c-0.3,0-0.5-0.2-0.5-0.5v-3c0-0.3,0.2-0.5,0.5-0.5h3c0.3,0,0.5,0.2,0.5,0.5V78.4z M94.3,66   c0,0.3-0.2,0.5-0.5,0.5H77.5H30.7c0,0,0,0,0,0s0,0,0,0H6.2c-0.3,0-0.5-0.2-0.5-0.5V17.8c0-0.3,0.2-0.5,0.5-0.5h24.5c0,0,0,0,0,0   s0,0,0,0h46.8h16.3c0.3,0,0.5,0.2,0.5,0.5V66z M97.1,86.1c-0.4,0-0.7-0.3-0.7-0.7c0-0.4,0.3-0.7,0.7-0.7s0.7,0.3,0.7,0.7   C97.7,85.8,97.4,86.1,97.1,86.1z M97.1,15.1c-0.4,0-0.7-0.3-0.7-0.7c0-0.4,0.3-0.7,0.7-0.7s0.7,0.3,0.7,0.7   C97.7,14.8,97.4,15.1,97.1,15.1z"/><path d="M13.9,28.1c0.2,0,0.4-0.1,0.5-0.2c0.1-0.1,0.2-0.3,0.2-0.4s-0.1-0.3-0.2-0.4c-0.1-0.1-0.3-0.2-0.5-0.2   c-0.2,0-0.4,0.1-0.5,0.2c-0.1,0.1-0.2,0.3-0.2,0.4s0.1,0.3,0.2,0.4C13.5,28,13.7,28.1,13.9,28.1z"/><path d="M23,31.5c0.2,0,0.4-0.1,0.5-0.2c0.1-0.1,0.2-0.3,0.2-0.4s-0.1-0.3-0.2-0.4c-0.1-0.1-0.3-0.2-0.5-0.2s-0.4,0.1-0.5,0.2   c-0.1,0.1-0.2,0.3-0.2,0.4s0.1,0.3,0.2,0.4C22.6,31.4,22.8,31.5,23,31.5z"/><path d="M18.4,24.7c0.2,0,0.4-0.1,0.5-0.2c0.1-0.1,0.2-0.3,0.2-0.4s-0.1-0.3-0.2-0.4c-0.1-0.1-0.3-0.2-0.5-0.2s-0.4,0.1-0.5,0.2   c-0.1,0.1-0.2,0.3-0.2,0.4s0.1,0.3,0.2,0.4C18,24.6,18.2,24.7,18.4,24.7z"/><path d="M13.9,44.1c0.2,0,0.4-0.1,0.5-0.2c0.1-0.1,0.2-0.3,0.2-0.4s-0.1-0.3-0.2-0.4c-0.1-0.1-0.3-0.2-0.5-0.2   c-0.2,0-0.4,0.1-0.5,0.2c-0.1,0.1-0.2,0.3-0.2,0.4s0.1,0.3,0.2,0.4C13.5,44,13.7,44.1,13.9,44.1z"/><path d="M23,44.1c0.2,0,0.4-0.1,0.5-0.2c0.1-0.1,0.2-0.3,0.2-0.4s-0.1-0.3-0.2-0.4c-0.1-0.1-0.3-0.2-0.5-0.2s-0.4,0.1-0.5,0.2   c-0.1,0.1-0.2,0.3-0.2,0.4s0.1,0.3,0.2,0.4C22.6,44,22.8,44.1,23,44.1z"/><path d="M18.4,47.6c0.2,0,0.4-0.1,0.5-0.2c0.1-0.1,0.2-0.3,0.2-0.4s-0.1-0.3-0.2-0.4c-0.1-0.1-0.3-0.2-0.5-0.2s-0.4,0.1-0.5,0.2   c-0.1,0.1-0.2,0.3-0.2,0.4s0.1,0.3,0.2,0.4C18,47.5,18.2,47.6,18.4,47.6z"/></g></svg>
