<svg xmlns="http://www.w3.org/2000/svg" xmlns:xlink="http://www.w3.org/1999/xlink" version="1.1" x="0px" y="0px" viewBox="0 0 100 125" style="enable-background:new 0 0 100 100;" xml:space="preserve"><g><path d="M40.1,64.6c0.6-0.6,0.9-1.3,0.9-2.1c0-0.6-0.2-1.2-0.5-1.7l-1.9,1.9c-0.1,0.1-0.2,0.1-0.4,0.1s-0.3,0-0.4-0.1   c-0.2-0.2-0.2-0.5,0-0.7l1.9-1.9c-0.5-0.4-1.1-0.5-1.7-0.5c-0.8,0-1.5,0.3-2.1,0.9c-0.6,0.6-0.9,1.3-0.9,2.1c0,0.8,0.3,1.5,0.9,2.1   C37.1,65.8,39,65.8,40.1,64.6z"/><ellipse cx="69.6" cy="14.3" rx="2.6" ry="2.6"/><path d="M69.6,46.2c-0.5,0-1,0.4-1,1s0.4,1,1,1c0.5,0,1-0.4,1-1S70.1,46.2,69.6,46.2z"/><path d="M78,54h15.4V6.8H78V54z M81.3,35.6c-0.2,0.1-0.5,0.1-0.7-0.2c-0.1-0.2-0.1-0.5,0.2-0.7c0.2-0.1,0.5-0.1,0.7,0.2   C81.6,35.2,81.5,35.5,81.3,35.6z M80.6,29.9c0.1-0.2,0.4-0.3,0.7-0.2c0.2,0.1,0.3,0.4,0.2,0.7c-0.1,0.2-0.4,0.3-0.7,0.2   C80.6,30.5,80.5,30.2,80.6,29.9z M80.8,16.4c0.2-0.1,0.5-0.1,0.7,0.2c0.1,0.2,0.1,0.5-0.2,0.7c-0.2,0.1-0.5,0.1-0.7-0.2   C80.5,16.8,80.6,16.5,80.8,16.4z M85.4,49.1c-1.1,0-2-0.9-2-2s0.9-2,2-2s2,0.9,2,2S86.5,49.1,85.4,49.1z M87.5,37.3   c-0.1-0.2-0.1-0.5,0.2-0.7s0.5-0.1,0.7,0.2c0.1,0.2,0.1,0.5-0.2,0.7C87.9,37.6,87.6,37.5,87.5,37.3z M90.1,35.4   c-0.1,0.2-0.4,0.3-0.7,0.2c-0.2-0.1-0.3-0.4-0.2-0.7c0.1-0.2,0.4-0.3,0.7-0.2C90.2,34.9,90.3,35.2,90.1,35.4z M90.4,33.2   c-0.3,0-0.5-0.2-0.5-0.5c0-0.3,0.2-0.5,0.5-0.5s0.5,0.2,0.5,0.5C90.9,33,90.7,33.2,90.4,33.2z M90.9,14.3c0,0.3-0.2,0.5-0.5,0.5   s-0.5-0.2-0.5-0.5c0-0.3,0.2-0.5,0.5-0.5S90.9,14.1,90.9,14.3z M90.1,17.1c-0.1,0.2-0.4,0.3-0.7,0.2c-0.2-0.1-0.3-0.4-0.2-0.7   c0.1-0.2,0.4-0.3,0.7-0.2C90.2,16.6,90.3,16.8,90.1,17.1z M89.5,11.4c0.2-0.1,0.5-0.1,0.7,0.2c0.1,0.2,0.1,0.5-0.2,0.7   c-0.2,0.1-0.5,0.1-0.7-0.2C89.2,11.8,89.3,11.5,89.5,11.4z M89.5,29.8c0.2-0.1,0.5-0.1,0.7,0.2c0.1,0.2,0.1,0.5-0.2,0.7   c-0.2,0.1-0.5,0.1-0.7-0.2C89.2,30.2,89.3,29.9,89.5,29.8z M89.3,40.7c0,0.3-0.2,0.5-0.5,0.5h-0.4c-0.3,0-0.5-0.2-0.5-0.5   s0.2-0.5,0.5-0.5h0.4C89.1,40.2,89.3,40.4,89.3,40.7z M87.5,9.7c0.1-0.2,0.4-0.3,0.7-0.2c0.2,0.1,0.3,0.4,0.2,0.7   c-0.1,0.2-0.4,0.3-0.7,0.2S87.3,10,87.5,9.7z M85.4,8.8c0.3,0,0.5,0.2,0.5,0.5c0,0.3-0.2,0.5-0.5,0.5s-0.5-0.2-0.5-0.5   C84.9,9,85.1,8.8,85.4,8.8z M82.6,9.6c0.2-0.1,0.5-0.1,0.7,0.2c0.1,0.2,0.1,0.5-0.2,0.7c-0.2,0.1-0.5,0.1-0.7-0.2   C82.3,10,82.4,9.7,82.6,9.6z M85.4,10.7c2,0,3.6,1.6,3.6,3.6s-1.6,3.6-3.6,3.6s-3.6-1.6-3.6-3.6S83.4,10.7,85.4,10.7z M83,22.9   c-0.3,0-0.5-0.2-0.5-0.5s0.2-0.5,0.5-0.5h1.6c0.3,0,0.5,0.2,0.5,0.5s-0.2,0.5-0.5,0.5H83z M83.1,28.8c-0.2,0.1-0.5,0.1-0.7-0.2   c-0.1-0.2-0.1-0.5,0.2-0.7c0.2-0.1,0.5-0.1,0.7,0.2C83.4,28.3,83.3,28.6,83.1,28.8z M82.4,18.4c0.1-0.2,0.4-0.3,0.7-0.2   c0.2,0.1,0.3,0.4,0.2,0.7c-0.1,0.2-0.4,0.3-0.7,0.2C82.4,19,82.3,18.7,82.4,18.4z M84.9,19.3c0-0.3,0.2-0.5,0.5-0.5   s0.5,0.2,0.5,0.5s-0.2,0.5-0.5,0.5S84.9,19.6,84.9,19.3z M85.4,27.2c0.3,0,0.5,0.2,0.5,0.5c0,0.3-0.2,0.5-0.5,0.5s-0.5-0.2-0.5-0.5   C84.9,27.4,85.1,27.2,85.4,27.2z M85.7,22.4c0-0.3,0.2-0.5,0.5-0.5h1.6c0.3,0,0.5,0.2,0.5,0.5s-0.2,0.5-0.5,0.5h-1.6   C85.9,22.9,85.7,22.6,85.7,22.4z M87.5,28.1c0.1-0.2,0.4-0.3,0.7-0.2c0.2,0.1,0.3,0.4,0.2,0.7c-0.1,0.2-0.4,0.3-0.7,0.2   S87.3,28.3,87.5,28.1z M88.1,19.1c-0.2,0.1-0.5,0.1-0.7-0.2c-0.1-0.2-0.1-0.5,0.2-0.7s0.5-0.1,0.7,0.2C88.4,18.7,88.4,19,88.1,19.1   z M85.4,29.1c2,0,3.6,1.6,3.6,3.6s-1.6,3.6-3.6,3.6s-3.6-1.6-3.6-3.6S83.4,29.1,85.4,29.1z M85.9,37.7c0,0.3-0.2,0.5-0.5,0.5   s-0.5-0.2-0.5-0.5s0.2-0.5,0.5-0.5S85.9,37.4,85.9,37.7z M83.3,37.3c-0.1,0.2-0.4,0.3-0.7,0.2c-0.2-0.1-0.3-0.4-0.2-0.7   c0.1-0.2,0.4-0.3,0.7-0.2C83.3,36.8,83.4,37.1,83.3,37.3z M81.9,40.2h4.8c0.3,0,0.5,0.2,0.5,0.5s-0.2,0.5-0.5,0.5h-4.8   c-0.3,0-0.5-0.2-0.5-0.5S81.6,40.2,81.9,40.2z M80.6,11.6c0.1-0.2,0.4-0.3,0.7-0.2c0.2,0.1,0.3,0.4,0.2,0.7   c-0.1,0.2-0.4,0.3-0.7,0.2C80.6,12.1,80.5,11.8,80.6,11.6z M80.4,13.8c0.3,0,0.5,0.2,0.5,0.5c0,0.3-0.2,0.5-0.5,0.5   s-0.5-0.2-0.5-0.5C79.9,14.1,80.1,13.8,80.4,13.8z M80.4,32.2c0.3,0,0.5,0.2,0.5,0.5c0,0.3-0.2,0.5-0.5,0.5s-0.5-0.2-0.5-0.5   C79.9,32.4,80.1,32.2,80.4,32.2z"/><circle cx="38" cy="47.2" r="1"/><ellipse cx="53.8" cy="32.7" rx="2.6" ry="2.6"/><ellipse cx="38" cy="14.3" rx="2.6" ry="2.6"/><ellipse cx="38" cy="32.7" rx="2.6" ry="2.6"/><ellipse cx="85.4" cy="32.7" rx="2.6" ry="2.6"/><ellipse cx="53.8" cy="14.3" rx="2.6" ry="2.6"/><path d="M69.8,62h2.7c-0.2-1.4-1.4-2.5-2.9-2.5c-1.6,0-3,1.3-3,3s1.3,3,3,3c1.5,0,2.7-1.1,2.9-2.5h-2.7c-0.3,0-0.5-0.2-0.5-0.5   S69.5,62,69.8,62z"/><path d="M87.1,64.9L85.1,63c-0.2-0.2-0.2-0.5,0-0.7s0.5-0.2,0.7,0l1.9,1.9c0.4-0.5,0.5-1.1,0.5-1.7c0-0.8-0.3-1.5-0.9-2.1   c-0.6-0.6-1.3-0.9-2.1-0.9c-0.8,0-1.5,0.3-2.1,0.9c-0.6,0.6-0.9,1.3-0.9,2.1c0,0.8,0.3,1.5,0.9,2.1C84.3,65.6,85.9,65.7,87.1,64.9z   "/><path d="M30.1,70.1h31.1V55H30.1V70.1z M58.1,66.1l0.2,0.2c0.2,0.2,0.2,0.5,0,0.7c-0.1,0.1-0.2,0.1-0.4,0.1s-0.3,0-0.4-0.1   l-0.2-0.2c-0.2-0.2-0.2-0.5,0-0.7S57.9,65.9,58.1,66.1z M53.8,58.6C53.8,58.6,53.8,58.6,53.8,58.6C53.8,58.6,53.8,58.6,53.8,58.6   c2.2,0,4,1.8,4,4c0,2.2-1.8,4-4,4s-4-1.8-4-4C49.9,60.4,51.6,58.6,53.8,58.6z M49.3,66.3l0.2-0.2c0.2-0.2,0.5-0.2,0.7,0   c0.2,0.2,0.2,0.5,0,0.7L50,67.1c-0.1,0.1-0.2,0.1-0.4,0.1s-0.3,0-0.4-0.1C49.1,66.9,49.1,66.5,49.3,66.3z M42.3,66.1l0.2,0.2   c0.2,0.2,0.2,0.5,0,0.7c-0.1,0.1-0.2,0.1-0.4,0.1s-0.3,0-0.4-0.1l-0.2-0.2c-0.2-0.2-0.2-0.5,0-0.7S42.1,65.9,42.3,66.1z M35.2,59.7   c1.5-1.5,4-1.5,5.6,0c0.7,0.7,1.2,1.7,1.2,2.8c0,1.1-0.4,2-1.2,2.8C40,66.1,39,66.5,38,66.5s-2-0.4-2.8-1.2   c-0.7-0.7-1.2-1.7-1.2-2.8C34.1,61.5,34.5,60.5,35.2,59.7z M33.5,66.3l0.2-0.2c0.2-0.2,0.5-0.2,0.7,0s0.2,0.5,0,0.7l-0.2,0.2   c-0.1,0.1-0.2,0.1-0.4,0.1s-0.3,0-0.4-0.1C33.3,66.9,33.3,66.5,33.5,66.3z"/><path d="M53.8,65.5c1.6,0,3-1.3,3-3c0-1.5-1.1-2.7-2.5-2.9v2.7c0,0.3-0.2,0.5-0.5,0.5s-0.5-0.2-0.5-0.5v-2.7   c-1.4,0.2-2.5,1.4-2.5,2.9C50.9,64.2,52.2,65.5,53.8,65.5z"/><path d="M77.5,55C77.5,55,77.5,55,77.5,55l-15.3,0v15.1h31.1V55L77.5,55C77.5,55,77.5,55,77.5,55z M66,66.8l-0.2,0.2   c-0.1,0.1-0.2,0.1-0.4,0.1s-0.3,0-0.4-0.1c-0.2-0.2-0.2-0.5,0-0.7l0.2-0.2c0.2-0.2,0.5-0.2,0.7,0S66.2,66.6,66,66.8z M69.6,66.5   c-2.2,0-4-1.8-4-4s1.8-4,4-4c2.2,0,4,1.8,4,3.9c0,0,0,0,0,0c0,0,0,0,0,0C73.5,64.7,71.8,66.5,69.6,66.5z M74.1,67.1   c-0.1,0.1-0.2,0.1-0.4,0.1s-0.3,0-0.4-0.1l-0.2-0.2c-0.2-0.2-0.2-0.5,0-0.7s0.5-0.2,0.7,0l0.2,0.2C74.3,66.5,74.3,66.9,74.1,67.1z    M89.7,66.1l0.2,0.2c0.2,0.2,0.2,0.5,0,0.7c-0.1,0.1-0.2,0.1-0.4,0.1s-0.3,0-0.4-0.1L89,66.8c-0.2-0.2-0.2-0.5,0-0.7   S89.5,65.9,89.7,66.1z M82.6,59.7c1.5-1.5,4-1.5,5.6,0c0.7,0.7,1.2,1.7,1.2,2.8c0,1.1-0.4,2-1.2,2.8c-0.8,0.8-1.8,1.2-2.8,1.2   c-1,0-2-0.4-2.8-1.2c-0.7-0.7-1.2-1.7-1.2-2.8C81.4,61.5,81.8,60.5,82.6,59.7z M80.9,66.3l0.2-0.2c0.2-0.2,0.5-0.2,0.7,0   s0.2,0.5,0,0.7l-0.2,0.2c-0.1,0.1-0.2,0.1-0.4,0.1s-0.3,0-0.4-0.1C80.7,66.9,80.7,66.5,80.9,66.3z"/><circle cx="53.8" cy="47.2" r="1"/><ellipse cx="85.4" cy="14.3" rx="2.6" ry="2.6"/><circle cx="85.4" cy="47.2" r="1"/><ellipse cx="69.6" cy="32.7" rx="2.6" ry="2.6"/><path d="M77,6.8H30.1V54h31.6H77V6.8z M57.9,11.4c0.2-0.1,0.5-0.1,0.7,0.2c0.1,0.2,0.1,0.5-0.2,0.7c-0.2,0.1-0.5,0.1-0.7-0.2   C57.6,11.8,57.7,11.5,57.9,11.4z M58.4,16.4c0.2,0.1,0.3,0.4,0.2,0.7c-0.1,0.2-0.4,0.3-0.7,0.2c-0.2-0.1-0.3-0.4-0.2-0.7   C57.9,16.4,58.2,16.3,58.4,16.4z M55.9,9.7c0.1-0.2,0.4-0.3,0.7-0.2c0.2,0.1,0.3,0.4,0.2,0.7c-0.1,0.2-0.4,0.3-0.7,0.2   C55.8,10.3,55.8,10,55.9,9.7z M53.8,8.8c0.3,0,0.5,0.2,0.5,0.5c0,0.3-0.2,0.5-0.5,0.5s-0.5-0.2-0.5-0.5C53.3,9,53.5,8.8,53.8,8.8z    M51.1,9.6c0.2-0.1,0.5-0.1,0.7,0.2c0.1,0.2,0.1,0.5-0.2,0.7c-0.2,0.1-0.5,0.1-0.7-0.2C50.7,10,50.8,9.7,51.1,9.6z M53.8,10.7   c2,0,3.6,1.6,3.6,3.6s-1.6,3.6-3.6,3.6s-3.6-1.6-3.6-3.6S51.8,10.7,53.8,10.7z M56.7,22.9h-5.9c-0.3,0-0.5-0.2-0.5-0.5   s0.2-0.5,0.5-0.5h5.9c0.3,0,0.5,0.2,0.5,0.5S57,22.9,56.7,22.9z M56.7,28.6c-0.1,0.2-0.4,0.3-0.7,0.2c-0.2-0.1-0.3-0.4-0.2-0.7   c0.1-0.2,0.4-0.3,0.7-0.2C56.8,28.1,56.9,28.4,56.7,28.6z M54.3,27.7c0,0.3-0.2,0.5-0.5,0.5s-0.5-0.2-0.5-0.5   c0-0.3,0.2-0.5,0.5-0.5S54.3,27.4,54.3,27.7z M51.5,28.8c-0.2,0.1-0.5,0.1-0.7-0.2c-0.1-0.2-0.1-0.5,0.2-0.7   c0.2-0.1,0.5-0.1,0.7,0.2C51.8,28.3,51.8,28.6,51.5,28.8z M50.9,18.4c0.1-0.2,0.4-0.3,0.7-0.2c0.2,0.1,0.3,0.4,0.2,0.7   c-0.1,0.2-0.4,0.3-0.7,0.2C50.8,19,50.7,18.7,50.9,18.4z M53.3,19.3c0-0.3,0.2-0.5,0.5-0.5s0.5,0.2,0.5,0.5s-0.2,0.5-0.5,0.5   S53.3,19.6,53.3,19.3z M56.1,18.3c0.2-0.1,0.5-0.1,0.7,0.2c0.1,0.2,0.1,0.5-0.2,0.7c-0.2,0.1-0.5,0.1-0.7-0.2   C55.8,18.7,55.8,18.4,56.1,18.3z M53.8,29.1c2,0,3.6,1.6,3.6,3.6s-1.6,3.6-3.6,3.6s-3.6-1.6-3.6-3.6S51.8,29.1,53.8,29.1z    M56.6,37.5c-0.2,0.1-0.5,0.1-0.7-0.2c-0.1-0.2-0.1-0.5,0.2-0.7c0.2-0.1,0.5-0.1,0.7,0.2C56.9,37,56.8,37.3,56.6,37.5z M54.3,37.7   c0,0.3-0.2,0.5-0.5,0.5s-0.5-0.2-0.5-0.5s0.2-0.5,0.5-0.5S54.3,37.4,54.3,37.7z M51.7,37.3c-0.1,0.2-0.4,0.3-0.7,0.2   c-0.2-0.1-0.3-0.4-0.2-0.7c0.1-0.2,0.4-0.3,0.7-0.2C51.8,36.8,51.8,37.1,51.7,37.3z M48.8,13.8c0.3,0,0.5,0.2,0.5,0.5   c0,0.3-0.2,0.5-0.5,0.5s-0.5-0.2-0.5-0.5C48.3,14.1,48.5,13.8,48.8,13.8z M42.1,11.4c0.2-0.1,0.5-0.1,0.7,0.2   c0.1,0.2,0.1,0.5-0.2,0.7c-0.2,0.1-0.5,0.1-0.7-0.2C41.8,11.8,41.9,11.5,42.1,11.4z M42.6,16.4c0.2,0.1,0.3,0.4,0.2,0.7   c-0.1,0.2-0.4,0.3-0.7,0.2c-0.2-0.1-0.3-0.4-0.2-0.7C42.1,16.4,42.4,16.3,42.6,16.4z M40.1,9.7c0.1-0.2,0.4-0.3,0.7-0.2   c0.2,0.1,0.3,0.4,0.2,0.7c-0.1,0.2-0.4,0.3-0.7,0.2S40,10,40.1,9.7z M38,8.8c0.3,0,0.5,0.2,0.5,0.5c0,0.3-0.2,0.5-0.5,0.5   s-0.5-0.2-0.5-0.5C37.5,9,37.8,8.8,38,8.8z M35.3,9.6c0.2-0.1,0.5-0.1,0.7,0.2c0.1,0.2,0.1,0.5-0.2,0.7c-0.2,0.1-0.5,0.1-0.7-0.2   C35,10,35,9.7,35.3,9.6z M33,13.8c0.3,0,0.5,0.2,0.5,0.5c0,0.3-0.2,0.5-0.5,0.5s-0.5-0.2-0.5-0.5C32.5,14.1,32.7,13.8,33,13.8z    M32.5,32.7c0-0.3,0.2-0.5,0.5-0.5s0.5,0.2,0.5,0.5c0,0.3-0.2,0.5-0.5,0.5S32.5,33,32.5,32.7z M33.9,35.6c-0.2,0.1-0.5,0.1-0.7-0.2   c-0.1-0.2-0.1-0.5,0.2-0.7c0.2-0.1,0.5-0.1,0.7,0.2C34.2,35.2,34.1,35.5,33.9,35.6z M34.1,30.4c-0.1,0.2-0.4,0.3-0.7,0.2   c-0.2-0.1-0.3-0.4-0.2-0.7c0.1-0.2,0.4-0.3,0.7-0.2C34.1,29.9,34.2,30.2,34.1,30.4z M33.9,17.3c-0.2,0.1-0.5,0.1-0.7-0.2   c-0.1-0.2-0.1-0.5,0.2-0.7c0.2-0.1,0.5-0.1,0.7,0.2C34.2,16.8,34.1,17.1,33.9,17.3z M34.1,12.1c-0.1,0.2-0.4,0.3-0.7,0.2   c-0.2-0.1-0.3-0.4-0.2-0.7c0.1-0.2,0.4-0.3,0.7-0.2C34.1,11.5,34.2,11.8,34.1,12.1z M35.9,37.3c-0.1,0.2-0.4,0.3-0.7,0.2   C35,37.3,35,37,35.1,36.8c0.1-0.2,0.4-0.3,0.7-0.2C36,36.8,36.1,37.1,35.9,37.3z M38,49.1c-1.1,0-2-0.9-2-2s0.9-2,2-2s2,0.9,2,2   S39.1,49.1,38,49.1z M39.5,41.2h-3c-0.3,0-0.5-0.2-0.5-0.5s0.2-0.5,0.5-0.5h3c0.3,0,0.5,0.2,0.5,0.5S39.8,41.2,39.5,41.2z    M37.5,37.7c0-0.3,0.2-0.5,0.5-0.5s0.5,0.2,0.5,0.5s-0.2,0.5-0.5,0.5S37.5,38,37.5,37.7z M40.8,37.5c-0.2,0.1-0.5,0.1-0.7-0.2   c-0.1-0.2-0.1-0.5,0.2-0.7s0.5-0.1,0.7,0.2C41.1,37,41,37.3,40.8,37.5z M38,36.3c-2,0-3.6-1.6-3.6-3.6s1.6-3.6,3.6-3.6   s3.6,1.6,3.6,3.6S40,36.3,38,36.3z M35.2,21.9h5.6c0.3,0,0.5,0.2,0.5,0.5s-0.2,0.5-0.5,0.5h-5.6c-0.3,0-0.5-0.2-0.5-0.5   S34.9,21.9,35.2,21.9z M35.1,18.4c0.1-0.2,0.4-0.3,0.7-0.2c0.2,0.1,0.3,0.4,0.2,0.7c-0.1,0.2-0.4,0.3-0.7,0.2   C35,19,35,18.7,35.1,18.4z M37.5,19.3c0-0.3,0.2-0.5,0.5-0.5s0.5,0.2,0.5,0.5s-0.2,0.5-0.5,0.5S37.5,19.6,37.5,19.3z M40.3,18.3   c0.2-0.1,0.5-0.1,0.7,0.2c0.1,0.2,0.1,0.5-0.2,0.7c-0.2,0.1-0.5,0.1-0.7-0.2C40,18.7,40.1,18.4,40.3,18.3z M40.9,28.6   c-0.1,0.2-0.4,0.3-0.7,0.2s-0.3-0.4-0.2-0.7c0.1-0.2,0.4-0.3,0.7-0.2C41,28.1,41.1,28.4,40.9,28.6z M38.5,27.7   c0,0.3-0.2,0.5-0.5,0.5s-0.5-0.2-0.5-0.5c0-0.3,0.2-0.5,0.5-0.5S38.5,27.4,38.5,27.7z M35.7,28.8c-0.2,0.1-0.5,0.1-0.7-0.2   c-0.1-0.2-0.1-0.5,0.2-0.7c0.2-0.1,0.5-0.1,0.7,0.2C36.1,28.3,36,28.6,35.7,28.8z M38,17.9c-2,0-3.6-1.6-3.6-3.6s1.6-3.6,3.6-3.6   s3.6,1.6,3.6,3.6S40,17.9,38,17.9z M42.1,29.8c0.2-0.1,0.5-0.1,0.7,0.2c0.1,0.2,0.1,0.5-0.2,0.7c-0.2,0.1-0.5,0.1-0.7-0.2   C41.8,30.2,41.9,29.9,42.1,29.8z M42.8,35.4c-0.1,0.2-0.4,0.3-0.7,0.2c-0.2-0.1-0.3-0.4-0.2-0.7c0.1-0.2,0.4-0.3,0.7-0.2   C42.8,34.9,42.9,35.2,42.8,35.4z M43,33.2c-0.3,0-0.5-0.2-0.5-0.5c0-0.3,0.2-0.5,0.5-0.5s0.5,0.2,0.5,0.5   C43.5,33,43.3,33.2,43,33.2z M43,14.8c-0.3,0-0.5-0.2-0.5-0.5c0-0.3,0.2-0.5,0.5-0.5s0.5,0.2,0.5,0.5C43.5,14.6,43.3,14.8,43,14.8z    M48.3,32.7c0-0.3,0.2-0.5,0.5-0.5s0.5,0.2,0.5,0.5c0,0.3-0.2,0.5-0.5,0.5S48.3,33,48.3,32.7z M49.7,35.6c-0.2,0.1-0.5,0.1-0.7-0.2   c-0.1-0.2-0.1-0.5,0.2-0.7c0.2-0.1,0.5-0.1,0.7,0.2C50,35.2,49.9,35.5,49.7,35.6z M49.9,30.4c-0.1,0.2-0.4,0.3-0.7,0.2   s-0.3-0.4-0.2-0.7c0.1-0.2,0.4-0.3,0.7-0.2C49.9,29.9,50,30.2,49.9,30.4z M49.7,17.3c-0.2,0.1-0.5,0.1-0.7-0.2   c-0.1-0.2-0.1-0.5,0.2-0.7c0.2-0.1,0.5-0.1,0.7,0.2C50,16.8,49.9,17.1,49.7,17.3z M49.9,12.1c-0.1,0.2-0.4,0.3-0.7,0.2   s-0.3-0.4-0.2-0.7c0.1-0.2,0.4-0.3,0.7-0.2C49.9,11.5,50,11.8,49.9,12.1z M50.2,40.7c0-0.3,0.2-0.5,0.5-0.5h1.6   c0.3,0,0.5,0.2,0.5,0.5s-0.2,0.5-0.5,0.5h-1.6C50.4,41.2,50.2,41,50.2,40.7z M53.8,49.1c-1.1,0-2-0.9-2-2s0.9-2,2-2s2,0.9,2,2   S54.9,49.1,53.8,49.1z M56.9,41.2h-3c-0.3,0-0.5-0.2-0.5-0.5s0.2-0.5,0.5-0.5h3c0.3,0,0.5,0.2,0.5,0.5S57.2,41.2,56.9,41.2z    M57.9,29.8c0.2-0.1,0.5-0.1,0.7,0.2c0.1,0.2,0.1,0.5-0.2,0.7c-0.2,0.1-0.5,0.1-0.7-0.2C57.6,30.2,57.7,29.9,57.9,29.8z M58.6,35.4   c-0.1,0.2-0.4,0.3-0.7,0.2c-0.2-0.1-0.3-0.4-0.2-0.7c0.1-0.2,0.4-0.3,0.7-0.2C58.6,34.9,58.7,35.2,58.6,35.4z M58.8,33.2   c-0.3,0-0.5-0.2-0.5-0.5c0-0.3,0.2-0.5,0.5-0.5c0.3,0,0.5,0.2,0.5,0.5C59.3,33,59.1,33.2,58.8,33.2z M58.8,14.8   c-0.3,0-0.5-0.2-0.5-0.5c0-0.3,0.2-0.5,0.5-0.5c0.3,0,0.5,0.2,0.5,0.5C59.3,14.6,59.1,14.8,58.8,14.8z M73.7,11.4   c0.2-0.1,0.5-0.1,0.7,0.2c0.1,0.2,0.1,0.5-0.2,0.7c-0.2,0.1-0.5,0.1-0.7-0.2C73.4,11.8,73.5,11.5,73.7,11.4z M74.2,16.4   c0.2,0.1,0.3,0.4,0.2,0.7c-0.1,0.2-0.4,0.3-0.7,0.2c-0.2-0.1-0.3-0.4-0.2-0.7C73.7,16.4,74,16.3,74.2,16.4z M71.7,9.7   c0.1-0.2,0.4-0.3,0.7-0.2c0.2,0.1,0.3,0.4,0.2,0.7c-0.1,0.2-0.4,0.3-0.7,0.2C71.6,10.3,71.6,10,71.7,9.7z M69.6,8.8   c0.3,0,0.5,0.2,0.5,0.5c0,0.3-0.2,0.5-0.5,0.5s-0.5-0.2-0.5-0.5C69.1,9,69.3,8.8,69.6,8.8z M66.8,9.6c0.2-0.1,0.5-0.1,0.7,0.2   c0.1,0.2,0.1,0.5-0.2,0.7c-0.2,0.1-0.5,0.1-0.7-0.2C66.5,10,66.6,9.7,66.8,9.6z M69.6,10.7c2,0,3.6,1.6,3.6,3.6s-1.6,3.6-3.6,3.6   S66,16.3,66,14.3S67.6,10.7,69.6,10.7z M72.3,19.1c-0.2,0.1-0.5,0.1-0.7-0.2c-0.1-0.2-0.1-0.5,0.2-0.7c0.2-0.1,0.5-0.1,0.7,0.2   C72.7,18.7,72.6,19,72.3,19.1z M70.1,19.3c0,0.3-0.2,0.5-0.5,0.5s-0.5-0.2-0.5-0.5s0.2-0.5,0.5-0.5S70.1,19.1,70.1,19.3z    M67.5,18.9c-0.1,0.2-0.4,0.3-0.7,0.2c-0.2-0.1-0.3-0.4-0.2-0.7c0.1-0.2,0.4-0.3,0.7-0.2C67.6,18.4,67.6,18.7,67.5,18.9z    M64.8,11.6c0.1-0.2,0.4-0.3,0.7-0.2c0.2,0.1,0.3,0.4,0.2,0.7c-0.1,0.2-0.4,0.3-0.7,0.2S64.7,11.8,64.8,11.6z M65.5,17.3   c-0.2,0.1-0.5,0.1-0.7-0.2c-0.1-0.2-0.1-0.5,0.2-0.7c0.2-0.1,0.5-0.1,0.7,0.2C65.8,16.8,65.7,17.1,65.5,17.3z M64.6,13.8   c0.3,0,0.5,0.2,0.5,0.5c0,0.3-0.2,0.5-0.5,0.5s-0.5-0.2-0.5-0.5C64.1,14.1,64.3,13.8,64.6,13.8z M64.6,21.9h10   c0.3,0,0.5,0.2,0.5,0.5s-0.2,0.5-0.5,0.5h-10c-0.3,0-0.5-0.2-0.5-0.5S64.3,21.9,64.6,21.9z M72.5,28.6c-0.1,0.2-0.4,0.3-0.7,0.2   c-0.2-0.1-0.3-0.4-0.2-0.7c0.1-0.2,0.4-0.3,0.7-0.2C72.6,28.1,72.7,28.4,72.5,28.6z M70.1,27.7c0,0.3-0.2,0.5-0.5,0.5   s-0.5-0.2-0.5-0.5c0-0.3,0.2-0.5,0.5-0.5S70.1,27.4,70.1,27.7z M67.3,28.8c-0.2,0.1-0.5,0.1-0.7-0.2c-0.1-0.2-0.1-0.5,0.2-0.7   c0.2-0.1,0.5-0.1,0.7,0.2C67.6,28.3,67.6,28.6,67.3,28.8z M64.1,32.7c0-0.3,0.2-0.5,0.5-0.5s0.5,0.2,0.5,0.5c0,0.3-0.2,0.5-0.5,0.5   S64.1,33,64.1,32.7z M65.5,35.6c-0.2,0.1-0.5,0.1-0.7-0.2c-0.1-0.2-0.1-0.5,0.2-0.7c0.2-0.1,0.5-0.1,0.7,0.2   C65.8,35.2,65.7,35.5,65.5,35.6z M65.7,30.4c-0.1,0.2-0.4,0.3-0.7,0.2s-0.3-0.4-0.2-0.7c0.1-0.2,0.4-0.3,0.7-0.2   C65.7,29.9,65.8,30.2,65.7,30.4z M66.8,37.5c-0.2-0.1-0.3-0.4-0.2-0.7c0.1-0.2,0.4-0.3,0.7-0.2c0.2,0.1,0.3,0.4,0.2,0.7   C67.4,37.5,67.1,37.6,66.8,37.5z M69.6,49.1c-1.1,0-2-0.9-2-2s0.9-2,2-2s2,0.9,2,2S70.7,49.1,69.6,49.1z M71.6,41.2h-4   c-0.3,0-0.5-0.2-0.5-0.5s0.2-0.5,0.5-0.5h4c0.3,0,0.5,0.2,0.5,0.5S71.9,41.2,71.6,41.2z M69.1,37.7c0-0.3,0.2-0.5,0.5-0.5   s0.5,0.2,0.5,0.5s-0.2,0.5-0.5,0.5S69.1,38,69.1,37.7z M72.3,37.5c-0.2,0.1-0.5,0.1-0.7-0.2c-0.1-0.2-0.1-0.5,0.2-0.7   c0.2-0.1,0.5-0.1,0.7,0.2C72.7,37,72.6,37.3,72.3,37.5z M69.6,36.3c-2,0-3.6-1.6-3.6-3.6s1.6-3.6,3.6-3.6s3.6,1.6,3.6,3.6   S71.6,36.3,69.6,36.3z M73.7,29.8c0.2-0.1,0.5-0.1,0.7,0.2c0.1,0.2,0.1,0.5-0.2,0.7c-0.2,0.1-0.5,0.1-0.7-0.2   C73.4,30.2,73.5,29.9,73.7,29.8z M74.4,35.4c-0.1,0.2-0.4,0.3-0.7,0.2c-0.2-0.1-0.3-0.4-0.2-0.7c0.1-0.2,0.4-0.3,0.7-0.2   C74.4,34.9,74.5,35.2,74.4,35.4z M74.6,33.2c-0.3,0-0.5-0.2-0.5-0.5c0-0.3,0.2-0.5,0.5-0.5c0.3,0,0.5,0.2,0.5,0.5   C75.1,33,74.9,33.2,74.6,33.2z M74.6,14.8c-0.3,0-0.5-0.2-0.5-0.5c0-0.3,0.2-0.5,0.5-0.5c0.3,0,0.5,0.2,0.5,0.5   C75.1,14.6,74.9,14.8,74.6,14.8z"/><path d="M98.4,1.1H1.6c-0.3,0-0.5,0.2-0.5,0.5v96.8c0,0.3,0.2,0.5,0.5,0.5h96.8c0.3,0,0.5-0.2,0.5-0.5V1.6   C98.9,1.3,98.7,1.1,98.4,1.1z M2.9,97.7c-0.4,0-0.7-0.3-0.7-0.7s0.3-0.7,0.7-0.7s0.7,0.3,0.7,0.7S3.3,97.7,2.9,97.7z M2.9,3.6   c-0.4,0-0.7-0.3-0.7-0.7s0.3-0.7,0.7-0.7s0.7,0.3,0.7,0.7S3.3,3.6,2.9,3.6z M7.1,87.1c-0.9,0-1.6-0.7-1.6-1.6   c0-0.9,0.7-1.6,1.6-1.6s1.6,0.7,1.6,1.6C8.8,86.4,8,87.1,7.1,87.1z M7.1,80.6c-0.9,0-1.6-0.7-1.6-1.6c0-0.9,0.7-1.6,1.6-1.6   s1.6,0.7,1.6,1.6C8.8,79.9,8,80.6,7.1,80.6z M7.1,74.1c-0.9,0-1.6-0.7-1.6-1.6s0.7-1.6,1.6-1.6s1.6,0.7,1.6,1.6S8,74.1,7.1,74.1z    M7.1,67.5c-0.9,0-1.6-0.7-1.6-1.6c0-0.9,0.7-1.6,1.6-1.6s1.6,0.7,1.6,1.6C8.8,66.8,8,67.5,7.1,67.5z M7.1,61   c-0.9,0-1.6-0.7-1.6-1.6c0-0.9,0.7-1.6,1.6-1.6s1.6,0.7,1.6,1.6C8.8,60.3,8,61,7.1,61z M7.1,54.5c-0.9,0-1.6-0.7-1.6-1.6   c0-0.9,0.7-1.6,1.6-1.6s1.6,0.7,1.6,1.6C8.8,53.8,8,54.5,7.1,54.5z M7.1,48c-0.9,0-1.6-0.7-1.6-1.6c0-0.9,0.7-1.6,1.6-1.6   s1.6,0.7,1.6,1.6C8.8,47.2,8,48,7.1,48z M7.1,41.4c-0.9,0-1.6-0.7-1.6-1.6c0-0.9,0.7-1.6,1.6-1.6s1.6,0.7,1.6,1.6   C8.8,40.7,8,41.4,7.1,41.4z M7.1,34.9c-0.9,0-1.6-0.7-1.6-1.6c0-0.9,0.7-1.6,1.6-1.6s1.6,0.7,1.6,1.6C8.8,34.2,8,34.9,7.1,34.9z    M7.1,28.4c-0.9,0-1.6-0.7-1.6-1.6c0-0.9,0.7-1.6,1.6-1.6s1.6,0.7,1.6,1.6C8.8,27.6,8,28.4,7.1,28.4z M7.1,21.8   c-0.9,0-1.6-0.7-1.6-1.6c0-0.9,0.7-1.6,1.6-1.6s1.6,0.7,1.6,1.6C8.8,21.1,8,21.8,7.1,21.8z M7.1,15.3c-0.9,0-1.6-0.7-1.6-1.6   c0-0.9,0.7-1.6,1.6-1.6s1.6,0.7,1.6,1.6C8.8,14.6,8,15.3,7.1,15.3z M7.1,8.8C6.2,8.8,5.5,8,5.5,7.1c0-0.9,0.7-1.6,1.6-1.6   s1.6,0.7,1.6,1.6C8.8,8,8,8.8,7.1,8.8z M13.6,87.1c-0.9,0-1.6-0.7-1.6-1.6c0-0.9,0.7-1.6,1.6-1.6c0.9,0,1.6,0.7,1.6,1.6   C15.3,86.4,14.5,87.1,13.6,87.1z M13.6,80.6c-0.9,0-1.6-0.7-1.6-1.6c0-0.9,0.7-1.6,1.6-1.6c0.9,0,1.6,0.7,1.6,1.6   C15.3,79.9,14.5,80.6,13.6,80.6z M13.6,74.1c-0.9,0-1.6-0.7-1.6-1.6s0.7-1.6,1.6-1.6c0.9,0,1.6,0.7,1.6,1.6S14.5,74.1,13.6,74.1z    M13.6,67.5c-0.9,0-1.6-0.7-1.6-1.6c0-0.9,0.7-1.6,1.6-1.6c0.9,0,1.6,0.7,1.6,1.6C15.3,66.8,14.5,67.5,13.6,67.5z M13.6,61   c-0.9,0-1.6-0.7-1.6-1.6c0-0.9,0.7-1.6,1.6-1.6c0.9,0,1.6,0.7,1.6,1.6C15.3,60.3,14.5,61,13.6,61z M13.6,54.5   c-0.9,0-1.6-0.7-1.6-1.6c0-0.9,0.7-1.6,1.6-1.6c0.9,0,1.6,0.7,1.6,1.6C15.3,53.8,14.5,54.5,13.6,54.5z M13.6,48   c-0.9,0-1.6-0.7-1.6-1.6c0-0.9,0.7-1.6,1.6-1.6c0.9,0,1.6,0.7,1.6,1.6C15.3,47.2,14.5,48,13.6,48z M13.6,41.4   c-0.9,0-1.6-0.7-1.6-1.6c0-0.9,0.7-1.6,1.6-1.6c0.9,0,1.6,0.7,1.6,1.6C15.3,40.7,14.5,41.4,13.6,41.4z M13.6,34.9   c-0.9,0-1.6-0.7-1.6-1.6c0-0.9,0.7-1.6,1.6-1.6c0.9,0,1.6,0.7,1.6,1.6C15.3,34.2,14.5,34.9,13.6,34.9z M13.6,28.4   c-0.9,0-1.6-0.7-1.6-1.6c0-0.9,0.7-1.6,1.6-1.6c0.9,0,1.6,0.7,1.6,1.6C15.3,27.6,14.5,28.4,13.6,28.4z M13.6,21.8   c-0.9,0-1.6-0.7-1.6-1.6c0-0.9,0.7-1.6,1.6-1.6c0.9,0,1.6,0.7,1.6,1.6C15.3,21.1,14.5,21.8,13.6,21.8z M13.6,15.3   c-0.9,0-1.6-0.7-1.6-1.6c0-0.9,0.7-1.6,1.6-1.6c0.9,0,1.6,0.7,1.6,1.6C15.3,14.6,14.5,15.3,13.6,15.3z M13.6,8.8   C12.7,8.8,12,8,12,7.1c0-0.9,0.7-1.6,1.6-1.6c0.9,0,1.6,0.7,1.6,1.6C15.3,8,14.5,8.8,13.6,8.8z M20.1,87.1c-0.9,0-1.6-0.7-1.6-1.6   c0-0.9,0.7-1.6,1.6-1.6c0.9,0,1.6,0.7,1.6,1.6C21.7,86.4,21,87.1,20.1,87.1z M20.1,80.6c-0.9,0-1.6-0.7-1.6-1.6   c0-0.9,0.7-1.6,1.6-1.6c0.9,0,1.6,0.7,1.6,1.6C21.7,79.9,21,80.6,20.1,80.6z M20.1,74.1c-0.9,0-1.6-0.7-1.6-1.6s0.7-1.6,1.6-1.6   c0.9,0,1.6,0.7,1.6,1.6S21,74.1,20.1,74.1z M20.1,67.5c-0.9,0-1.6-0.7-1.6-1.6c0-0.9,0.7-1.6,1.6-1.6c0.9,0,1.6,0.7,1.6,1.6   C21.7,66.8,21,67.5,20.1,67.5z M20.1,61c-0.9,0-1.6-0.7-1.6-1.6c0-0.9,0.7-1.6,1.6-1.6c0.9,0,1.6,0.7,1.6,1.6   C21.7,60.3,21,61,20.1,61z M20.1,54.5c-0.9,0-1.6-0.7-1.6-1.6c0-0.9,0.7-1.6,1.6-1.6c0.9,0,1.6,0.7,1.6,1.6   C21.7,53.8,21,54.5,20.1,54.5z M20.1,48c-0.9,0-1.6-0.7-1.6-1.6c0-0.9,0.7-1.6,1.6-1.6c0.9,0,1.6,0.7,1.6,1.6   C21.7,47.2,21,48,20.1,48z M20.1,41.4c-0.9,0-1.6-0.7-1.6-1.6c0-0.9,0.7-1.6,1.6-1.6c0.9,0,1.6,0.7,1.6,1.6   C21.7,40.7,21,41.4,20.1,41.4z M20.1,34.9c-0.9,0-1.6-0.7-1.6-1.6c0-0.9,0.7-1.6,1.6-1.6c0.9,0,1.6,0.7,1.6,1.6   C21.7,34.2,21,34.9,20.1,34.9z M20.1,28.4c-0.9,0-1.6-0.7-1.6-1.6c0-0.9,0.7-1.6,1.6-1.6c0.9,0,1.6,0.7,1.6,1.6   C21.7,27.6,21,28.4,20.1,28.4z M20.1,21.8c-0.9,0-1.6-0.7-1.6-1.6c0-0.9,0.7-1.6,1.6-1.6c0.9,0,1.6,0.7,1.6,1.6   C21.7,21.1,21,21.8,20.1,21.8z M20.1,15.3c-0.9,0-1.6-0.7-1.6-1.6c0-0.9,0.7-1.6,1.6-1.6c0.9,0,1.6,0.7,1.6,1.6   C21.7,14.6,21,15.3,20.1,15.3z M20.1,8.8c-0.9,0-1.6-0.7-1.6-1.6c0-0.9,0.7-1.6,1.6-1.6c0.9,0,1.6,0.7,1.6,1.6   C21.7,8,21,8.8,20.1,8.8z M30.1,95.7c0,0.3-0.2,0.5-0.5,0.5s-0.5-0.2-0.5-0.5v-2.4c0-0.3,0.2-0.5,0.5-0.5s0.5,0.2,0.5,0.5V95.7z    M29.1,85.5c0-0.9,0.7-1.6,1.6-1.6c0.9,0,1.6,0.7,1.6,1.6c0,0.9-0.7,1.6-1.6,1.6C29.8,87.1,29.1,86.4,29.1,85.5z M29.1,78.4   c0-0.9,0.7-1.6,1.6-1.6c0.9,0,1.6,0.7,1.6,1.6S31.6,80,30.7,80C29.8,80,29.1,79.3,29.1,78.4z M32.6,95.7c0,0.3-0.2,0.5-0.5,0.5   s-0.5-0.2-0.5-0.5v-2.4c0-0.3,0.2-0.5,0.5-0.5s0.5,0.2,0.5,0.5V95.7z M35.2,95.7c0,0.3-0.2,0.5-0.5,0.5s-0.5-0.2-0.5-0.5v-2.4   c0-0.3,0.2-0.5,0.5-0.5s0.5,0.2,0.5,0.5V95.7z M37.8,95.7c0,0.3-0.2,0.5-0.5,0.5s-0.5-0.2-0.5-0.5v-2.4c0-0.3,0.2-0.5,0.5-0.5   s0.5,0.2,0.5,0.5V95.7z M40.4,95.7c0,0.3-0.2,0.5-0.5,0.5s-0.5-0.2-0.5-0.5v-2.4c0-0.3,0.2-0.5,0.5-0.5s0.5,0.2,0.5,0.5V95.7z    M46,86.7c0,0.3-0.2,0.5-0.5,0.5h-3.1c-0.3,0-0.5-0.2-0.5-0.5v-3.1c0-0.3,0.2-0.5,0.5-0.5h3.1c0.3,0,0.5,0.2,0.5,0.5V86.7z    M49.5,79.1h-3.1c-0.3,0-0.5-0.2-0.5-0.5v-3.1c0-0.3,0.2-0.5,0.5-0.5h3.1c0.3,0,0.5,0.2,0.5,0.5v3.1C50,78.9,49.8,79.1,49.5,79.1z    M50,86.7v-3.1c0-0.3,0.2-0.5,0.5-0.5h3.1c0.3,0,0.5,0.2,0.5,0.5v3.1c0,0.3-0.2,0.5-0.5,0.5h-3.1C50.2,87.2,50,87,50,86.7z    M51.9,95.7c0,0.3-0.2,0.5-0.5,0.5s-0.5-0.2-0.5-0.5v-2.4c0-0.3,0.2-0.5,0.5-0.5s0.5,0.2,0.5,0.5V95.7z M54.5,95.7   c0,0.3-0.2,0.5-0.5,0.5s-0.5-0.2-0.5-0.5v-2.4c0-0.3,0.2-0.5,0.5-0.5s0.5,0.2,0.5,0.5V95.7z M57,95.7c0,0.3-0.2,0.5-0.5,0.5   S56,95.9,56,95.7v-2.4c0-0.3,0.2-0.5,0.5-0.5S57,93,57,93.3V95.7z M57.6,79.1h-3.1c-0.3,0-0.5-0.2-0.5-0.5v-3.1   c0-0.3,0.2-0.5,0.5-0.5h3.1c0.3,0,0.5,0.2,0.5,0.5v3.1C58.1,78.9,57.9,79.1,57.6,79.1z M58,86.7v-3.1c0-0.3,0.2-0.5,0.5-0.5h3.1   c0.3,0,0.5,0.2,0.5,0.5v3.1c0,0.3-0.2,0.5-0.5,0.5h-3.1C58.2,87.2,58,87,58,86.7z M59.6,95.7c0,0.3-0.2,0.5-0.5,0.5   s-0.5-0.2-0.5-0.5v-2.4c0-0.3,0.2-0.5,0.5-0.5s0.5,0.2,0.5,0.5V95.7z M62.2,95.7c0,0.3-0.2,0.5-0.5,0.5s-0.5-0.2-0.5-0.5v-2.4   c0-0.3,0.2-0.5,0.5-0.5s0.5,0.2,0.5,0.5V95.7z M66.1,86.7v-3.1c0-0.3,0.2-0.5,0.5-0.5h3.1c0.3,0,0.5,0.2,0.5,0.5v3.1   c0,0.3-0.2,0.5-0.5,0.5h-3.1C66.3,87.2,66.1,87,66.1,86.7z M70.2,95.7c0,0.3-0.2,0.5-0.5,0.5s-0.5-0.2-0.5-0.5v-0.7   c0-0.3,0.2-0.5,0.5-0.5s0.5,0.2,0.5,0.5V95.7z M70.1,78.6v-3.1c0-0.3,0.2-0.5,0.5-0.5h3.1c0.3,0,0.5,0.2,0.5,0.5v3.1   c0,0.3-0.2,0.5-0.5,0.5h-3.1C70.3,79.1,70.1,78.9,70.1,78.6z M74.6,95.7c0,0.3-0.2,0.5-0.5,0.5s-0.5-0.2-0.5-0.5v-0.7   c0-0.3,0.2-0.5,0.5-0.5s0.5,0.2,0.5,0.5V95.7z M74.6,87.2c-0.3,0-0.5-0.2-0.5-0.5v-3.1c0-0.3,0.2-0.5,0.5-0.5h3.1   c0.3,0,0.5,0.2,0.5,0.5v3.1c0,0.3-0.2,0.5-0.5,0.5H74.6z M79,95.7c0,0.3-0.2,0.5-0.5,0.5S78,95.9,78,95.7v-0.7   c0-0.3,0.2-0.5,0.5-0.5s0.5,0.2,0.5,0.5V95.7z M81.2,95.7c0,0.3-0.2,0.5-0.5,0.5s-0.5-0.2-0.5-0.5v-0.7c0-0.3,0.2-0.5,0.5-0.5   s0.5,0.2,0.5,0.5V95.7z M81.7,79.1h-3.1c-0.3,0-0.5-0.2-0.5-0.5v-3.1c0-0.3,0.2-0.5,0.5-0.5h3.1c0.3,0,0.5,0.2,0.5,0.5v3.1   C82.2,78.9,82,79.1,81.7,79.1z M85.6,95.7c0,0.3-0.2,0.5-0.5,0.5s-0.5-0.2-0.5-0.5v-0.7c0-0.3,0.2-0.5,0.5-0.5s0.5,0.2,0.5,0.5   V95.7z M86.3,86.7c0,0.3-0.2,0.5-0.5,0.5h-3.1c-0.3,0-0.5-0.2-0.5-0.5v-3.1c0-0.3,0.2-0.5,0.5-0.5h3.1c0.3,0,0.5,0.2,0.5,0.5V86.7z    M87.8,95.7c0,0.3-0.2,0.5-0.5,0.5s-0.5-0.2-0.5-0.5v-0.7c0-0.3,0.2-0.5,0.5-0.5s0.5,0.2,0.5,0.5V95.7z M90,95.7   c0,0.3-0.2,0.5-0.5,0.5S89,95.9,89,95.7v-0.7c0-0.3,0.2-0.5,0.5-0.5s0.5,0.2,0.5,0.5V95.7z M89.8,79.1h-3.1c-0.3,0-0.5-0.2-0.5-0.5   v-3.1c0-0.3,0.2-0.5,0.5-0.5h3.1c0.3,0,0.5,0.2,0.5,0.5v3.1C90.3,78.9,90.1,79.1,89.8,79.1z M90.2,86.7v-3.1c0-0.3,0.2-0.5,0.5-0.5   h3.1c0.3,0,0.5,0.2,0.5,0.5v3.1c0,0.3-0.2,0.5-0.5,0.5h-3.1C90.5,87.2,90.2,87,90.2,86.7z M92.1,95.7c0,0.3-0.2,0.5-0.5,0.5   s-0.5-0.2-0.5-0.5v-0.7c0-0.3,0.2-0.5,0.5-0.5s0.5,0.2,0.5,0.5V95.7z M94.3,95.7c0,0.3-0.2,0.5-0.5,0.5s-0.5-0.2-0.5-0.5v-0.7   c0-0.3,0.2-0.5,0.5-0.5s0.5,0.2,0.5,0.5V95.7z M94.3,54.5L94.3,54.5v16.1c0,0.3-0.2,0.5-0.5,0.5H61.7H29.6c-0.3,0-0.5-0.2-0.5-0.5   V54.5v0V6.3c0-0.3,0.2-0.5,0.5-0.5h64.3c0.3,0,0.5,0.2,0.5,0.5V54.5z M97.1,97.7c-0.4,0-0.7-0.3-0.7-0.7s0.3-0.7,0.7-0.7   s0.7,0.3,0.7,0.7S97.5,97.7,97.1,97.7z M97.1,3.6c-0.4,0-0.7-0.3-0.7-0.7s0.3-0.7,0.7-0.7s0.7,0.3,0.7,0.7S97.5,3.6,97.1,3.6z"/></g></svg>
