<svg xmlns="http://www.w3.org/2000/svg" version="1.1" viewBox="-5.0 -10.0 110.0 135.0">
 <g>
  <path d="m89.137 13.273h-78.273c-4.5 0-8.1523 3.6523-8.1523 8.1523v60.031c0 2.8945 2.3633 5.2578 5.2578 5.2578h84.074c2.8945 0 5.2578-2.3633 5.2578-5.2578l0.003907-60.02c-0.015626-4.5-3.668-8.1641-8.168-8.1641zm-63.711 38.227v16.684c0 0.30469-0.24219 0.54688-0.54688 0.54688h-5.5469c-0.30469 0-0.54688-0.24219-0.54688-0.54688l0.003906-16.684zm5.5117 0v16.684c0 1.3047 1.0625 2.3477 2.3477 2.3477h1.8633v14.363h-12.168v-14.363h1.8633c1.3047 0 2.3477-1.0625 2.3477-2.3477l0.003906-16.684zm8.457 0v16.684c0 0.30469-0.24219 0.54688-0.54688 0.54688h-5.5469c-0.30469 0-0.54688-0.24219-0.54688-0.54688l0.003906-16.684zm5.4688 0v16.684c0 1.3047 1.0625 2.3477 2.3477 2.3477h1.8633v14.363h-12.105v-14.363h1.8633c1.3047 0 2.3477-1.0625 2.3477-2.3477l0.003906-16.684zm8.4531 0v16.684c0 0.30469-0.24219 0.54688-0.54688 0.54688h-5.5469c-0.30469 0-0.54688-0.24219-0.54688-0.54688l0.007813-16.684zm5.5781 0v16.684c0 1.3047 1.0625 2.3477 2.3477 2.3477h1.8633v14.363h-12.195v-14.363h1.8633c1.3047 0 2.3477-1.0625 2.3477-2.3477v-16.684zm8.4531 0v16.684c0 0.30469-0.24219 0.54688-0.54688 0.54688h-5.5469c-0.30469 0-0.54688-0.24219-0.54688-0.54688l0.003907-16.684zm5.5156 0v16.684c0 1.3047 1.0625 2.3477 2.3477 2.3477h1.8633v14.363h-12.168v-14.363h1.8633c1.3047 0 2.3477-1.0625 2.3477-2.3477l0.003906-16.684zm8.4531 0v16.684c0 0.30469-0.24219 0.54688-0.54688 0.54688h-5.5469c-0.30469 0-0.54688-0.24219-0.54688-0.54688l0.007813-16.684zm2.8047 0c3.0898 0 5.6211 2.5156 5.6211 5.6211v27.805h-10.832v-14.363h1.8633c1.3047 0 2.3477-1.0625 2.3477-2.3477v-16.715zm-64.789 19.047h1.8633v14.363h-10.922v-27.789c0-3.0898 2.5156-5.6211 5.6211-5.6211h1.0898v16.684c-0.015625 1.3008 1.0469 2.3633 2.3477 2.3633zm76.152 10.922c0 1.8945-1.5469 3.4375-3.4375 3.4375h-0.5v-27.785c0-4.0898-3.332-7.4258-7.4258-7.4258h-68.227c-4.0898 0-7.4258 3.332-7.4258 7.4258v27.805h-0.51562c-1.8945 0-3.4375-1.5469-3.4375-3.4375v-60.051c0-3.5 2.8477-6.3477 6.3477-6.3477h78.273c3.5 0 6.3477 2.8477 6.3477 6.3477z"/>
  <path d="m37.953 32.258v-8.4531c0-0.80469-0.31641-1.5742-0.89453-2.1367-0.57422-0.57422-1.332-0.89453-2.1523-0.89453-1.6836 0-3.0312 1.3633-3.0312 3.0312v8.4531c-1.2891 0.41016-2.2266 1.6055-2.2266 3.0312 0 1.4258 0.9375 2.6211 2.2266 3.0312v2.0312c0 1.6836 1.3633 3.0312 3.0312 3.0312s3.0312-1.3633 3.0312-3.0312v-2.0312c1.2891-0.41016 2.2266-1.6055 2.2266-3.0312 0.03125-1.4258-0.90625-2.6211-2.2109-3.0312zm-3.0273-9.668c0.33203 0 0.63672 0.12109 0.86328 0.36328 0.22656 0.22656 0.36328 0.53125 0.36328 0.86328v8.2891h-2.4531v-8.2891c-0.003907-0.67969 0.55859-1.2266 1.2266-1.2266zm0 18.973c-0.68359 0-1.2266-0.54688-1.2266-1.2266v-1.8789h2.4531v1.8789c0 0.67969-0.54688 1.2266-1.2266 1.2266zm2.0898-4.9102h-4.168c-0.75781 0-1.3789-0.62109-1.3789-1.3789 0-0.75781 0.62109-1.3789 1.3789-1.3789h4.168c0.75781 0 1.3789 0.62109 1.3789 1.3789-0.015625 0.77344-0.62109 1.3789-1.3789 1.3789z"/>
  <path d="m29.91 28.184c0-1.4258-0.9375-2.6211-2.2266-3.0312v-1.3633c0-0.80469-0.31641-1.5625-0.89453-2.1523-0.57422-0.57422-1.332-0.87891-2.1367-0.87891-1.6836 0-3.0312 1.3633-3.0312 3.0312v1.3477c-1.2891 0.41016-2.2266 1.6055-2.2266 3.0312s0.9375 2.6211 2.2266 3.0312v9.1367c0 1.6836 1.3633 3.0312 3.0312 3.0312 1.668 0 3.0312-1.3633 3.0312-3.0312v-9.125c1.2852-0.40625 2.2266-1.6055 2.2266-3.0273zm-5.2734-5.5938c0.31641 0 0.63672 0.13672 0.86328 0.36328s0.36328 0.53125 0.36328 0.86328v1.1953h-2.4531v-1.1953c0-0.67969 0.55859-1.2266 1.2266-1.2266zm0 18.973c-0.68359 0-1.2266-0.54688-1.2266-1.2266v-8.9688h2.4531v8.9688c0 0.67969-0.54688 1.2266-1.2266 1.2266zm2.0898-12h-4.168c-0.75781 0-1.3789-0.62109-1.3789-1.3789 0-0.75781 0.62109-1.3789 1.3789-1.3789h4.168c0.75781 0 1.3789 0.62109 1.3789 1.3789-0.015625 0.75391-0.62109 1.3789-1.3789 1.3789z"/>
  <path d="m17.379 31.773v-7.9531c0-0.80469-0.31641-1.5625-0.89453-2.1367-0.57422-0.57422-1.332-0.89453-2.1367-0.89453-1.6836 0-3.0312 1.3633-3.0312 3.0312v7.9531c-1.2891 0.41016-2.2422 1.6055-2.2422 3.0312 0 1.4258 0.9375 2.6211 2.2422 3.0312v2.5312c0 1.6836 1.3633 3.0312 3.0312 3.0312 1.668 0 3.0312-1.3633 3.0312-3.0312v-2.5312c1.2891-0.41016 2.2422-1.6055 2.2422-3.0312 0-1.4414-0.9375-2.6367-2.2422-3.0312zm-3.0312-9.1836c0.31641 0 0.62109 0.12109 0.86328 0.36328 0.22656 0.22656 0.36328 0.53125 0.36328 0.86328v7.8047h-2.4375v-7.8047c0-0.67969 0.54688-1.2266 1.2109-1.2266zm0 18.973c-0.68359 0-1.2266-0.54688-1.2266-1.2266v-2.3633h2.4375v2.3633c0.015625 0.67969-0.52734 1.2266-1.2109 1.2266zm2.0898-5.3945h-4.1641c-0.75781 0-1.3789-0.62109-1.3789-1.3789 0-0.75781 0.62109-1.3789 1.3789-1.3789h4.168c0.75781 0 1.3789 0.62109 1.3789 1.3789-0.003906 0.75781-0.625 1.3789-1.3828 1.3789z"/>
  <path d="m87.305 18.969c-2 0-3.6211 1.6211-3.6211 3.6211s1.6211 3.6211 3.6211 3.6211 3.6211-1.6211 3.6211-3.6211-1.6367-3.6211-3.6211-3.6211zm0 5.4414c-1 0-1.8047-0.81641-1.8047-1.8047 0-1 0.81641-1.8047 1.8047-1.8047 1 0 1.8047 0.81641 1.8047 1.8047-0.003906 0.98438-0.82031 1.8047-1.8047 1.8047z"/>
  <path d="m87.305 28.453c-2 0-3.6211 1.6211-3.6211 3.6211s1.6211 3.6211 3.6211 3.6211 3.6211-1.6211 3.6211-3.6211-1.6367-3.6211-3.6211-3.6211zm0 5.4258c-1 0-1.8047-0.81641-1.8047-1.8047 0-1 0.81641-1.8047 1.8047-1.8047 1 0 1.8047 0.81641 1.8047 1.8047-0.003906 1-0.82031 1.8047-1.8047 1.8047z"/>
  <path d="m87.305 37.938c-2 0-3.6211 1.6211-3.6211 3.6211s1.6211 3.6211 3.6211 3.6211 3.6211-1.6211 3.6211-3.6211c0-1.9961-1.6367-3.6211-3.6211-3.6211zm0 5.4258c-1 0-1.8047-0.81641-1.8047-1.8047 0-1 0.81641-1.8047 1.8047-1.8047 1 0 1.8047 0.81641 1.8047 1.8047-0.003906 1.0039-0.82031 1.8047-1.8047 1.8047z"/>
  <path d="m76.969 18.969c-2 0-3.6211 1.6211-3.6211 3.6211s1.6211 3.6211 3.6211 3.6211 3.6211-1.6211 3.6211-3.6211-1.6211-3.6211-3.6211-3.6211zm0 5.4414c-1 0-1.8047-0.81641-1.8047-1.8047 0-1 0.81641-1.8047 1.8047-1.8047 1 0 1.8047 0.81641 1.8047 1.8047 0.015624 0.98438-0.80469 1.8047-1.8047 1.8047z"/>
  <path d="m76.969 28.453c-2 0-3.6211 1.6211-3.6211 3.6211s1.6211 3.6211 3.6211 3.6211 3.6211-1.6211 3.6211-3.6211-1.6211-3.6211-3.6211-3.6211zm0 5.4258c-1 0-1.8047-0.81641-1.8047-1.8047 0-1 0.81641-1.8047 1.8047-1.8047 1 0 1.8047 0.81641 1.8047 1.8047 0.015624 1-0.80469 1.8047-1.8047 1.8047z"/>
  <path d="m76.969 37.938c-2 0-3.6211 1.6211-3.6211 3.6211s1.6211 3.6211 3.6211 3.6211 3.6211-1.6211 3.6211-3.6211c0-1.9961-1.6211-3.6211-3.6211-3.6211zm0 5.4258c-1 0-1.8047-0.81641-1.8047-1.8047 0-1 0.81641-1.8047 1.8047-1.8047 1 0 1.8047 0.81641 1.8047 1.8047 0.015624 1.0039-0.80469 1.8047-1.8047 1.8047z"/>
  <path d="m66.438 22.605h-20.758c-2.1367 0-3.8633 1.7266-3.8633 3.8633v11.227c0 2.1367 1.7266 3.8633 3.8633 3.8633h20.758c2.1367 0 3.8633-1.7266 3.8633-3.8633v-11.227c0.003907-2.1367-1.7383-3.8633-3.8633-3.8633zm2.0469 15.09c0 1.1367-0.92578 2.0469-2.0469 2.0469h-20.758c-1.1367 0-2.0469-0.92578-2.0469-2.0469v-11.227c0-1.1367 0.92578-2.0469 2.0469-2.0469h20.758c1.1367 0 2.0469 0.92578 2.0469 2.0469z"/>
 </g>
<text x="0.0" y="117.5" font-size="5.0" font-weight="bold" font-family="Arbeit Regular, Helvetica, Arial-Unicode, Arial, Sans-serif" fill="#000000">Created by Design Circle</text><text x="0.0" y="122.5" font-size="5.0" font-weight="bold" font-family="Arbeit Regular, Helvetica, Arial-Unicode, Arial, Sans-serif" fill="#000000">from Noun Project</text></svg>