<svg xmlns="http://www.w3.org/2000/svg" xmlns:xlink="http://www.w3.org/1999/xlink" version="1.0" x="0px" y="0px" viewBox="0 0 100 125" enable-background="new 0 0 100 100" xml:space="preserve"><rect x="28.837" y="58.113" transform="matrix(0.7068 -0.7074 0.7074 0.7068 -35.6335 39.872)" fill="none" stroke="#000000" stroke-linecap="round" stroke-linejoin="round" stroke-miterlimit="10" width="2.888" height="9.615"/><rect x="32.917" y="54.032" transform="matrix(0.7073 -0.7069 0.7069 0.7073 -31.5389 41.5142)" fill="none" stroke="#000000" stroke-linecap="round" stroke-linejoin="round" stroke-miterlimit="10" width="2.886" height="9.617"/><polygon fill="none" stroke="#000000" stroke-linecap="round" stroke-linejoin="round" stroke-miterlimit="10" points="  31.981,54.422 38.779,61.222 37.759,62.241 44.561,69.038 48.64,64.959 35.042,51.361 "/><polygon fill="none" stroke="#000000" stroke-linecap="round" stroke-linejoin="round" stroke-miterlimit="10" points="  32.659,67.342 25.861,60.542 22.8,63.602 36.4,77.201 40.48,73.119 33.68,66.319 "/><polygon fill="none" stroke="#000000" stroke-linecap="round" stroke-linejoin="round" stroke-miterlimit="10" points="  36.74,63.262 29.94,56.46 27.9,58.499 34.7,65.299 33.68,66.319 40.48,73.119 44.561,69.038 37.759,62.241 "/><rect x="41.077" y="45.874" transform="matrix(0.7074 -0.7069 0.7069 0.7074 -23.3821 44.8861)" fill="none" stroke="#000000" stroke-linecap="round" stroke-linejoin="round" stroke-miterlimit="10" width="2.883" height="9.616"/><rect x="45.156" y="41.795" transform="matrix(0.7073 -0.7069 0.7069 0.7073 -19.3046 46.5838)" fill="none" stroke="#000000" stroke-linecap="round" stroke-linejoin="round" stroke-miterlimit="10" width="2.885" height="9.615"/><polygon fill="none" stroke="#000000" stroke-linecap="round" stroke-linejoin="round" stroke-miterlimit="10" points="  44.899,55.101 38.099,48.302 35.042,51.361 48.64,64.959 52.72,60.881 45.919,54.082 "/><polygon fill="none" stroke="#000000" stroke-linecap="round" stroke-linejoin="round" stroke-miterlimit="10" points="  48.979,51.021 42.18,44.22 40.14,46.259 46.938,53.063 45.919,54.082 52.72,60.881 56.799,56.8 50,49.999 "/><rect x="49.236" y="37.714" transform="matrix(0.7072 -0.707 0.707 0.7072 -15.225 48.2814)" fill="none" stroke="#000000" stroke-linecap="round" stroke-linejoin="round" stroke-miterlimit="10" width="2.885" height="9.617"/><polygon fill="none" stroke="#000000" stroke-linecap="round" stroke-linejoin="round" stroke-miterlimit="10" points="48.3,38.102   55.098,44.9 54.079,45.919 60.878,52.723 64.958,48.639 51.359,35.042 "/><polygon fill="none" stroke="#000000" stroke-linecap="round" stroke-linejoin="round" stroke-miterlimit="10" points="  53.058,46.939 46.259,40.141 44.219,42.18 51.019,48.982 50,49.999 56.799,56.8 60.878,52.723 54.079,45.919 "/><rect x="57.396" y="29.552" transform="matrix(0.707 -0.7072 0.7072 0.707 -7.0615 51.6766)" fill="none" stroke="#000000" stroke-linecap="round" stroke-linejoin="round" stroke-miterlimit="10" width="2.884" height="9.617"/><rect x="61.475" y="25.473" transform="matrix(0.707 -0.7072 0.7072 0.707 -2.9817 53.3662)" fill="none" stroke="#000000" stroke-linecap="round" stroke-linejoin="round" stroke-miterlimit="10" width="2.884" height="9.617"/><polygon fill="none" stroke="#000000" stroke-linecap="round" stroke-linejoin="round" stroke-miterlimit="10" points="  60.539,25.861 67.338,32.66 66.319,33.679 73.117,40.481 77.198,36.402 63.599,22.802 "/><polygon fill="none" stroke="#000000" stroke-linecap="round" stroke-linejoin="round" stroke-miterlimit="10" points="  61.218,38.781 54.419,31.98 51.359,35.042 64.958,48.639 69.038,44.56 62.238,37.762 "/><polygon fill="none" stroke="#000000" stroke-linecap="round" stroke-linejoin="round" stroke-miterlimit="10" points="  65.298,34.702 58.5,27.901 56.46,29.94 63.257,36.742 62.238,37.762 69.038,44.56 73.117,40.481 66.319,33.679 "/><rect x="69.635" y="17.312" transform="matrix(0.7074 -0.7069 0.7069 0.7074 5.1641 56.7148)" fill="none" stroke="#000000" stroke-linecap="round" stroke-linejoin="round" stroke-miterlimit="10" width="2.885" height="9.617"/><polygon fill="none" stroke="#000000" stroke-linecap="round" stroke-linejoin="round" stroke-miterlimit="10" points="  73.457,26.541 66.657,19.74 63.599,22.802 77.198,36.402 81.278,32.32 74.478,25.521 "/><polygon fill="none" stroke="#000000" stroke-linecap="round" stroke-linejoin="round" stroke-miterlimit="10" points="  68.698,17.703 75.498,24.501 74.478,25.521 81.278,32.32 85.359,28.241 71.76,14.641 "/><path fill="none" stroke="#000000" stroke-linecap="round" stroke-linejoin="round" stroke-miterlimit="10" d="M89.438,26.881  c0.748,0.748,0.748,1.972,0,2.72L29.6,89.438c-0.747,0.751-1.972,0.751-2.719,0L10.562,73.119c-0.749-0.746-0.749-1.971,0-2.72  l59.837-59.837c0.75-0.75,1.972-0.75,2.721,0L89.438,26.881z"/><rect x="14.872" y="68.474" transform="matrix(0.7069 -0.7074 0.7074 0.7069 -44.3098 33.8778)" fill="none" stroke="#000000" stroke-linecap="round" stroke-linejoin="round" stroke-miterlimit="10" width="7.694" height="3.849"/><path fill="none" stroke="#000000" stroke-linecap="round" stroke-linejoin="round" stroke-miterlimit="10" d="M24.16,75.838  c0.75,0.752,0.75,1.971-0.001,2.723c-0.75,0.752-1.968,0.752-2.719,0c-0.75-0.752-0.75-1.971,0-2.723  C22.19,75.091,23.408,75.091,24.16,75.838z"/><circle fill="none" stroke="#000000" stroke-linecap="round" stroke-linejoin="round" stroke-miterlimit="10" cx="28.239" cy="82.639" r="1.922"/><text x="0" y="115" fill="#000000" font-size="5px" font-weight="bold" font-family="'Helvetica Neue', Helvetica, Arial-Unicode, Arial, Sans-serif">Created by Danil Polshin</text><text x="0" y="120" fill="#000000" font-size="5px" font-weight="bold" font-family="'Helvetica Neue', Helvetica, Arial-Unicode, Arial, Sans-serif">from the Noun Project</text></svg>