<svg xmlns="http://www.w3.org/2000/svg" data-name="Layer 1" viewBox="0 0 100 125" x="0px" y="0px"><circle cx="65.13" cy="34.95" r="1.66"/><circle cx="74.96" cy="34.95" r="1.66"/><path d="M50,52.66a1,1,0,1,0-1-1A1,1,0,0,0,50,52.66Z"/><path d="M60.33,52.66a1,1,0,1,0-1-1A1,1,0,0,0,60.33,52.66Z"/><path d="M32.25,64.24a.81.81,0,0,1-.81.81H29.55V75a.39.39,0,0,0,.42.35h8.85a.37.37,0,0,0,.41-.32v-25h-7Zm2.3-1.18a1,1,0,1,1-1,1A1,1,0,0,1,34.55,63.06Zm-2.26,3.29h4.52v8.1H32.29Z"/><path d="M70.65,52.66a1,1,0,1,0-1-1A1,1,0,0,0,70.65,52.66Z"/><rect x="47.78" y="54.09" width="4.43" height="7.93"/><path d="M47.1,64.24V50.05H39.73V65h0V75a.37.37,0,0,0,.41.32h8.94a.39.39,0,0,0,.42-.35V65.05h-1.6A.81.81,0,0,1,47.1,64.24Zm-2.23-1.18a1,1,0,1,1-1,1A1,1,0,0,1,44.87,63.06Zm2.26,11.39H42.61v-8.1h4.52Z"/><path d="M61,21.83a1,1,0,1,0-1-1A1,1,0,0,0,61,21.83Z"/><path d="M16.05,40.53a5.18,5.18,0,1,0-5.18-5.18A5.18,5.18,0,0,0,16.05,40.53Zm0-10.08a4.9,4.9,0,1,1-4.9,4.9A4.9,4.9,0,0,1,16.05,30.45Z"/><path d="M61,22.32a1.52,1.52,0,1,0-1.52-1.52A1.52,1.52,0,0,0,61,22.32Zm0-2.79a1.27,1.27,0,1,1-1.27,1.27A1.27,1.27,0,0,1,61,19.53Z"/><rect x="16.8" y="54.11" width="4.43" height="7.94"/><path d="M33.15,40.53A5.18,5.18,0,1,0,28,35.35,5.18,5.18,0,0,0,33.15,40.53Zm0-10.08a4.9,4.9,0,1,1-4.9,4.9A4.91,4.91,0,0,1,33.15,30.45Z"/><path d="M50.11,40.53a5.18,5.18,0,1,0-5.18-5.18A5.18,5.18,0,0,0,50.11,40.53Zm0-10.08a4.9,4.9,0,1,1-4.89,4.9A4.91,4.91,0,0,1,50.11,30.45Z"/><path d="M16.17,64.24V50.05H8.89V74.89a.43.43,0,0,0,.43.43h9a.42.42,0,0,0,.42-.43V65.05H17A.82.82,0,0,1,16.17,64.24Zm-2.26-1.18a1,1,0,1,1-1,1A1,1,0,0,1,13.91,63.06Zm2.26,11.39H11.65v-8.1h4.52Z"/><path d="M19,52.66a1,1,0,1,0-1-1A1,1,0,0,0,19,52.66Z"/><path d="M68.56,22.32A1.52,1.52,0,1,0,67,20.8,1.52,1.52,0,0,0,68.56,22.32Zm0-2.79a1.27,1.27,0,1,1-1.28,1.27A1.27,1.27,0,0,1,68.56,19.53Z"/><path d="M26.49,64.24V50.05H21.93V64.24a.81.81,0,0,1-.81.81H19.21V75a.39.39,0,0,0,.43.35h8.94A.39.39,0,0,0,29,75V65.05h-1.7A.82.82,0,0,1,26.49,64.24ZM24.2,63.06a1,1,0,1,1-1,1A1,1,0,0,1,24.2,63.06Zm2.26,11.39H21.93v-8.1h4.53Z"/><rect x="27.16" y="54.11" width="4.43" height="7.94"/><path d="M33.15,40a4.65,4.65,0,1,0-4.65-4.64A4.65,4.65,0,0,0,33.15,40Zm0-8.28a3.64,3.64,0,1,1-3.64,3.64A3.64,3.64,0,0,1,33.15,31.71Z"/><path d="M57.46,64.24V50.05h-4.6V64.24a.82.82,0,0,1-.82.81H50V75a.39.39,0,0,0,.43.35h8.93a.39.39,0,0,0,.43-.35V65.05H58.27A.81.81,0,0,1,57.46,64.24Zm-2.38-1.18a1,1,0,1,1-1,1A1,1,0,0,1,55.08,63.06Zm2.27,11.39H52.82v-8.1h4.53Z"/><path d="M80.82,75a.4.4,0,0,0,.43.35h9a.39.39,0,0,0,.43-.35V50.05H80.82Zm5.26-11.91a1,1,0,1,1-1,1A1,1,0,0,1,86.08,63.06Zm-2.26,3.29h4.52v8.1H83.82Z"/><path d="M83.61,22.32a1.52,1.52,0,1,0-1.52-1.52A1.52,1.52,0,0,0,83.61,22.32Zm0-2.79a1.27,1.27,0,1,1-1.27,1.27A1.27,1.27,0,0,1,83.61,19.53Z"/><path d="M73.53,64.24a.81.81,0,0,1-.81.81H70.5v9.84a.43.43,0,0,0,.43.43h9a.42.42,0,0,0,.42-.43V50.05H73.53Zm2.3-1.18a1,1,0,1,1-1,1A1,1,0,0,1,75.83,63.06Zm-2.26,3.29H78.1v8.1H73.57Z"/><path d="M76,21.83a1,1,0,1,0-1-1A1,1,0,0,0,76,21.83Z"/><path d="M83.61,21.83a1,1,0,1,0-1-1A1,1,0,0,0,83.61,21.83Z"/><path d="M5,15.26V86.37H94.87V15.26ZM87.29,31.57v6.76a2,2,0,0,1-2,2h-.46a2,2,0,0,1-2-2V31.57a2,2,0,0,1,2-2h.46A2,2,0,0,1,87.29,31.57Zm-71.24-1.9a5.68,5.68,0,1,1-5.68,5.68A5.68,5.68,0,0,1,16.05,29.67Zm-4.75,1,.17-.19L12,31l-.17.19Zm1.08-1.48.21-.13.62,1-.22.13Zm1.89-.27.24-.06.19.75-.25.06Zm1.65.48V28.08h.25V29.4Zm1.64.22.13-.75.25,0-.13.75Zm1.41.47.59-1,.22.12-.59,1Zm1.31.9.59-.51.17.19-.59.51Zm1.6,6.09.05-.25.77.16-.06.25ZM22.53,39l-.15.21-1.1-.78.15-.21Zm-.37-3.5v-.25h1.31v.25Zm-.23-1.53-.05-.24.76-.16.06.24Zm-.51-1.4-.13-.22,1.1-.62.13.22ZM21,40l-.17.18-.59-.53.17-.19Zm-1.16,1.58-.21.13L19,40.59l.21-.13Zm-6.67-1-.62,1.15-.22-.12L13,40.46ZM12,39.67l-.56.54L11.3,40l.56-.54ZM10.86,38.2l.14.2-.93.67-.15-.2Zm-1.14-1L9.62,37l.65-.29.11.23Zm1.07-4.7-1-.61.13-.22,1,.62Zm-.45,1.09,0,.24-.66-.08,0-.24Zm-.16,1.6v.25H8.92v-.25Zm80.37,9.54V45H8.66v-.24ZM33.15,29.67a5.68,5.68,0,1,1-5.68,5.68A5.68,5.68,0,0,1,33.15,29.67Zm-4.75,1,.17-.19.56.51-.17.19Zm1.08-1.48.21-.13.62,1-.22.13Zm1.89-.27.24-.06.19.75-.25.06ZM33,29.4V28.08h.25V29.4Zm1.64.22.14-.75.24,0-.13.75Zm1.41.47.59-1,.22.12-.59,1Zm1.31.9.59-.51.17.19-.59.51ZM39,37.08l.05-.25.77.16-.06.25ZM39.63,39l-.15.21-1.1-.78.15-.21Zm-.37-3.5v-.25h1.31v.25ZM39,33.94,39,33.7l.76-.16.06.24Zm-.51-1.4-.12-.22,1.09-.62.13.22ZM38.14,40l-.17.18-.59-.53.17-.19ZM37,41.61l-.21.13-.7-1.15.22-.13Zm-6.67-1-.61,1.15-.23-.12.62-1.15Zm-1.18-.91-.56.54L28.4,40l.56-.54ZM28,38.2l.14.2-.93.67-.14-.2Zm-1.14-1-.1-.23.66-.29.1.23Zm1.07-4.7-1.05-.61L27,31.7l1,.62Zm-.45,1.09,0,.24-.65-.08,0-.24Zm-.16,1.6v.25H26v-.25Zm22.83-5.55a5.68,5.68,0,1,1-5.68,5.68A5.68,5.68,0,0,1,50.11,29.67Zm-4.75,1,.17-.19.57.51-.17.19Zm1.08-1.48.21-.13.62,1-.21.13Zm1.89-.27.24-.06.19.75-.24.06ZM50,29.4V28.08h.25V29.4Zm1.63.22.14-.75.24,0-.13.75Zm1.41.47.59-1,.22.12-.59,1Zm1.32.9.59-.51.16.19-.59.51Zm1.59,6.09.05-.25.77.16,0,.25ZM56.59,39l-.14.21-1.1-.78.14-.21Zm-.37-3.5v-.25h1.32v.25ZM56,33.94l-.05-.24.77-.16,0,.24Zm-.51-1.4-.12-.22,1.1-.62.12.22ZM55.1,40l-.17.18-.59-.53.17-.19Zm-1.16,1.58-.21.13L53,40.59l.22-.13Zm-6.67-1-.61,1.15-.22-.12.61-1.15Zm-1.17-.91-.56.54L45.36,40l.56-.54ZM44.92,38.2l.15.2-.94.67-.14-.2Zm-1.14-1-.1-.23.66-.29.1.23Zm1.07-4.7-1.05-.61.13-.22,1,.62Zm-.45,1.09,0,.24-.65-.08,0-.24Zm-.16,1.6v.25H43v-.25ZM83.61,18.66a2.14,2.14,0,1,1-2.14,2.14A2.14,2.14,0,0,1,83.61,18.66Zm-7.58,0a2.14,2.14,0,1,1-2.14,2.14A2.14,2.14,0,0,1,76,18.66Zm-3.23,13a2,2,0,0,1,2-2h.45a2,2,0,0,1,2,2v6.75a2,2,0,0,1-2,2h-.45a2,2,0,0,1-2-2Zm-4.24-13a2.14,2.14,0,1,1-2.14,2.14A2.13,2.13,0,0,1,68.56,18.66ZM65,29.56h.45a2,2,0,0,1,2,2v6.76a2,2,0,0,1-2,2H65a2,2,0,0,1-2-2V31.53A2,2,0,0,1,65,29.56Zm-4-10.9a2.14,2.14,0,1,1-2.14,2.14A2.14,2.14,0,0,1,61,18.66ZM42.42,25.25A.29.29,0,0,1,42.7,25H58a.28.28,0,0,1,.28.28V27a.27.27,0,0,1-.28.28H42.7a.28.28,0,0,1-.28-.28Zm-.6,2.06h.24V41.67h-.24ZM25.37,25.25a.29.29,0,0,1,.28-.28H40.94a.28.28,0,0,1,.28.28V27a.27.27,0,0,1-.28.28H25.65a.28.28,0,0,1-.28-.28Zm-.92,2.06h.24V41.67h-.24ZM8.27,25.25A.29.29,0,0,1,8.55,25H23.84a.28.28,0,0,1,.28.28V27a.27.27,0,0,1-.28.28H8.55A.28.28,0,0,1,8.27,27ZM90.55,79.61a.63.63,0,0,1-.63.63H9.28a.64.64,0,0,1-.64-.63V78.53a.64.64,0,0,1,.64-.63H89.92a.63.63,0,0,1,.63.63Zm1-30.4a.83.83,0,0,1-.37.7V75a.89.89,0,0,1-.93.85h-9a1,1,0,0,1-.69-.28.93.93,0,0,1-.66.28h-9a1,1,0,0,1-.67-.28.92.92,0,0,1-.67.28H60.73a.9.9,0,0,1-.66-.27,1,1,0,0,1-.68.27H50.46a1,1,0,0,1-.69-.28,1,1,0,0,1-.68.28H40.15a.89.89,0,0,1-.66-.27.93.93,0,0,1-.67.27H30a.93.93,0,0,1-.69-.29,1,1,0,0,1-.7.29H19.64a1,1,0,0,1-.69-.28.93.93,0,0,1-.66.28h-9a.93.93,0,0,1-.93-.93V50a.83.83,0,0,1-.73-.83V47.47a.84.84,0,0,1,.84-.84H90.71a.82.82,0,0,1,.35.08h.12v.06a.84.84,0,0,1,.37.7Zm-.86-26.27a2.14,2.14,0,1,1,2.13-2.14A2.14,2.14,0,0,1,90.69,22.94Z"/><path d="M50.11,40a4.65,4.65,0,1,0-4.64-4.64A4.65,4.65,0,0,0,50.11,40Zm0-8.28a3.64,3.64,0,1,1-3.64,3.64A3.64,3.64,0,0,1,50.11,31.71Z"/><path d="M90.69,19.28a1.52,1.52,0,1,0,1.52,1.52A1.53,1.53,0,0,0,90.69,19.28Zm0,2.79A1.27,1.27,0,1,1,92,20.8,1.27,1.27,0,0,1,90.69,22.07Z"/><path d="M90.69,19.77a1,1,0,1,0,1,1A1,1,0,0,0,90.69,19.77Z"/><path d="M16.05,40a4.65,4.65,0,1,0-4.65-4.64A4.64,4.64,0,0,0,16.05,40Zm0-8.28a3.64,3.64,0,1,1-3.64,3.64A3.64,3.64,0,0,1,16.05,31.71Z"/><path d="M76,22.32a1.52,1.52,0,1,0-1.52-1.52A1.52,1.52,0,0,0,76,22.32Zm0-2.79a1.27,1.27,0,1,1-1.27,1.27A1.27,1.27,0,0,1,76,19.53Z"/><path d="M68.56,21.83a1,1,0,1,0-1-1A1,1,0,0,0,68.56,21.83Z"/><path d="M67.78,64.24V50.05H63.21V64.24a.81.81,0,0,1-.81.81H60.32V75a.38.38,0,0,0,.41.35h8.86A.38.38,0,0,0,70,75V65.05H68.59A.81.81,0,0,1,67.78,64.24Zm-2.34-1.18a1,1,0,1,1-1,1A1,1,0,0,1,65.44,63.06ZM67.7,74.45H63.18v-8.1H67.7Z"/><rect x="68.44" y="54.09" width="4.43" height="7.93"/><rect x="58.12" y="54.09" width="4.43" height="7.93"/><path d="M29.37,52.66a1,1,0,1,0-1-1A1,1,0,0,0,29.37,52.66Z"/><circle cx="85.04" cy="34.91" r="1.66"/><text x="0" y="115" fill="#000000" font-size="5px" font-weight="bold" font-family="'Helvetica Neue', Helvetica, Arial-Unicode, Arial, Sans-serif">Created by Jekaterine Marin</text><text x="0" y="120" fill="#000000" font-size="5px" font-weight="bold" font-family="'Helvetica Neue', Helvetica, Arial-Unicode, Arial, Sans-serif">from the Noun Project</text></svg>